{
.appVersion = "1342";
DisplayStrings = (
"/dcaron/lcaron/tcaron"
);
classes = (
{
automatic = 1;
code = "A Aacute Abreve Acircumflex Adieresis Agrave Amacron Aogonek Aring Atilde AE AEacute B C Cacute Ccaron Ccedilla Cdotaccent D Eth Dcaron Dcroat E Eacute Ecaron Ecircumflex Edieresis Edotaccent Egrave Emacron Eogonek F G Gbreve Gcommaaccent Gdotaccent H I Iacute Icircumflex Idieresis Idotaccent Igrave Imacron Iogonek J K Kcommaaccent L Lacute Lcaron Lcommaaccent Lslash M N Nacute Ncaron Ncommaaccent Ntilde O Oacute Ocircumflex Odieresis Ograve Ohungarumlaut Omacron Oslash Oslashacute Otilde OE P Thorn Q R Racute Rcaron Rcommaaccent S Sacute Scaron Scedilla Scommaaccent Germandbls T Tcaron Tcedilla Tcommaaccent U Uacute Ucircumflex Udieresis Ugrave Uhungarumlaut Umacron Uogonek Uring V W Wacute Wcircumflex Wdieresis Wgrave X Y Yacute Ycircumflex Ydieresis Ygrave Z Zacute Zcaron Zdotaccent Delta";
name = Uppercase;
}
);
copyright = "Copyright (c) 2020 The Open Sauce Two Authors (https://github.com/marcologous/Open-Sauce-Fonts)";
customParameters = (
{
name = licenseURL;
value = "http://scripts.sil.org/OFL";
},
{
name = license;
value = "Copyright (c) 2020 The Open Sauce Two Authors (https://github.com/marcologous/Open-Sauce-Fonts)\012\012This Font Software is licensed under the SIL Open Font License, Version 1.1.\012This license is copied below, and is also available with a FAQ at:\012http://scripts.sil.org/OFL";
}
);
date = "2020-07-09 07:09:25 +0000";
designer = "Alfredo Marco Pradil";
designerURL = "http://www.creative-sauce.com";
familyName = "Open Sauce Two";
featurePrefixes = (
{
automatic = 1;
code = "languagesystem DFLT dflt;\012\012languagesystem latn dflt;\012languagesystem latn AZE;\012languagesystem latn CRT;\012languagesystem latn KAZ;\012languagesystem latn TAT;\012languagesystem latn TRK;\012languagesystem latn ROM;\012languagesystem latn MOL;\012";
name = Languagesystems;
}
);
features = (
{
automatic = 1;

glyphs = (
{
color = 1;
glyphname = A;
lastChange = "2020-04-15 13:26:20 +0000";
layers = (
{
anchors = (
{
name = bottom;
position = "{360, 0}";
},
{
name = ogonek;
position = "{694, 0}";
},
{
name = top;
position = "{360, 763}";
}
);
guideLines = (
{
position = "{361, 436}";
}
);
layerId = "FD6EB2BB-8839-4CDB-86BF-4EEAE3F02079";
paths = (
{
closed = 1;
nodes = (
"175 0 LINE SMOOTH",
"186 0 OFFCURVE",
"194 6 OFFCURVE",
"197 17 CURVE SMOOTH",
"228 120 LINE SMOOTH",
"231 131 OFFCURVE",
"239 137 OFFCURVE",
"250 137 CURVE SMOOTH",
"470 137 LINE SMOOTH",
"481 137 OFFCURVE",
"489 131 OFFCURVE",
"492 120 CURVE SMOOTH",
"523 17 LINE SMOOTH",
"526 6 OFFCURVE",
"534 0 OFFCURVE",
"545 0 CURVE SMOOTH",
"694 0 LINE SMOOTH",
"708 0 OFFCURVE",
"715 9 OFFCURVE",
"710 23 CURVE SMOOTH",
"463 747 LINE SMOOTH",
"459 758 OFFCURVE",
"451 763 OFFCURVE",
"440 763 CURVE SMOOTH",
"280 763 LINE SMOOTH",
"269 763 OFFCURVE",
"261 758 OFFCURVE",
"257 747 CURVE SMOOTH",
"10 23 LINE SMOOTH",
"5 9 OFFCURVE",
"12 0 OFFCURVE",
"26 0 CURVE SMOOTH"
);
},
{
closed = 1;
nodes = (
"289 292 OFFCURVE",
"283 302 OFFCURVE",
"287 315 CURVE SMOOTH",
"347 521 LINE SMOOTH",
"352 539 OFFCURVE",
"368 539 OFFCURVE",
"373 521 CURVE SMOOTH",
"433 315 LINE SMOOTH",
"437 302 OFFCURVE",
"431 292 OFFCURVE",
"417 292 CURVE SMOOTH",
"303 292 LINE SMOOTH"
);
}
);
width = 720;
},
{
anchors = (
{
name = bottom;
position = "{347, 0}";
},
{
name = ogonek;
position = "{668, 0}";
},
{
name = top;
position = "{347, 763}";
}
);
guideLines = (
{
position = "{341, 436}";
}
);
layerId = "11907447-A26F-432E-A335-7727E0303767";
paths = (
{
closed = 1;
nodes = (
"98 0 LINE SMOOTH",
"103 0 OFFCURVE",
"108 2 OFFCURVE",
"110 8 CURVE SMOOTH",
"171 179 LINE SMOOTH",
"173 185 OFFCURVE",
"178 187 OFFCURVE",
"183 187 CURVE SMOOTH",
"511 187 LINE SMOOTH",
"516 187 OFFCURVE",
"521 185 OFFCURVE",
"523 179 CURVE SMOOTH",
"584 8 LINE SMOOTH",
"586 2 OFFCURVE",
"591 0 OFFCURVE",
"596 0 CURVE SMOOTH",
"668 0 LINE SMOOTH",
"675 0 OFFCURVE",
"679 5 OFFCURVE",
"676 12 CURVE SMOOTH",
"402 755 LINE SMOOTH",
"400 761 OFFCURVE",
"395 763 OFFCURVE",
"390 763 CURVE SMOOTH",
"304 763 LINE SMOOTH",
"299 763 OFFCURVE",
"294 761 OFFCURVE",
"292 755 CURVE SMOOTH",
"18 12 LINE SMOOTH",
"15 5 OFFCURVE",
"19 0 OFFCURVE",
"26 0 CURVE SMOOTH"
);
},
{
closed = 1;
nodes = (
"210 269 OFFCURVE",
"207 273 OFFCURVE",
"209 280 CURVE SMOOTH",
"340 651 LINE SMOOTH",
"343 659 OFFCURVE",
"351 659 OFFCURVE",
"354 651 CURVE SMOOTH",
"485 280 LINE SMOOTH",
"487 273 OFFCURVE",
"484 269 OFFCURVE",
"477 269 CURVE SMOOTH",
"217 269 LINE SMOOTH"
);
}
);
width = 694;
},
{
anchors = (
{
name = bottom;
position = "{344, 0}";
},
{
name = ogonek;
position = "{660, 0}";
},
{
name = top;
position = "{344, 763}";
}
);
guideLines = (
{
position = "{361, 436}";
}
);
layerId = "2F4EEC1B-9E89-4E08-AD53-AB625B6E887D";
paths = (
{
closed = 1;
nodes = (
"79 0 LINE SMOOTH",
"84 0 OFFCURVE",
"88 2 OFFCURVE",
"90 8 CURVE SMOOTH",
"161 198 LINE SMOOTH",
"163 204 OFFCURVE",
"167 206 OFFCURVE",
"172 206 CURVE SMOOTH",
"516 206 LINE SMOOTH",
"521 206 OFFCURVE",
"525 204 OFFCURVE",
"527 198 CURVE SMOOTH",
"598 8 LINE SMOOTH",
"600 2 OFFCURVE",
"604 0 OFFCURVE",
"609 0 CURVE SMOOTH",
"660 0 LINE SMOOTH",
"667 0 OFFCURVE",
"671 5 OFFCURVE",
"668 12 CURVE SMOOTH",
"387 755 LINE SMOOTH",
"385 761 OFFCURVE",
"381 763 OFFCURVE",
"376 763 CURVE SMOOTH",
"312 763 LINE SMOOTH",
"307 763 OFFCURVE",
"303 761 OFFCURVE",
"301 755 CURVE SMOOTH",
"20 12 LINE SMOOTH",
"17 5 OFFCURVE",
"21 0 OFFCURVE",
"28 0 CURVE SMOOTH"
);
},
{
closed = 1;
nodes = (
"191 268 OFFCURVE",
"187 273 OFFCURVE",
"190 280 CURVE SMOOTH",
"337 674 LINE SMOOTH",
"340 682 OFFCURVE",
"348 682 OFFCURVE",
"351 674 CURVE SMOOTH",
"498 280 LINE SMOOTH",
"501 273 OFFCURVE",
"497 268 OFFCURVE",
"490 268 CURVE SMOOTH",
"198 268 LINE SMOOTH"
);
}
);
width = 688;
}
);
leftKerningGroup = A;
note = A;
rightKerningGroup = A;
unicode = 0041;
},
{
color = 1;
glyphname = Aring;
lastChange = "2020-04-15 11:47:04 +0000";
layers = (
{
layerId = "11907447-A26F-432E-A335-7727E0303767";
paths = (
{
closed = 1;
nodes = (
"98 0 LINE SMOOTH",
"103 0 OFFCURVE",
"108 2 OFFCURVE",
"110 8 CURVE SMOOTH",
"171 179 LINE SMOOTH",
"173 185 OFFCURVE",
"178 187 OFFCURVE",
"183 187 CURVE SMOOTH",
"511 187 LINE SMOOTH",
"516 187 OFFCURVE",
"521 185 OFFCURVE",
"523 179 CURVE SMOOTH",
"584 8 LINE SMOOTH",
"586 2 OFFCURVE",
"591 0 OFFCURVE",
"596 0 CURVE SMOOTH",
"668 0 LINE SMOOTH",
"675 0 OFFCURVE",
"678 5 OFFCURVE",
"676 12 CURVE SMOOTH",
"417 715 LINE SMOOTH",
"415 720 OFFCURVE",
"417 724 OFFCURVE",
"421 728 CURVE SMOOTH",
"450 750 OFFCURVE",
"466 784 OFFCURVE",
"466 821 CURVE SMOOTH",
"466 888 OFFCURVE",
"410 939 OFFCURVE",
"346 939 CURVE SMOOTH",
"281 939 OFFCURVE",
"228 887 OFFCURVE",
"228 821 CURVE SMOOTH",
"228 784 OFFCURVE",
"244 750 OFFCURVE",
"273 728 CURVE SMOOTH",
"277 724 OFFCURVE",
"279 720 OFFCURVE",
"277 715 CURVE SMOOTH",
"18 12 LINE SMOOTH",
"16 5 OFFCURVE",
"19 0 OFFCURVE",
"26 0 CURVE SMOOTH"
);
},
{
closed = 1;
nodes = (
"210 269 OFFCURVE",
"207 273 OFFCURVE",
"209 280 CURVE SMOOTH",
"340 653 LINE SMOOTH",
"343 661 OFFCURVE",
"351 661 OFFCURVE",
"354 653 CURVE SMOOTH",
"485 280 LINE SMOOTH",
"487 273 OFFCURVE",
"484 269 OFFCURVE",
"477 269 CURVE SMOOTH",
"217 269 LINE SMOOTH"
);
},
{
closed = 1;
nodes = (
"316 764 OFFCURVE",
"291 789 OFFCURVE",
"291 823 CURVE SMOOTH",
"291 854 OFFCURVE",
"315 878 OFFCURVE",
"347 878 CURVE SMOOTH",
"382 878 OFFCURVE",
"404 853 OFFCURVE",
"404 823 CURVE SMOOTH",
"404 789 OFFCURVE",
"380 764 OFFCURVE",
"347 764 CURVE SMOOTH"
);
}
);
width = 694;
},
{
layerId = "FD6EB2BB-8839-4CDB-86BF-4EEAE3F02079";
paths = (
{
closed = 1;
nodes = (
"175 0 LINE SMOOTH",
"186 0 OFFCURVE",
"194 6 OFFCURVE",
"197 17 CURVE SMOOTH",
"228 120 LINE SMOOTH",
"231 131 OFFCURVE",
"239 137 OFFCURVE",
"250 137 CURVE SMOOTH",
"470 137 LINE SMOOTH",
"481 137 OFFCURVE",
"489 131 OFFCURVE",
"492 120 CURVE SMOOTH",
"523 17 LINE SMOOTH",
"526 6 OFFCURVE",
"534 0 OFFCURVE",
"545 0 CURVE SMOOTH",
"694 0 LINE SMOOTH",
"708 0 OFFCURVE",
"715 9 OFFCURVE",
"710 23 CURVE SMOOTH",
"472 722 LINE SMOOTH",
"469 732 OFFCURVE",
"470 739 OFFCURVE",
"475 749 CURVE SMOOTH",
"486 768 OFFCURVE",
"493 791 OFFCURVE",
"493 816 CURVE SMOOTH",
"493 890 OFFCURVE",
"433 949 OFFCURVE",
"360 949 CURVE SMOOTH",
"286 949 OFFCURVE",
"227 890 OFFCURVE",
"227 816 CURVE SMOOTH",
"227 792 OFFCURVE",
"233 768 OFFCURVE",
"245 749 CURVE SMOOTH",
"251 739 OFFCURVE",
"252 731 OFFCURVE",
"249 721 CURVE SMOOTH",
"10 23 LINE SMOOTH",
"5 9 OFFCURVE",
"12 0 OFFCURVE",
"26 0 CURVE SMOOTH"
);
},
{
closed = 1;
nodes = (
"290 292 OFFCURVE",
"283 302 OFFCURVE",
"287 315 CURVE SMOOTH",
"347 520 LINE SMOOTH",
"352 538 OFFCURVE",
"368 538 OFFCURVE",
"373 520 CURVE SMOOTH",
"433 315 LINE SMOOTH",
"437 302 OFFCURVE",
"430 292 OFFCURVE",
"416 292 CURVE SMOOTH",
"304 292 LINE SMOOTH"
);
},
{
closed = 1;
nodes = (
"332 766 OFFCURVE",
"311 787 OFFCURVE",
"311 818 CURVE SMOOTH",
"311 844 OFFCURVE",
"329 865 OFFCURVE",
"360 865 CURVE SMOOTH",
"392 865 OFFCURVE",
"409 845 OFFCURVE",
"409 818 CURVE SMOOTH",
"409 787 OFFCURVE",
"390 766 OFFCURVE",
"360 766 CURVE SMOOTH"
);
}
);
width = 720;
},
{
layerId = "2F4EEC1B-9E89-4E08-AD53-AB625B6E887D";
paths = (
{
closed = 1;
nodes = (
"79 0 LINE SMOOTH",
"84 0 OFFCURVE",
"88 2 OFFCURVE",
"90 8 CURVE SMOOTH",
"161 198 LINE SMOOTH",
"163 204 OFFCURVE",
"167 206 OFFCURVE",
"172 206 CURVE SMOOTH",
"516 206 LINE SMOOTH",
"521 206 OFFCURVE",
"525 204 OFFCURVE",
"527 198 CURVE SMOOTH",
"598 8 LINE SMOOTH",
"600 2 OFFCURVE",
"604 0 OFFCURVE",
"609 0 CURVE SMOOTH",
"660 0 LINE SMOOTH",
"667 0 OFFCURVE",
"670 5 OFFCURVE",
"668 12 CURVE SMOOTH",
"399 721 LINE SMOOTH",
"397 726 OFFCURVE",
"399 731 OFFCURVE",
"404 735 CURVE SMOOTH",
"433 755 OFFCURVE",
"453 787 OFFCURVE",
"453 826 CURVE SMOOTH",
"453 887 OFFCURVE",
"402 934 OFFCURVE",
"344 934 CURVE SMOOTH",
"283 934 OFFCURVE",
"235 886 OFFCURVE",
"235 826 CURVE SMOOTH",
"235 789 OFFCURVE",
"255 756 OFFCURVE",
"284 734 CURVE SMOOTH",
"289 730 OFFCURVE",
"290 726 OFFCURVE",
"288 721 CURVE SMOOTH",
"20 12 LINE SMOOTH",
"18 5 OFFCURVE",
"21 0 OFFCURVE",
"28 0 CURVE SMOOTH"
);
},
{
closed = 1;
nodes = (
"191 267 OFFCURVE",
"188 272 OFFCURVE",
"190 279 CURVE SMOOTH",
"337 676 LINE SMOOTH",
"340 684 OFFCURVE",
"348 684 OFFCURVE",
"351 676 CURVE SMOOTH",
"498 279 LINE SMOOTH",
"500 272 OFFCURVE",
"497 267 OFFCURVE",
"490 267 CURVE SMOOTH",
"198 267 LINE SMOOTH"
);
},
{
closed = 1;
nodes = (
"311 764 OFFCURVE",
"283 791 OFFCURVE",
"283 828 CURVE SMOOTH",
"283 861 OFFCURVE",
"310 888 OFFCURVE",
"345 888 CURVE SMOOTH",
"381 888 OFFCURVE",
"406 861 OFFCURVE",
"406 828 CURVE SMOOTH",
"406 792 OFFCURVE",
"380 764 OFFCURVE",
"345 764 CURVE SMOOTH"
);
}
);
width = 688;
}
);
leftKerningGroup = A;
leftMetricsKey = A;
rightKerningGroup = A;
rightMetricsKey = A;
unicode = 00C5;
},
{
color = 1;
glyphname = AE;
lastChange = "2020-04-15 11:47:04 +0000";
layers = (
{
anchors = (
{
name = bottom;
position = "{536, 0}";
},
{
name = top;
position = "{536, 763}";
}
);
layerId = "11907447-A26F-432E-A335-7727E0303767";
paths = (
{
closed = 1;
nodes = (
"98 0 LINE SMOOTH",
"103 0 OFFCURVE",
"108 2 OFFCURVE",
"110 8 CURVE SMOOTH",
"171 179 LINE SMOOTH",
"173 185 OFFCURVE",
"178 187 OFFCURVE",
"183 187 CURVE SMOOTH",
"511 187 LINE SMOOTH",
"516 187 OFFCURVE",
"521 184 OFFCURVE",
"523 179 CURVE SMOOTH",
"580 8 LINE SMOOTH",
"582 3 OFFCURVE",
"587 0 OFFCURVE",
"592 0 CURVE SMOOTH",
"1046 0 LINE SMOOTH",
"1053 0 OFFCURVE",
"1056 5 OFFCURVE",
"1054 12 CURVE SMOOTH",
"1030 75 LINE SMOOTH",
"1028 81 OFFCURVE",
"1024 83 OFFCURVE",
"1019 83 CURVE SMOOTH",
"659 83 LINE SMOOTH",
"654 83 OFFCURVE",
"649 85 OFFCURVE",
"647 91 CURVE SMOOTH",
"559 331 LINE SMOOTH",
"557 338 OFFCURVE",
"560 342 OFFCURVE",
"567 342 CURVE SMOOTH",
"919 342 LINE SMOOTH",
"926 342 OFFCURVE",
"929 346 OFFCURVE",
"927 353 CURVE SMOOTH",
"905 416 LINE SMOOTH",
"903 422 OFFCURVE",
"898 424 OFFCURVE",
"893 424 CURVE SMOOTH",
"534 424 LINE SMOOTH",
"529 424 OFFCURVE",
"524 426 OFFCURVE",
"522 432 CURVE SMOOTH",
"435 669 LINE SMOOTH",
"433 676 OFFCURVE",
"436 680 OFFCURVE",
"443 680 CURVE SMOOTH",
"796 680 LINE SMOOTH",
"803 680 OFFCURVE",
"806 685 OFFCURVE",
"804 692 CURVE SMOOTH",
"780 755 LINE SMOOTH",
"778 761 OFFCURVE",
"774 763 OFFCURVE",
"769 763 CURVE SMOOTH",
"304 763 LINE SMOOTH",
"299 763 OFFCURVE",
"294 761 OFFCURVE",
"292 755 CURVE SMOOTH",
"18 12 LINE SMOOTH",
"16 5 OFFCURVE",
"19 0 OFFCURVE",
"26 0 CURVE SMOOTH"
);
},
{
closed = 1;
nodes = (
"210 269 OFFCURVE",
"207 273 OFFCURVE",
"209 280 CURVE SMOOTH",
"340 654 LINE SMOOTH",
"343 663 OFFCURVE",
"351 663 OFFCURVE",
"354 654 CURVE SMOOTH",
"485 280 LINE SMOOTH",
"487 273 OFFCURVE",
"484 269 OFFCURVE",
"477 269 CURVE SMOOTH",
"217 269 LINE SMOOTH"
);
}
);
width = 1072;
},
{
anchors = (
{
name = bottom;
position = "{514, 0}";
},
{
name = top;
position = "{514, 763}";
}
);
layerId = "FD6EB2BB-8839-4CDB-86BF-4EEAE3F02079";
paths = (
{
closed = 1;
nodes = (
"175 0 LINE SMOOTH",
"186 0 OFFCURVE",
"194 6 OFFCURVE",
"197 17 CURVE SMOOTH",
"228 120 LINE SMOOTH",
"231 131 OFFCURVE",
"239 137 OFFCURVE",
"250 137 CURVE SMOOTH",
"470 137 LINE SMOOTH",
"481 137 OFFCURVE",
"489 131 OFFCURVE",
"492 120 CURVE SMOOTH",
"523 17 LINE SMOOTH",
"526 6 OFFCURVE",
"534 0 OFFCURVE",
"545 0 CURVE SMOOTH",
"1002 0 LINE SMOOTH",
"1016 0 OFFCURVE",
"1023 9 OFFCURVE",
"1018 23 CURVE SMOOTH",
"978 144 LINE SMOOTH",
"974 155 OFFCURVE",
"966 160 OFFCURVE",
"955 160 CURVE SMOOTH",
"682 160 LINE SMOOTH",
"671 160 OFFCURVE",
"664 165 OFFCURVE",
"660 176 CURVE SMOOTH",
"625 279 LINE SMOOTH",
"620 293 OFFCURVE",
"627 302 OFFCURVE",
"641 302 CURVE SMOOTH",
"899 302 LINE SMOOTH",
"913 302 OFFCURVE",
"920 311 OFFCURVE",
"915 325 CURVE SMOOTH",
"875 445 LINE SMOOTH",
"871 456 OFFCURVE",
"863 461 OFFCURVE",
"852 461 CURVE SMOOTH",
"579 461 LINE SMOOTH",
"568 461 OFFCURVE",
"561 466 OFFCURVE",
"557 477 CURVE SMOOTH",
"522 580 LINE SMOOTH",
"517 594 OFFCURVE",
"524 603 OFFCURVE",
"538 603 CURVE SMOOTH",
"796 603 LINE SMOOTH",
"810 603 OFFCURVE",
"817 612 OFFCURVE",
"812 626 CURVE SMOOTH",
"770 747 LINE SMOOTH",
"766 758 OFFCURVE",
"758 763 OFFCURVE",
"747 763 CURVE SMOOTH",
"280 763 LINE SMOOTH",
"269 763 OFFCURVE",
"261 758 OFFCURVE",
"257 747 CURVE SMOOTH",
"10 23 LINE SMOOTH",
"5 9 OFFCURVE",
"12 0 OFFCURVE",
"26 0 CURVE SMOOTH"
);
},
{
closed = 1;
nodes = (
"290 292 OFFCURVE",
"283 302 OFFCURVE",
"287 315 CURVE SMOOTH",
"347 520 LINE SMOOTH",
"352 538 OFFCURVE",
"368 538 OFFCURVE",
"373 520 CURVE SMOOTH",
"433 315 LINE SMOOTH",
"437 302 OFFCURVE",
"430 292 OFFCURVE",
"416 292 CURVE SMOOTH",
"304 292 LINE SMOOTH"
);
}
);
width = 1028;
},
{
anchors = (
{
name = bottom;
position = "{531, 0}";
},
{
name = top;
position = "{531, 763}";
}
);
layerId = "2F4EEC1B-9E89-4E08-AD53-AB625B6E887D";
paths = (
{
closed = 1;
nodes = (
"79 0 LINE SMOOTH",
"84 0 OFFCURVE",
"88 2 OFFCURVE",
"90 8 CURVE SMOOTH",
"161 198 LINE SMOOTH",
"163 204 OFFCURVE",
"167 206 OFFCURVE",
"172 206 CURVE SMOOTH",
"515 206 LINE SMOOTH",
"520 206 OFFCURVE",
"525 204 OFFCURVE",
"527 198 CURVE SMOOTH",
"594 8 LINE SMOOTH",
"596 2 OFFCURVE",
"601 0 OFFCURVE",
"606 0 CURVE SMOOTH",
"1033 0 LINE SMOOTH",
"1040 0 OFFCURVE",
"1044 5 OFFCURVE",
"1041 12 CURVE SMOOTH",
"1024 54 LINE SMOOTH",
"1022 60 OFFCURVE",
"1018 62 OFFCURVE",
"1013 62 CURVE SMOOTH",
"657 62 LINE SMOOTH",
"652 62 OFFCURVE",
"648 64 OFFCURVE",
"646 70 CURVE SMOOTH",
"543 341 LINE SMOOTH",
"541 348 OFFCURVE",
"544 353 OFFCURVE",
"551 353 CURVE SMOOTH",
"899 353 LINE SMOOTH",
"906 353 OFFCURVE",
"909 357 OFFCURVE",
"907 364 CURVE SMOOTH",
"892 406 LINE SMOOTH",
"890 412 OFFCURVE",
"885 414 OFFCURVE",
"880 414 CURVE SMOOTH",
"524 414 LINE SMOOTH",
"519 414 OFFCURVE",
"515 416 OFFCURVE",
"513 422 CURVE SMOOTH",
"412 689 LINE SMOOTH",
"410 696 OFFCURVE",
"413 701 OFFCURVE",
"420 701 CURVE SMOOTH",
"770 701 LINE SMOOTH",
"777 701 OFFCURVE",
"781 706 OFFCURVE",
"778 713 CURVE SMOOTH",
"761 755 LINE SMOOTH",
"759 761 OFFCURVE",
"755 763 OFFCURVE",
"750 763 CURVE SMOOTH",
"312 763 LINE SMOOTH",
"307 763 OFFCURVE",
"303 761 OFFCURVE",
"301 755 CURVE SMOOTH",
"20 12 LINE SMOOTH",
"18 5 OFFCURVE",
"21 0 OFFCURVE",
"28 0 CURVE SMOOTH"
);
},
{
closed = 1;
nodes = (
"191 267 OFFCURVE",
"188 272 OFFCURVE",
"190 279 CURVE SMOOTH",
"337 675 LINE SMOOTH",
"340 683 OFFCURVE",
"348 683 OFFCURVE",
"351 675 CURVE SMOOTH",
"498 279 LINE SMOOTH",
"500 272 OFFCURVE",
"497 267 OFFCURVE",
"490 267 CURVE SMOOTH",
"198 267 LINE SMOOTH"
);
}
);
width = 1061;
}
);
leftKerningGroup = A;
leftMetricsKey = A;
rightKerningGroup = A;
rightMetricsKey = A;
unicode = 00C6;
},
{
color = 1;
glyphname = B;
lastChange = "2020-04-15 11:37:36 +0000";
layers = (
{
anchors = (
{
name = bottom;
position = "{338, 0}";
},
{
name = top;
position = "{338, 763}";
}
);
layerId = "FD6EB2BB-8839-4CDB-86BF-4EEAE3F02079";
paths = (
{
closed = 1;
nodes = (
"386 0 LINE SMOOTH",
"416 0 OFFCURVE",
"520 0 OFFCURVE",
"594 56 CURVE SMOOTH",
"637 89 OFFCURVE",
"670 151 OFFCURVE",
"670 226 CURVE SMOOTH",
"670 311 OFFCURVE",
"628 371 OFFCURVE",
"551 395 CURVE SMOOTH",
"544 397 OFFCURVE",
"540 399 OFFCURVE",
"540 402 CURVE SMOOTH",
"540 405 OFFCURVE",
"543 408 OFFCURVE",
"549 411 CURVE SMOOTH",
"602 441 OFFCURVE",
"631 497 OFFCURVE",
"631 572 CURVE SMOOTH",
"631 626 OFFCURVE",
"616 666 OFFCURVE",
"586 697 CURVE SMOOTH",
"544 741 OFFCURVE",
"472 763 OFFCURVE",
"372 763 CURVE SMOOTH",
"80 763 LINE SMOOTH",
"67 763 OFFCURVE",
"60 756 OFFCURVE",
"60 743 CURVE SMOOTH",
"60 20 LINE SMOOTH",
"60 7 OFFCURVE",
"67 0 OFFCURVE",
"80 0 CURVE SMOOTH"
);
},
{
closed = 1;
nodes = (
"246 160 OFFCURVE",
"239 167 OFFCURVE",
"239 180 CURVE SMOOTH",
"239 295 LINE SMOOTH",
"239 308 OFFCURVE",
"246 315 OFFCURVE",
"259 315 CURVE SMOOTH",
"376 315 LINE SMOOTH",
"449 315 OFFCURVE",
"491 304 OFFCURVE",
"491 241 CURVE SMOOTH",
"491 213 OFFCURVE",
"483 195 OFFCURVE",
"468 183 CURVE SMOOTH",
"445 164 OFFCURVE",
"408 160 OFFCURVE",
"363 160 CURVE SMOOTH",
"259 160 LINE SMOOTH"
);
},
{
closed = 1;
nodes = (
"246 455 OFFCURVE",
"239 462 OFFCURVE",
"239 475 CURVE SMOOTH",
"239 583 LINE SMOOTH",
"239 596 OFFCURVE",
"246 603 OFFCURVE",
"259 603 CURVE SMOOTH",
"333 603 LINE SMOOTH",
"385 603 OFFCURVE",
"411 598 OFFCURVE",
"428 585 CURVE SMOOTH",
"444 573 OFFCURVE",
"452 555 OFFCURVE",
"452 530 CURVE SMOOTH",
"452 480 OFFCURVE",
"420 455 OFFCURVE",
"357 455 CURVE SMOOTH",
"259 455 LINE SMOOTH"
);
}
);
width = 703;
},
{
anchors = (
{
name = bottom;
position = "{334, 0}";
},
{
name = top;
position = "{334, 763}";
}
);
layerId = "11907447-A26F-432E-A335-7727E0303767";
paths = (
{
closed = 1;
nodes = (
"378 0 LINE SMOOTH",
"442 0 OFFCURVE",
"528 14 OFFCURVE",
"583 67 CURVE SMOOTH",
"616 100 OFFCURVE",
"639 147 OFFCURVE",
"639 215 CURVE SMOOTH",
"639 309 OFFCURVE",
"593 374 OFFCURVE",
"510 394 CURVE SMOOTH",
"504 395 OFFCURVE",
"501 397 OFFCURVE",
"501 401 CURVE SMOOTH",
"501 405 OFFCURVE",
"504 407 OFFCURVE",
"509 409 CURVE SMOOTH",
"567 433 OFFCURVE",
"601 496 OFFCURVE",
"601 572 CURVE SMOOTH",
"601 627 OFFCURVE",
"585 674 OFFCURVE",
"550 707 CURVE SMOOTH",
"512 743 OFFCURVE",
"453 763 OFFCURVE",
"366 763 CURVE SMOOTH",
"89 763 LINE SMOOTH",
"83 763 OFFCURVE",
"79 759 OFFCURVE",
"79 753 CURVE SMOOTH",
"79 10 LINE SMOOTH",
"79 4 OFFCURVE",
"83 0 OFFCURVE",
"89 0 CURVE SMOOTH"
);
},
{
closed = 1;
nodes = (
"175 83 OFFCURVE",
"171 87 OFFCURVE",
"171 93 CURVE SMOOTH",
"171 340 LINE SMOOTH",
"171 346 OFFCURVE",
"175 350 OFFCURVE",
"181 350 CURVE SMOOTH",
"388 350 LINE SMOOTH",
"430 350 OFFCURVE",
"547 350 OFFCURVE",
"547 221 CURVE SMOOTH",
"547 174 OFFCURVE",
"532 143 OFFCURVE",
"510 123 CURVE SMOOTH",
"467 83 OFFCURVE",
"398 83 OFFCURVE",
"368 83 CURVE SMOOTH",
"181 83 LINE SMOOTH"
);
},
{
closed = 1;
nodes = (
"175 432 OFFCURVE",
"171 436 OFFCURVE",
"171 442 CURVE SMOOTH",
"171 670 LINE SMOOTH",
"171 676 OFFCURVE",
"175 680 OFFCURVE",
"181 680 CURVE SMOOTH",
"346 680 LINE SMOOTH",
"401 680 OFFCURVE",
"447 669 OFFCURVE",
"476 641 CURVE SMOOTH",
"496 622 OFFCURVE",
"508 595 OFFCURVE",
"508 557 CURVE SMOOTH",
"508 478 OFFCURVE",
"456 432 OFFCURVE",
"366 432 CURVE SMOOTH",
"181 432 LINE SMOOTH"
);
}
);
width = 690;
},
{
anchors = (
{
name = bottom;
position = "{328, 0}";
},
{
name = top;
position = "{328, 763}";
}
);
layerId = "2F4EEC1B-9E89-4E08-AD53-AB625B6E887D";
paths = (
{
closed = 1;
nodes = (
"371 0 LINE SMOOTH",
"440 0 OFFCURVE",
"515 15 OFFCURVE",
"566 61 CURVE SMOOTH",
"602 94 OFFCURVE",
"626 142 OFFCURVE",
"626 211 CURVE SMOOTH",
"626 309 OFFCURVE",
"577 376 OFFCURVE",
"494 395 CURVE SMOOTH",
"491 396 OFFCURVE",
"488 397 OFFCURVE",
"488 400 CURVE SMOOTH",
"488 403 OFFCURVE",
"490 405 OFFCURVE",
"493 406 CURVE SMOOTH",
"551 426 OFFCURVE",
"588 492 OFFCURVE",
"588 573 CURVE SMOOTH",
"588 622 OFFCURVE",
"576 664 OFFCURVE",
"550 695 CURVE SMOOTH",
"514 739 OFFCURVE",
"452 763 OFFCURVE",
"359 763 CURVE SMOOTH",
"89 763 LINE SMOOTH",
"83 763 OFFCURVE",
"79 759 OFFCURVE",
"79 753 CURVE SMOOTH",
"79 10 LINE SMOOTH",
"79 4 OFFCURVE",
"83 0 OFFCURVE",
"89 0 CURVE SMOOTH"
);
},
{
closed = 1;
nodes = (
"152 62 OFFCURVE",
"148 66 OFFCURVE",
"148 72 CURVE SMOOTH",
"148 351 LINE SMOOTH",
"148 357 OFFCURVE",
"152 361 OFFCURVE",
"158 361 CURVE SMOOTH",
"391 361 LINE SMOOTH",
"454 361 OFFCURVE",
"557 342 OFFCURVE",
"557 215 CURVE SMOOTH",
"557 165 OFFCURVE",
"540 131 OFFCURVE",
"516 108 CURVE SMOOTH",
"475 69 OFFCURVE",
"411 62 OFFCURVE",
"364 62 CURVE SMOOTH",
"158 62 LINE SMOOTH"
);
},
{
closed = 1;
nodes = (
"152 423 OFFCURVE",
"148 427 OFFCURVE",
"148 433 CURVE SMOOTH",
"148 691 LINE SMOOTH",
"148 697 OFFCURVE",
"152 701 OFFCURVE",
"158 701 CURVE SMOOTH",
"345 701 LINE SMOOTH",
"403 701 OFFCURVE",
"450 689 OFFCURVE",
"481 661 CURVE SMOOTH",
"505 639 OFFCURVE",
"519 606 OFFCURVE",
"519 562 CURVE SMOOTH",
"519 477 OFFCURVE",
"461 423 OFFCURVE",
"369 423 CURVE SMOOTH",
"158 423 LINE SMOOTH"
);
}
);
width = 677;
}
);
leftKerningGroup = B;
note = B;
rightKerningGroup = B;
unicode = 0042;
},
{
color = 1;
glyphname = C;
lastChange = "2020-04-15 11:37:46 +0000";
layers = (
{
anchors = (
{
name = bottom;
position = "{389, 0}";
},
{
name = top;
position = "{389, 763}";
}
);
guideLines = (
{
position = "{124, 259}";
},
{
position = "{525, 505}";
},
{
position = "{418, 525}";
}
);
layerId = "FD6EB2BB-8839-4CDB-86BF-4EEAE3F02079";
paths = (
{
closed = 1;
nodes = (
"607 -17 OFFCURVE",
"722 86 OFFCURVE",
"748 241 CURVE SMOOTH",
"750 252 OFFCURVE",
"742 259 OFFCURVE",
"729 259 CURVE SMOOTH",
"573 259 LINE SMOOTH",
"561 259 OFFCURVE",
"554 253 OFFCURVE",
"551 241 CURVE SMOOTH",
"534 174 OFFCURVE",
"479 143 OFFCURVE",
"409 143 CURVE SMOOTH",
"288 143 OFFCURVE",
"221 237 OFFCURVE",
"221 382 CURVE SMOOTH",
"221 526 OFFCURVE",
"288 619 OFFCURVE",
"409 619 CURVE SMOOTH",
"479 619 OFFCURVE",
"534 589 OFFCURVE",
"551 523 CURVE SMOOTH",
"555 511 OFFCURVE",
"561 505 OFFCURVE",
"573 505 CURVE SMOOTH",
"729 505 LINE SMOOTH",
"742 505 OFFCURVE",
"750 513 OFFCURVE",
"748 526 CURVE SMOOTH",
"720 679 OFFCURVE",
"605 779 OFFCURVE",
"413 779 CURVE SMOOTH",
"152 779 OFFCURVE",
"32 595 OFFCURVE",
"32 382 CURVE SMOOTH",
"32 169 OFFCURVE",
"152 -17 OFFCURVE",
"413 -17 CURVE SMOOTH"
);
}
);
width = 779;
},
{
anchors = (
{
name = bottom;
position = "{372, 0}";
},
{
name = top;
position = "{372, 763}";
}
);
guideLines = (
{
position = "{657, 231}";
}
);
layerId = "11907447-A26F-432E-A335-7727E0303767";
paths = (
{
closed = 1;
nodes = (
"568 -10 OFFCURVE",
"678 79 OFFCURVE",
"705 221 CURVE SMOOTH",
"706 227 OFFCURVE",
"703 231 OFFCURVE",
"696 231 CURVE SMOOTH",
"616 231 LINE SMOOTH",
"610 231 OFFCURVE",
"607 228 OFFCURVE",
"605 222 CURVE SMOOTH",
"583 123 OFFCURVE",
"507 72 OFFCURVE",
"400 72 CURVE SMOOTH",
"230 72 OFFCURVE",
"142 203 OFFCURVE",
"142 382 CURVE SMOOTH",
"142 560 OFFCURVE",
"230 691 OFFCURVE",
"400 691 CURVE SMOOTH",
"506 691 OFFCURVE",
"583 641 OFFCURVE",
"605 561 CURVE SMOOTH",
"606 555 OFFCURVE",
"610 552 OFFCURVE",
"616 552 CURVE SMOOTH",
"696 552 LINE SMOOTH",
"703 552 OFFCURVE",
"706 556 OFFCURVE",
"705 563 CURVE SMOOTH",
"678 687 OFFCURVE",
"567 773 OFFCURVE",
"402 773 CURVE SMOOTH",
"161 773 OFFCURVE",
"50 589 OFFCURVE",
"50 382 CURVE SMOOTH",
"50 175 OFFCURVE",
"161 -10 OFFCURVE",
"402 -10 CURVE SMOOTH"
);
}
);
width = 748;
},
{
anchors = (
{
name = bottom;
position = "{394, 0}";
},
{
name = top;
position = "{394, 763}";
}
);
layerId = "2F4EEC1B-9E89-4E08-AD53-AB625B6E887D";
paths = (
{
closed = 1;
nodes = (
"554 -10 OFFCURVE",
"661 75 OFFCURVE",
"689 207 CURVE SMOOTH",
"690 212 OFFCURVE",
"687 216 OFFCURVE",
"680 216 CURVE SMOOTH",
"627 216 LINE SMOOTH",
"621 216 OFFCURVE",
"617 213 OFFCURVE",
"616 207 CURVE SMOOTH",
"592 108 OFFCURVE",
"509 52 OFFCURVE",
"393 52 CURVE SMOOTH",
"210 52 OFFCURVE",
"119 195 OFFCURVE",
"119 382 CURVE SMOOTH",
"119 568 OFFCURVE",
"210 711 OFFCURVE",
"393 711 CURVE SMOOTH",
"508 711 OFFCURVE",
"592 656 OFFCURVE",
"616 570 CURVE SMOOTH",
"617 564 OFFCURVE",
"621 561 OFFCURVE",
"627 561 CURVE SMOOTH",
"680 561 LINE SMOOTH",
"687 561 OFFCURVE",
"690 565 OFFCURVE",
"689 572 CURVE SMOOTH",
"660 690 OFFCURVE",
"553 773 OFFCURVE",
"395 773 CURVE SMOOTH",
"159 773 OFFCURVE",
"50 589 OFFCURVE",
"50 382 CURVE SMOOTH",
"50 175 OFFCURVE",
"159 -10 OFFCURVE",
"395 -10 CURVE SMOOTH"
);
}
);
width = 733;
}
);
leftKerningGroup = C;
note = C;
rightKerningGroup = C;
unicode = 0043;
},
{
color = 1;
glyphname = D;
lastChange = "2020-04-15 11:47:04 +0000";
layers = (
{
anchors = (
{
name = bottom;
position = "{348, 0}";
},
{
name = center;
position = "{212, 382}";
},
{
name = top;
position = "{348, 763}";
}
);
layerId = "FD6EB2BB-8839-4CDB-86BF-4EEAE3F02079";
paths = (
{
closed = 1;
nodes = (
"291 0 LINE SMOOTH",
"551 0 OFFCURVE",
"694 136 OFFCURVE",
"694 383 CURVE SMOOTH",
"694 628 OFFCURVE",
"551 763 OFFCURVE",
"291 763 CURVE SMOOTH",
"80 763 LINE SMOOTH",
"67 763 OFFCURVE",
"60 756 OFFCURVE",
"60 743 CURVE SMOOTH",
"60 20 LINE SMOOTH",
"60 7 OFFCURVE",
"67 0 OFFCURVE",
"80 0 CURVE SMOOTH"
);
},
{
closed = 1;
nodes = (
"246 160 OFFCURVE",
"239 167 OFFCURVE",
"239 180 CURVE SMOOTH",
"239 583 LINE SMOOTH",
"239 596 OFFCURVE",
"246 603 OFFCURVE",
"259 603 CURVE SMOOTH",
"289 603 LINE SMOOTH",
"428 603 OFFCURVE",
"515 528 OFFCURVE",
"515 383 CURVE SMOOTH",
"515 228 OFFCURVE",
"436 160 OFFCURVE",
"289 160 CURVE SMOOTH",
"259 160 LINE SMOOTH"
);
}
);
width = 726;
},
{
anchors = (
{
name = bottom;
position = "{356, 0}";
},
{
name = center;
position = "{212, 382}";
},
{
name = top;
position = "{356, 763}";
}
);
layerId = "11907447-A26F-432E-A335-7727E0303767";
paths = (
{
closed = 1;
nodes = (
"288 0 LINE SMOOTH",
"542 0 OFFCURVE",
"681 138 OFFCURVE",
"681 379 CURVE SMOOTH",
"681 624 OFFCURVE",
"543 763 OFFCURVE",
"289 763 CURVE SMOOTH",
"89 763 LINE SMOOTH",
"83 763 OFFCURVE",
"79 759 OFFCURVE",
"79 753 CURVE SMOOTH",
"79 10 LINE SMOOTH",
"79 4 OFFCURVE",
"83 0 OFFCURVE",
"89 0 CURVE SMOOTH"
);
},
{
closed = 1;
nodes = (
"175 83 OFFCURVE",
"171 87 OFFCURVE",
"171 93 CURVE SMOOTH",
"171 670 LINE SMOOTH",
"171 676 OFFCURVE",
"175 680 OFFCURVE",
"181 680 CURVE SMOOTH",
"288 680 LINE SMOOTH",
"465 680 OFFCURVE",
"589 602 OFFCURVE",
"589 379 CURVE SMOOTH",
"589 138 OFFCURVE",
"447 83 OFFCURVE",
"287 83 CURVE SMOOTH",
"181 83 LINE SMOOTH"
);
}
);
width = 732;
},
{
anchors = (
{
name = bottom;
position = "{352, 0}";
},
{
name = center;
position = "{212, 382}";
},
{
name = top;
position = "{352, 763}";
}
);
layerId = "2F4EEC1B-9E89-4E08-AD53-AB625B6E887D";
paths = (
{
closed = 1;
nodes = (
"282 0 LINE SMOOTH",
"534 0 OFFCURVE",
"672 137 OFFCURVE",
"672 378 CURVE SMOOTH",
"672 624 OFFCURVE",
"535 763 OFFCURVE",
"283 763 CURVE SMOOTH",
"89 763 LINE SMOOTH",
"83 763 OFFCURVE",
"79 759 OFFCURVE",
"79 753 CURVE SMOOTH",
"79 10 LINE SMOOTH",
"79 4 OFFCURVE",
"83 0 OFFCURVE",
"89 0 CURVE SMOOTH"
);
},
{
closed = 1;
nodes = (
"152 62 OFFCURVE",
"148 66 OFFCURVE",
"148 72 CURVE SMOOTH",
"148 691 LINE SMOOTH",
"148 697 OFFCURVE",
"152 701 OFFCURVE",
"158 701 CURVE SMOOTH",
"283 701 LINE SMOOTH",
"478 701 OFFCURVE",
"604 607 OFFCURVE",
"604 378 CURVE SMOOTH",
"604 139 OFFCURVE",
"464 62 OFFCURVE",
"282 62 CURVE SMOOTH",
"158 62 LINE SMOOTH"
);
}
);
width = 723;
}
);
leftKerningGroup = B;
note = D;
rightKerningGroup = D;
unicode = 0044;
},
{
color = 1;
glyphname = E;
lastChange = "2020-04-15 13:26:28 +0000";
layers = (
{
anchors = (
{
name = bottom;
position = "{321, 0}";
},
{
name = ogonek;
position = "{561, 0}";
},
{
name = top;
position = "{321, 763}";
},
{
name = topleft;
position = "{-8, 763}";
}
);
guideLines = (
{
angle = 180;
position = "{394, 461}";
},
{
angle = 180;
position = "{394, 302}";
}
);
layerId = "FD6EB2BB-8839-4CDB-86BF-4EEAE3F02079";
paths = (
{
closed = 1;
nodes = (
"561 0 LINE SMOOTH",
"574 0 OFFCURVE",
"581 7 OFFCURVE",
"581 20 CURVE SMOOTH",
"581 140 LINE SMOOTH",
"581 153 OFFCURVE",
"574 160 OFFCURVE",
"561 160 CURVE SMOOTH",
"259 160 LINE SMOOTH",
"246 160 OFFCURVE",
"239 167 OFFCURVE",
"239 180 CURVE SMOOTH",
"239 282 LINE SMOOTH",
"239 295 OFFCURVE",
"246 302 OFFCURVE",
"259 302 CURVE SMOOTH",
"528 302 LINE SMOOTH",
"541 302 OFFCURVE",
"548 309 OFFCURVE",
"548 322 CURVE SMOOTH",
"548 441 LINE SMOOTH",
"548 454 OFFCURVE",
"541 461 OFFCURVE",
"528 461 CURVE SMOOTH",
"259 461 LINE SMOOTH",
"246 461 OFFCURVE",
"239 468 OFFCURVE",
"239 481 CURVE SMOOTH",
"239 583 LINE SMOOTH",
"239 596 OFFCURVE",
"246 603 OFFCURVE",
"259 603 CURVE SMOOTH",
"561 603 LINE SMOOTH",
"574 603 OFFCURVE",
"581 610 OFFCURVE",
"581 623 CURVE SMOOTH",
"581 743 LINE SMOOTH",
"581 756 OFFCURVE",
"574 763 OFFCURVE",
"561 763 CURVE SMOOTH",
"80 763 LINE SMOOTH",
"67 763 OFFCURVE",
"60 756 OFFCURVE",
"60 743 CURVE SMOOTH",
"60 20 LINE SMOOTH",
"60 7 OFFCURVE",
"67 0 OFFCURVE",
"80 0 CURVE SMOOTH"
);
}
);
width = 624;
},
{
anchors = (
{
name = bottom;
position = "{326, 0}";
},
{
name = ogonek;
position = "{562, 0}";
},
{
name = top;
position = "{326, 763}";
},
{
name = topleft;
position = "{-2, 763}";
}
);
layerId = "11907447-A26F-432E-A335-7727E0303767";
paths = (
{
closed = 1;
nodes = (
"562 0 LINE SMOOTH",
"568 0 OFFCURVE",
"572 4 OFFCURVE",
"572 10 CURVE SMOOTH",
"572 73 LINE SMOOTH",
"572 79 OFFCURVE",
"568 83 OFFCURVE",
"562 83 CURVE SMOOTH",
"181 83 LINE SMOOTH",
"175 83 OFFCURVE",
"171 87 OFFCURVE",
"171 93 CURVE SMOOTH",
"171 332 LINE SMOOTH",
"171 338 OFFCURVE",
"175 342 OFFCURVE",
"181 342 CURVE SMOOTH",
"515 342 LINE SMOOTH",
"521 342 OFFCURVE",
"525 346 OFFCURVE",
"525 352 CURVE SMOOTH",
"525 414 LINE SMOOTH",
"525 420 OFFCURVE",
"521 424 OFFCURVE",
"515 424 CURVE SMOOTH",
"181 424 LINE SMOOTH",
"175 424 OFFCURVE",
"171 428 OFFCURVE",
"171 434 CURVE SMOOTH",
"171 670 LINE SMOOTH",
"171 676 OFFCURVE",
"175 680 OFFCURVE",
"181 680 CURVE SMOOTH",
"562 680 LINE SMOOTH",
"568 680 OFFCURVE",
"572 684 OFFCURVE",
"572 690 CURVE SMOOTH",
"572 753 LINE SMOOTH",
"572 759 OFFCURVE",
"568 763 OFFCURVE",
"562 763 CURVE SMOOTH",
"89 763 LINE SMOOTH",
"83 763 OFFCURVE",
"79 759 OFFCURVE",
"79 753 CURVE SMOOTH",
"79 10 LINE SMOOTH",
"79 4 OFFCURVE",
"83 0 OFFCURVE",
"89 0 CURVE SMOOTH"
);
}
);
width = 616;
},
{
anchors = (
{
name = bottom;
position = "{322, 0}";
},
{
name = ogonek;
position = "{555, 0}";
},
{
name = top;
position = "{322, 763}";
},
{
name = topleft;
position = "{-6, 763}";
}
);
layerId = "2F4EEC1B-9E89-4E08-AD53-AB625B6E887D";
paths = (
{
closed = 1;
nodes = (
"555 0 LINE SMOOTH",
"561 0 OFFCURVE",
"565 4 OFFCURVE",
"565 10 CURVE SMOOTH",
"565 52 LINE SMOOTH",
"565 58 OFFCURVE",
"561 62 OFFCURVE",
"555 62 CURVE SMOOTH",
"158 62 LINE SMOOTH",
"152 62 OFFCURVE",
"148 66 OFFCURVE",
"148 72 CURVE SMOOTH",
"148 342 LINE SMOOTH",
"148 348 OFFCURVE",
"152 352 OFFCURVE",
"158 352 CURVE SMOOTH",
"504 352 LINE SMOOTH",
"510 352 OFFCURVE",
"514 356 OFFCURVE",
"514 362 CURVE SMOOTH",
"514 404 LINE SMOOTH",
"514 410 OFFCURVE",
"510 414 OFFCURVE",
"504 414 CURVE SMOOTH",
"158 414 LINE SMOOTH",
"152 414 OFFCURVE",
"148 418 OFFCURVE",
"148 424 CURVE SMOOTH",
"148 691 LINE SMOOTH",
"148 697 OFFCURVE",
"152 701 OFFCURVE",
"158 701 CURVE SMOOTH",
"555 701 LINE SMOOTH",
"561 701 OFFCURVE",
"565 705 OFFCURVE",
"565 711 CURVE SMOOTH",
"565 753 LINE SMOOTH",
"565 759 OFFCURVE",
"561 763 OFFCURVE",
"555 763 CURVE SMOOTH",
"89 763 LINE SMOOTH",
"83 763 OFFCURVE",
"79 759 OFFCURVE",
"79 753 CURVE SMOOTH",
"79 10 LINE SMOOTH",
"79 4 OFFCURVE",
"83 0 OFFCURVE",
"89 0 CURVE SMOOTH"
);
}
);
width = 609;
}
);
leftKerningGroup = B;
note = E;
rightKerningGroup = E;
unicode = 0045;
},
{
color = 1;
glyphname = F;
lastChange = "2020-04-15 11:37:59 +0000";
layers = (
{
background = {
paths = (
{
closed = 1;
nodes = (
"223 0 LINE SMOOTH",
"233 0 OFFCURVE",
"239 6 OFFCURVE",
"239 16 CURVE SMOOTH",
"239 286 LINE SMOOTH",
"239 296 OFFCURVE",
"245 302 OFFCURVE",
"255 302 CURVE SMOOTH",
"532 302 LINE SMOOTH",
"542 302 OFFCURVE",
"548 308 OFFCURVE",
"548 318 CURVE SMOOTH",
"548 445 LINE SMOOTH",
"548 455 OFFCURVE",
"542 461 OFFCURVE",
"532 461 CURVE SMOOTH",
"255 461 LINE SMOOTH",
"245 461 OFFCURVE",
"239 467 OFFCURVE",
"239 477 CURVE SMOOTH",
"239 587 LINE SMOOTH",
"239 597 OFFCURVE",
"245 603 OFFCURVE",
"255 603 CURVE SMOOTH",
"565 603 LINE SMOOTH",
"575 603 OFFCURVE",
"581 609 OFFCURVE",
"581 619 CURVE SMOOTH",
"581 747 LINE SMOOTH",
"581 757 OFFCURVE",
"575 763 OFFCURVE",
"565 763 CURVE SMOOTH",
"76 763 LINE SMOOTH",
"66 763 OFFCURVE",
"60 757 OFFCURVE",
"60 747 CURVE SMOOTH",
"60 16 LINE SMOOTH",
"60 6 OFFCURVE",
"66 0 OFFCURVE",
"76 0 CURVE SMOOTH"
);
}
);
};
layerId = "FD6EB2BB-8839-4CDB-86BF-4EEAE3F02079";
paths = (
{
closed = 1;
nodes = (
"219 0 LINE SMOOTH",
"232 0 OFFCURVE",
"239 7 OFFCURVE",
"239 20 CURVE SMOOTH",
"239 282 LINE SMOOTH",
"239 295 OFFCURVE",
"246 302 OFFCURVE",
"259 302 CURVE SMOOTH",
"528 302 LINE SMOOTH",
"541 302 OFFCURVE",
"548 309 OFFCURVE",
"548 322 CURVE SMOOTH",
"548 441 LINE SMOOTH",
"548 454 OFFCURVE",
"541 461 OFFCURVE",
"528 461 CURVE SMOOTH",
"259 461 LINE SMOOTH",
"246 461 OFFCURVE",
"239 468 OFFCURVE",
"239 481 CURVE SMOOTH",
"239 583 LINE SMOOTH",
"239 596 OFFCURVE",
"246 603 OFFCURVE",
"259 603 CURVE SMOOTH",
"561 603 LINE SMOOTH",
"574 603 OFFCURVE",
"581 610 OFFCURVE",
"581 623 CURVE SMOOTH",
"581 743 LINE SMOOTH",
"581 756 OFFCURVE",
"574 763 OFFCURVE",
"561 763 CURVE SMOOTH",
"80 763 LINE SMOOTH",
"67 763 OFFCURVE",
"60 756 OFFCURVE",
"60 743 CURVE SMOOTH",
"60 20 LINE SMOOTH",
"60 7 OFFCURVE",
"67 0 OFFCURVE",
"80 0 CURVE SMOOTH"
);
}
);
width = 606;
},
{
background = {
paths = (
{
closed = 1;
nodes = (
"155 0 LINE SMOOTH",
"165 0 OFFCURVE",
"171 6 OFFCURVE",
"171 16 CURVE SMOOTH",
"171 326 LINE SMOOTH",
"171 336 OFFCURVE",
"177 342 OFFCURVE",
"187 342 CURVE SMOOTH",
"509 342 LINE SMOOTH",
"519 342 OFFCURVE",
"525 348 OFFCURVE",
"525 358 CURVE SMOOTH",
"525 408 LINE SMOOTH",
"525 418 OFFCURVE",
"519 424 OFFCURVE",
"509 424 CURVE SMOOTH",
"187 424 LINE SMOOTH",
"177 424 OFFCURVE",
"171 430 OFFCURVE",
"171 440 CURVE SMOOTH",
"171 664 LINE SMOOTH",
"171 674 OFFCURVE",
"177 680 OFFCURVE",
"187 680 CURVE SMOOTH",
"556 680 LINE SMOOTH",
"566 680 OFFCURVE",
"572 686 OFFCURVE",
"572 696 CURVE SMOOTH",
"572 747 LINE SMOOTH",
"572 757 OFFCURVE",
"566 763 OFFCURVE",
"556 763 CURVE SMOOTH",
"95 763 LINE SMOOTH",
"85 763 OFFCURVE",
"79 757 OFFCURVE",
"79 747 CURVE SMOOTH",
"79 16 LINE SMOOTH",
"79 6 OFFCURVE",
"85 0 OFFCURVE",
"95 0 CURVE SMOOTH"
);
}
);
};
layerId = "11907447-A26F-432E-A335-7727E0303767";
paths = (
{
closed = 1;
nodes = (
"161 0 LINE SMOOTH",
"167 0 OFFCURVE",
"171 4 OFFCURVE",
"171 10 CURVE SMOOTH",
"171 332 LINE SMOOTH",
"171 338 OFFCURVE",
"175 342 OFFCURVE",
"181 342 CURVE SMOOTH",
"515 342 LINE SMOOTH",
"521 342 OFFCURVE",
"525 346 OFFCURVE",
"525 352 CURVE SMOOTH",
"525 414 LINE SMOOTH",
"525 420 OFFCURVE",
"521 424 OFFCURVE",
"515 424 CURVE SMOOTH",
"181 424 LINE SMOOTH",
"175 424 OFFCURVE",
"171 428 OFFCURVE",
"171 434 CURVE SMOOTH",
"171 670 LINE SMOOTH",
"171 676 OFFCURVE",
"175 680 OFFCURVE",
"181 680 CURVE SMOOTH",
"562 680 LINE SMOOTH",
"568 680 OFFCURVE",
"572 684 OFFCURVE",
"572 690 CURVE SMOOTH",
"572 753 LINE SMOOTH",
"572 759 OFFCURVE",
"568 763 OFFCURVE",
"562 763 CURVE SMOOTH",
"89 763 LINE SMOOTH",
"83 763 OFFCURVE",
"79 759 OFFCURVE",
"79 753 CURVE SMOOTH",
"79 10 LINE SMOOTH",
"79 4 OFFCURVE",
"83 0 OFFCURVE",
"89 0 CURVE SMOOTH"
);
}
);
width = 601;
},
{
anchors = (
{
name = bottom;
position = "{285, 0}";
},
{
name = top;
position = "{285, 763}";
}
);
background = {
anchors = (
{
name = bottom;
position = "{285, 0}";
},
{
name = top;
position = "{285, 763}";
}
);
paths = (
{
closed = 1;
nodes = (
"138 0 LINE SMOOTH",
"144 0 OFFCURVE",
"148 4 OFFCURVE",
"148 10 CURVE SMOOTH",
"148 343 LINE SMOOTH",
"148 349 OFFCURVE",
"152 353 OFFCURVE",
"158 353 CURVE SMOOTH",
"504 353 LINE SMOOTH",
"510 353 OFFCURVE",
"514 357 OFFCURVE",
"514 363 CURVE SMOOTH",
"514 404 LINE SMOOTH",
"514 410 OFFCURVE",
"510 414 OFFCURVE",
"504 414 CURVE SMOOTH",
"158 414 LINE SMOOTH",
"152 414 OFFCURVE",
"148 418 OFFCURVE",
"148 424 CURVE SMOOTH",
"148 691 LINE SMOOTH",
"148 697 OFFCURVE",
"152 701 OFFCURVE",
"158 701 CURVE SMOOTH",
"555 701 LINE SMOOTH",
"561 701 OFFCURVE",
"565 705 OFFCURVE",
"565 711 CURVE SMOOTH",
"565 753 LINE SMOOTH",
"565 759 OFFCURVE",
"561 763 OFFCURVE",
"555 763 CURVE SMOOTH",
"89 763 LINE SMOOTH",
"83 763 OFFCURVE",
"79 759 OFFCURVE",
"79 753 CURVE SMOOTH",
"79 10 LINE SMOOTH",
"79 4 OFFCURVE",
"83 0 OFFCURVE",
"89 0 CURVE SMOOTH"
);
}
);
};
layerId = "2F4EEC1B-9E89-4E08-AD53-AB625B6E887D";
paths = (
{
closed = 1;
nodes = (
"138 0 LINE SMOOTH",
"144 0 OFFCURVE",
"148 4 OFFCURVE",
"148 10 CURVE SMOOTH",
"148 343 LINE SMOOTH",
"148 349 OFFCURVE",
"152 353 OFFCURVE",
"158 353 CURVE SMOOTH",
"504 353 LINE SMOOTH",
"510 353 OFFCURVE",
"514 357 OFFCURVE",
"514 363 CURVE SMOOTH",
"514 404 LINE SMOOTH",
"514 410 OFFCURVE",
"510 414 OFFCURVE",
"504 414 CURVE SMOOTH",
"158 414 LINE SMOOTH",
"152 414 OFFCURVE",
"148 418 OFFCURVE",
"148 424 CURVE SMOOTH",
"148 691 LINE SMOOTH",
"148 697 OFFCURVE",
"152 701 OFFCURVE",
"158 701 CURVE SMOOTH",
"555 701 LINE SMOOTH",
"561 701 OFFCURVE",
"565 705 OFFCURVE",
"565 711 CURVE SMOOTH",
"565 753 LINE SMOOTH",
"565 759 OFFCURVE",
"561 763 OFFCURVE",
"555 763 CURVE SMOOTH",
"89 763 LINE SMOOTH",
"83 763 OFFCURVE",
"79 759 OFFCURVE",
"79 753 CURVE SMOOTH",
"79 10 LINE SMOOTH",
"79 4 OFFCURVE",
"83 0 OFFCURVE",
"89 0 CURVE SMOOTH"
);
}
);
width = 594;
}
);
leftKerningGroup = B;
note = F;
rightKerningGroup = F;
unicode = 0046;
},
{
color = 1;
glyphname = G;
lastChange = "2020-04-15 11:39:34 +0000";
layers = (
{
anchors = (
{
name = bottom;
position = "{414, 0}";
},
{
name = top;
position = "{414, 763}";
}
);
guideLines = (
{
position = "{526, 505}";
}
);
layerId = "FD6EB2BB-8839-4CDB-86BF-4EEAE3F02079";
paths = (
{
closed = 1;
nodes = (
"471 -17 OFFCURVE",
"536 -6 OFFCURVE",
"587 40 CURVE SMOOTH",
"603 54 OFFCURVE",
"615 54 OFFCURVE",
"615 36 CURVE SMOOTH",
"615 20 LINE SMOOTH",
"615 7 OFFCURVE",
"622 0 OFFCURVE",
"635 0 CURVE SMOOTH",
"758 0 LINE SMOOTH",
"771 0 OFFCURVE",
"778 7 OFFCURVE",
"778 20 CURVE SMOOTH",
"778 406 LINE SMOOTH",
"778 419 OFFCURVE",
"771 426 OFFCURVE",
"758 426 CURVE SMOOTH",
"460 426 LINE SMOOTH",
"447 426 OFFCURVE",
"440 419 OFFCURVE",
"440 406 CURVE SMOOTH",
"440 302 LINE SMOOTH",
"440 289 OFFCURVE",
"447 282 OFFCURVE",
"460 282 CURVE SMOOTH",
"578 282 LINE SMOOTH",
"591 282 OFFCURVE",
"599 274 OFFCURVE",
"597 261 CURVE SMOOTH",
"585 178 OFFCURVE",
"525 143 OFFCURVE",
"432 143 CURVE SMOOTH",
"292 143 OFFCURVE",
"220 237 OFFCURVE",
"220 382 CURVE SMOOTH",
"220 526 OFFCURVE",
"292 619 OFFCURVE",
"412 619 CURVE SMOOTH",
"499 619 OFFCURVE",
"552 587 OFFCURVE",
"574 522 CURVE SMOOTH",
"578 511 OFFCURVE",
"586 505 OFFCURVE",
"597 505 CURVE SMOOTH",
"753 505 LINE SMOOTH",
"766 505 OFFCURVE",
"774 513 OFFCURVE",
"771 527 CURVE SMOOTH",
"739 679 OFFCURVE",
"618 779 OFFCURVE",
"412 779 CURVE SMOOTH",
"151 779 OFFCURVE",
"31 595 OFFCURVE",
"31 382 CURVE SMOOTH",
"31 169 OFFCURVE",
"151 -17 OFFCURVE",
"412 -17 CURVE SMOOTH"
);
}
);
width = 827;
},
{
anchors = (
{
name = bottom;
position = "{404, 0}";
},
{
name = top;
position = "{404, 763}";
}
);
layerId = "11907447-A26F-432E-A335-7727E0303767";
paths = (
{
closed = 1;
nodes = (
"499 -10 OFFCURVE",
"592 23 OFFCURVE",
"648 93 CURVE SMOOTH",
"654 100 OFFCURVE",
"660 98 OFFCURVE",
"660 89 CURVE SMOOTH",
"660 10 LINE SMOOTH",
"660 4 OFFCURVE",
"664 0 OFFCURVE",
"670 0 CURVE SMOOTH",
"734 0 LINE SMOOTH",
"740 0 OFFCURVE",
"744 4 OFFCURVE",
"744 10 CURVE SMOOTH",
"744 389 LINE SMOOTH",
"744 395 OFFCURVE",
"740 399 OFFCURVE",
"734 399 CURVE SMOOTH",
"481 399 LINE SMOOTH",
"475 399 OFFCURVE",
"471 395 OFFCURVE",
"471 389 CURVE SMOOTH",
"471 327 LINE SMOOTH",
"471 321 OFFCURVE",
"475 317 OFFCURVE",
"481 317 CURVE SMOOTH",
"644 317 LINE SMOOTH",
"650 317 OFFCURVE",
"654 313 OFFCURVE",
"654 307 CURVE SMOOTH",
"650 161 OFFCURVE",
"555 72 OFFCURVE",
"409 72 CURVE SMOOTH",
"230 72 OFFCURVE",
"142 217 OFFCURVE",
"142 384 CURVE SMOOTH",
"142 541 OFFCURVE",
"221 691 OFFCURVE",
"407 691 CURVE SMOOTH",
"515 691 OFFCURVE",
"589 639 OFFCURVE",
"625 561 CURVE SMOOTH",
"627 555 OFFCURVE",
"631 553 OFFCURVE",
"636 553 CURVE SMOOTH",
"719 553 LINE SMOOTH",
"726 553 OFFCURVE",
"730 557 OFFCURVE",
"727 564 CURVE SMOOTH",
"682 688 OFFCURVE",
"574 773 OFFCURVE",
"409 773 CURVE SMOOTH",
"161 773 OFFCURVE",
"50 582 OFFCURVE",
"50 381 CURVE SMOOTH",
"50 181 OFFCURVE",
"160 -10 OFFCURVE",
"410 -10 CURVE SMOOTH"
);
}
);
width = 807;
},
{
anchors = (
{
name = bottom;
position = "{400, 0}";
},
{
name = top;
position = "{400, 763}";
}
);
layerId = "2F4EEC1B-9E89-4E08-AD53-AB625B6E887D";
paths = (
{
closed = 1;
nodes = (
"501 -10 OFFCURVE",
"602 27 OFFCURVE",
"646 117 CURVE SMOOTH",
"650 126 OFFCURVE",
"656 125 OFFCURVE",
"656 115 CURVE SMOOTH",
"656 10 LINE SMOOTH",
"656 4 OFFCURVE",
"660 0 OFFCURVE",
"666 0 CURVE SMOOTH",
"710 0 LINE SMOOTH",
"716 0 OFFCURVE",
"720 4 OFFCURVE",
"720 10 CURVE SMOOTH",
"720 382 LINE SMOOTH",
"720 388 OFFCURVE",
"716 392 OFFCURVE",
"710 392 CURVE SMOOTH",
"474 392 LINE SMOOTH",
"468 392 OFFCURVE",
"464 388 OFFCURVE",
"464 382 CURVE SMOOTH",
"464 340 LINE SMOOTH",
"464 334 OFFCURVE",
"468 330 OFFCURVE",
"474 330 CURVE SMOOTH",
"641 330 LINE SMOOTH",
"647 330 OFFCURVE",
"651 326 OFFCURVE",
"651 320 CURVE SMOOTH",
"647 161 OFFCURVE",
"554 52 OFFCURVE",
"400 52 CURVE SMOOTH",
"211 52 OFFCURVE",
"119 205 OFFCURVE",
"119 383 CURVE SMOOTH",
"119 554 OFFCURVE",
"204 711 OFFCURVE",
"399 711 CURVE SMOOTH",
"521 711 OFFCURVE",
"600 655 OFFCURVE",
"628 570 CURVE SMOOTH",
"630 565 OFFCURVE",
"635 562 OFFCURVE",
"640 562 CURVE SMOOTH",
"696 562 LINE SMOOTH",
"703 562 OFFCURVE",
"707 566 OFFCURVE",
"705 573 CURVE SMOOTH",
"668 689 OFFCURVE",
"565 773 OFFCURVE",
"400 773 CURVE SMOOTH",
"159 773 OFFCURVE",
"50 584 OFFCURVE",
"50 381 CURVE SMOOTH",
"50 179 OFFCURVE",
"159 -10 OFFCURVE",
"401 -10 CURVE SMOOTH"
);
}
);
width = 783;
}
);
leftKerningGroup = C;
note = G;
rightKerningGroup = G;
unicode = 0047;
},
{
color = 1;
glyphname = H;
lastChange = "2020-04-15 11:39:40 +0000";
layers = (
{
anchors = (
{
name = bottom;
position = "{384, 0}";
},
{
name = center;
position = "{384, 639}";
},
{
name = top;
position = "{384, 763}";
},
{
name = topleft;
position = "{20, 763}";
}
);
background = {
paths = (
{
closed = 1;
nodes = (
"239 0 LINE",
"239 301 LINE",
"529 301 LINE",
"529 0 LINE",
"709 0 LINE",
"709 763 LINE",
"529 763 LINE",
"529 461 LINE",
"239 461 LINE",
"239 763 LINE",
"60 763 LINE",
"60 0 LINE"
);
}
);
};
layerId = "FD6EB2BB-8839-4CDB-86BF-4EEAE3F02079";
paths = (
{
closed = 1;
nodes = (
"219 0 LINE SMOOTH",
"232 0 OFFCURVE",
"239 7 OFFCURVE",
"239 20 CURVE SMOOTH",
"239 281 LINE SMOOTH",
"239 294 OFFCURVE",
"246 301 OFFCURVE",
"259 301 CURVE SMOOTH",
"509 301 LINE SMOOTH",
"522 301 OFFCURVE",
"529 294 OFFCURVE",
"529 281 CURVE SMOOTH",
"529 20 LINE SMOOTH",
"529 7 OFFCURVE",
"536 0 OFFCURVE",
"549 0 CURVE SMOOTH",
"688 0 LINE SMOOTH",
"701 0 OFFCURVE",
"708 7 OFFCURVE",
"708 20 CURVE SMOOTH",
"708 743 LINE SMOOTH",
"708 756 OFFCURVE",
"701 763 OFFCURVE",
"688 763 CURVE SMOOTH",
"549 763 LINE SMOOTH",
"536 763 OFFCURVE",
"529 756 OFFCURVE",
"529 743 CURVE SMOOTH",
"529 481 LINE SMOOTH",
"529 468 OFFCURVE",
"522 461 OFFCURVE",
"509 461 CURVE SMOOTH",
"259 461 LINE SMOOTH",
"246 461 OFFCURVE",
"239 468 OFFCURVE",
"239 481 CURVE SMOOTH",
"239 743 LINE SMOOTH",
"239 756 OFFCURVE",
"232 763 OFFCURVE",
"219 763 CURVE SMOOTH",
"80 763 LINE SMOOTH",
"67 763 OFFCURVE",
"60 756 OFFCURVE",
"60 743 CURVE SMOOTH",
"60 20 LINE SMOOTH",
"60 7 OFFCURVE",
"67 0 OFFCURVE",
"80 0 CURVE SMOOTH"
);
}
);
width = 770;
},
{
anchors = (
{
name = bottom;
position = "{363, 0}";
},
{
name = center;
position = "{363, 616}";
},
{
name = top;
position = "{363, 763}";
},
{
name = topleft;
position = "{20, 763}";
}
);
background = {
paths = (
{
closed = 1;
nodes = (
"171 0 LINE",
"171 343 LINE",
"553 343 LINE",
"553 0 LINE",
"645 0 LINE",
"645 763 LINE",
"553 763 LINE",
"553 425 LINE",
"171 425 LINE",
"171 763 LINE",
"79 763 LINE",
"79 0 LINE"
);
}
);
};
layerId = "11907447-A26F-432E-A335-7727E0303767";
paths = (
{
closed = 1;
nodes = (
"161 0 LINE SMOOTH",
"167 0 OFFCURVE",
"171 4 OFFCURVE",
"171 10 CURVE SMOOTH",
"171 333 LINE SMOOTH",
"171 339 OFFCURVE",
"175 343 OFFCURVE",
"181 343 CURVE SMOOTH",
"543 343 LINE SMOOTH",
"549 343 OFFCURVE",
"553 339 OFFCURVE",
"553 333 CURVE SMOOTH",
"553 10 LINE SMOOTH",
"553 4 OFFCURVE",
"557 0 OFFCURVE",
"563 0 CURVE SMOOTH",
"635 0 LINE SMOOTH",
"641 0 OFFCURVE",
"645 4 OFFCURVE",
"645 10 CURVE SMOOTH",
"645 753 LINE SMOOTH",
"645 759 OFFCURVE",
"641 763 OFFCURVE",
"635 763 CURVE SMOOTH",
"563 763 LINE SMOOTH",
"557 763 OFFCURVE",
"553 759 OFFCURVE",
"553 753 CURVE SMOOTH",
"553 435 LINE SMOOTH",
"553 429 OFFCURVE",
"549 425 OFFCURVE",
"543 425 CURVE SMOOTH",
"181 425 LINE SMOOTH",
"175 425 OFFCURVE",
"171 429 OFFCURVE",
"171 435 CURVE SMOOTH",
"171 753 LINE SMOOTH",
"171 759 OFFCURVE",
"167 763 OFFCURVE",
"161 763 CURVE SMOOTH",
"89 763 LINE SMOOTH",
"83 763 OFFCURVE",
"79 759 OFFCURVE",
"79 753 CURVE SMOOTH",
"79 10 LINE SMOOTH",
"79 4 OFFCURVE",
"83 0 OFFCURVE",
"89 0 CURVE SMOOTH"
);
}
);
width = 725;
},
{
anchors = (
{
name = bottom;
position = "{351, 0}";
},
{
name = center;
position = "{351, 609}";
},
{
name = top;
position = "{351, 763}";
},
{
name = topleft;
position = "{-6, 763}";
}
);
background = {
anchors = (
{
name = bottom;
position = "{351, 0}";
},
{
name = center;
position = "{351, 382}";
},
{
name = top;
position = "{351, 763}";
},
{
name = topleft;
position = "{-6, 763}";
}
);
paths = (
{
closed = 1;
nodes = (
"148 0 LINE",
"148 354 LINE",
"554 354 LINE",
"554 0 LINE",
"623 0 LINE",
"623 763 LINE",
"554 763 LINE",
"554 416 LINE",
"148 416 LINE",
"148 763 LINE",
"79 763 LINE",
"79 0 LINE"
);
}
);
};
layerId = "2F4EEC1B-9E89-4E08-AD53-AB625B6E887D";
paths = (
{
closed = 1;
nodes = (
"138 0 LINE SMOOTH",
"144 0 OFFCURVE",
"148 4 OFFCURVE",
"148 10 CURVE SMOOTH",
"148 344 LINE SMOOTH",
"148 350 OFFCURVE",
"152 354 OFFCURVE",
"158 354 CURVE SMOOTH",
"544 354 LINE SMOOTH",
"550 354 OFFCURVE",
"554 350 OFFCURVE",
"554 344 CURVE SMOOTH",
"554 10 LINE SMOOTH",
"554 4 OFFCURVE",
"558 0 OFFCURVE",
"564 0 CURVE SMOOTH",
"613 0 LINE SMOOTH",
"619 0 OFFCURVE",
"623 4 OFFCURVE",
"623 10 CURVE SMOOTH",
"623 753 LINE SMOOTH",
"623 759 OFFCURVE",
"619 763 OFFCURVE",
"613 763 CURVE SMOOTH",
"564 763 LINE SMOOTH",
"558 763 OFFCURVE",
"554 759 OFFCURVE",
"554 753 CURVE SMOOTH",
"554 426 LINE SMOOTH",
"554 420 OFFCURVE",
"550 416 OFFCURVE",
"544 416 CURVE SMOOTH",
"158 416 LINE SMOOTH",
"152 416 OFFCURVE",
"148 420 OFFCURVE",
"148 426 CURVE SMOOTH",
"148 753 LINE SMOOTH",
"148 759 OFFCURVE",
"144 763 OFFCURVE",
"138 763 CURVE SMOOTH",
"89 763 LINE SMOOTH",
"83 763 OFFCURVE",
"79 759 OFFCURVE",
"79 753 CURVE SMOOTH",
"79 10 LINE SMOOTH",
"79 4 OFFCURVE",
"83 0 OFFCURVE",
"89 0 CURVE SMOOTH"
);
}
);
width = 703;
}
);
leftKerningGroup = B;
note = H;
rightKerningGroup = H;
unicode = 0048;
},
{
color = 1;
glyphname = I;
lastChange = "2020-04-15 13:26:36 +0000";
layers = (
{
anchors = (
{
name = bottom;
position = "{150, 0}";
},
{
name = ogonek;
position = "{219, 0}";
},
{
name = top;
position = "{150, 763}";
},
{
name = topleft;
position = "{-8, 763}";
}
);
background = {
anchors = (
{
name = bottom;
position = "{150, 0}";
},
{
name = ogonek;
position = "{223, 0}";
},
{
name = top;
position = "{150, 763}";
},
{
name = topleft;
position = "{-8, 763}";
}
);
paths = (
{
closed = 1;
nodes = (
"223 0 LINE SMOOTH",
"233 0 OFFCURVE",
"239 6 OFFCURVE",
"239 16 CURVE SMOOTH",
"239 747 LINE SMOOTH",
"239 757 OFFCURVE",
"233 763 OFFCURVE",
"223 763 CURVE SMOOTH",
"76 763 LINE SMOOTH",
"66 763 OFFCURVE",
"60 757 OFFCURVE",
"60 747 CURVE SMOOTH",
"60 16 LINE SMOOTH",
"60 6 OFFCURVE",
"66 0 OFFCURVE",
"76 0 CURVE SMOOTH"
);
}
);
};
layerId = "FD6EB2BB-8839-4CDB-86BF-4EEAE3F02079";
paths = (
{
closed = 1;
nodes = (
"219 0 LINE SMOOTH",
"232 0 OFFCURVE",
"239 7 OFFCURVE",
"239 20 CURVE SMOOTH",
"239 743 LINE SMOOTH",
"239 756 OFFCURVE",
"232 763 OFFCURVE",
"219 763 CURVE SMOOTH",
"80 763 LINE SMOOTH",
"67 763 OFFCURVE",
"60 756 OFFCURVE",
"60 743 CURVE SMOOTH",
"60 20 LINE SMOOTH",
"60 7 OFFCURVE",
"67 0 OFFCURVE",
"80 0 CURVE SMOOTH"
);
}
);
width = 300;
},
{
anchors = (
{
name = bottom;
position = "{125, 0}";
},
{
name = ogonek;
position = "{161, 0}";
},
{
name = top;
position = "{125, 763}";
},
{
name = topleft;
position = "{-2, 763}";
}
);
background = {
anchors = (
{
name = bottom;
position = "{125, 0}";
},
{
name = ogonek;
position = "{155, 0}";
},
{
name = top;
position = "{125, 763}";
},
{
name = topleft;
position = "{-2, 763}";
}
);
paths = (
{
closed = 1;
nodes = (
"155 0 LINE SMOOTH",
"165 0 OFFCURVE",
"171 6 OFFCURVE",
"171 16 CURVE SMOOTH",
"171 747 LINE SMOOTH",
"171 757 OFFCURVE",
"165 763 OFFCURVE",
"155 763 CURVE SMOOTH",
"95 763 LINE SMOOTH",
"85 763 OFFCURVE",
"79 757 OFFCURVE",
"79 747 CURVE SMOOTH",
"79 16 LINE SMOOTH",
"79 6 OFFCURVE",
"85 0 OFFCURVE",
"95 0 CURVE SMOOTH"
);
}
);
};
layerId = "11907447-A26F-432E-A335-7727E0303767";
paths = (
{
closed = 1;
nodes = (
"161 0 LINE SMOOTH",
"167 0 OFFCURVE",
"171 4 OFFCURVE",
"171 10 CURVE SMOOTH",
"171 753 LINE SMOOTH",
"171 759 OFFCURVE",
"167 763 OFFCURVE",
"161 763 CURVE SMOOTH",
"89 763 LINE SMOOTH",
"83 763 OFFCURVE",
"79 759 OFFCURVE",
"79 753 CURVE SMOOTH",
"79 10 LINE SMOOTH",
"79 4 OFFCURVE",
"83 0 OFFCURVE",
"89 0 CURVE SMOOTH"
);
}
);
width = 251;
},
{
anchors = (
{
name = bottom;
position = "{114, 0}";
},
{
name = ogonek;
position = "{138, 0}";
},
{
name = top;
position = "{114, 763}";
},
{
name = topleft;
position = "{-6, 763}";
}
);
background = {
anchors = (
{
name = bottom;
position = "{114, 0}";
},
{
name = ogonek;
position = "{138, 0}";
},
{
name = top;
position = "{114, 763}";
},
{
name = topleft;
position = "{-6, 763}";
}
);
paths = (
{
closed = 1;
nodes = (
"138 0 LINE SMOOTH",
"144 0 OFFCURVE",
"148 4 OFFCURVE",
"148 10 CURVE SMOOTH",
"148 753 LINE SMOOTH",
"148 759 OFFCURVE",
"144 763 OFFCURVE",
"138 763 CURVE SMOOTH",
"89 763 LINE SMOOTH",
"83 763 OFFCURVE",
"79 759 OFFCURVE",
"79 753 CURVE SMOOTH",
"79 10 LINE SMOOTH",
"79 4 OFFCURVE",
"83 0 OFFCURVE",
"89 0 CURVE SMOOTH"
);
}
);
};
layerId = "2F4EEC1B-9E89-4E08-AD53-AB625B6E887D";
paths = (
{
closed = 1;
nodes = (
"138 0 LINE SMOOTH",
"144 0 OFFCURVE",
"148 4 OFFCURVE",
"148 10 CURVE SMOOTH",
"148 753 LINE SMOOTH",
"148 759 OFFCURVE",
"144 763 OFFCURVE",
"138 763 CURVE SMOOTH",
"89 763 LINE SMOOTH",
"83 763 OFFCURVE",
"79 759 OFFCURVE",
"79 753 CURVE SMOOTH",
"79 10 LINE SMOOTH",
"79 4 OFFCURVE",
"83 0 OFFCURVE",
"89 0 CURVE SMOOTH"
);
}
);
width = 228;
}
);
leftKerningGroup = I;
note = I;
rightKerningGroup = I;
unicode = 0049;
},
{
color = 1;
glyphname = J;
lastChange = "2020-04-15 11:39:50 +0000";
layers = (
{
background = {
paths = (
{
closed = 1;
nodes = (
"106 0 LINE SMOOTH",
"276 0 OFFCURVE",
"346 46 OFFCURVE",
"346 218 CURVE SMOOTH",
"346 747 LINE SMOOTH",
"346 757 OFFCURVE",
"340 763 OFFCURVE",
"330 763 CURVE SMOOTH",
"182 763 LINE SMOOTH",
"172 763 OFFCURVE",
"166 757 OFFCURVE",
"166 747 CURVE SMOOTH",
"166 220 LINE SMOOTH",
"166 176 OFFCURVE",
"143 160 OFFCURVE",
"106 160 CURVE SMOOTH",
"24 160 LINE SMOOTH",
"14 160 OFFCURVE",
"8 154 OFFCURVE",
"8 144 CURVE SMOOTH",
"8 16 LINE SMOOTH",
"8 6 OFFCURVE",
"14 0 OFFCURVE",
"24 0 CURVE SMOOTH"
);
}
);
};
layerId = "FD6EB2BB-8839-4CDB-86BF-4EEAE3F02079";
paths = (
{
closed = 1;
nodes = (
"106 0 LINE SMOOTH",
"276 0 OFFCURVE",
"346 46 OFFCURVE",
"346 218 CURVE SMOOTH",
"346 743 LINE SMOOTH",
"346 756 OFFCURVE",
"339 763 OFFCURVE",
"326 763 CURVE SMOOTH",
"186 763 LINE SMOOTH",
"173 763 OFFCURVE",
"166 756 OFFCURVE",
"166 743 CURVE SMOOTH",
"166 220 LINE SMOOTH",
"166 176 OFFCURVE",
"143 160 OFFCURVE",
"106 160 CURVE SMOOTH",
"28 160 LINE SMOOTH",
"15 160 OFFCURVE",
"8 153 OFFCURVE",
"8 140 CURVE SMOOTH",
"8 20 LINE SMOOTH",
"8 7 OFFCURVE",
"15 0 OFFCURVE",
"28 0 CURVE SMOOTH"
);
}
);
width = 402;
},
{
background = {
paths = (
{
closed = 1;
nodes = (
"112 0 LINE SMOOTH",
"268 0 OFFCURVE",
"307 68 OFFCURVE",
"307 184 CURVE SMOOTH",
"307 747 LINE SMOOTH",
"307 757 OFFCURVE",
"301 763 OFFCURVE",
"291 763 CURVE SMOOTH",
"231 763 LINE SMOOTH",
"221 763 OFFCURVE",
"215 757 OFFCURVE",
"215 747 CURVE SMOOTH",
"215 185 LINE SMOOTH",
"215 113 OFFCURVE",
"180 83 OFFCURVE",
"112 83 CURVE SMOOTH",
"32 83 LINE SMOOTH",
"22 83 OFFCURVE",
"16 77 OFFCURVE",
"16 67 CURVE SMOOTH",
"16 16 LINE SMOOTH",
"16 6 OFFCURVE",
"22 0 OFFCURVE",
"32 0 CURVE SMOOTH"
);
}
);
};
layerId = "11907447-A26F-432E-A335-7727E0303767";
paths = (
{
closed = 1;
nodes = (
"112 0 LINE SMOOTH",
"268 0 OFFCURVE",
"307 68 OFFCURVE",
"307 184 CURVE SMOOTH",
"307 753 LINE SMOOTH",
"307 759 OFFCURVE",
"303 763 OFFCURVE",
"297 763 CURVE SMOOTH",
"225 763 LINE SMOOTH",
"219 763 OFFCURVE",
"215 759 OFFCURVE",
"215 753 CURVE SMOOTH",
"215 185 LINE SMOOTH",
"215 113 OFFCURVE",
"180 83 OFFCURVE",
"112 83 CURVE SMOOTH",
"26 83 LINE SMOOTH",
"20 83 OFFCURVE",
"16 79 OFFCURVE",
"16 73 CURVE SMOOTH",
"16 10 LINE SMOOTH",
"16 4 OFFCURVE",
"20 0 OFFCURVE",
"26 0 CURVE SMOOTH"
);
}
);
width = 383;
},
{
anchors = (
{
name = bottom;
position = "{193, 0}";
},
{
name = top;
position = "{193, 763}";
}
);
background = {
anchors = (
{
name = bottom;
position = "{193, 0}";
},
{
name = top;
position = "{193, 763}";
}
);
paths = (
{
closed = 1;
nodes = (
"112 0 LINE SMOOTH",
"257 0 OFFCURVE",
"295 67 OFFCURVE",
"295 175 CURVE SMOOTH",
"295 753 LINE SMOOTH",
"295 759 OFFCURVE",
"291 763 OFFCURVE",
"285 763 CURVE SMOOTH",
"236 763 LINE SMOOTH",
"230 763 OFFCURVE",
"226 759 OFFCURVE",
"226 753 CURVE SMOOTH",
"226 176 LINE SMOOTH",
"226 100 OFFCURVE",
"192 62 OFFCURVE",
"112 62 CURVE SMOOTH",
"26 62 LINE SMOOTH",
"20 62 OFFCURVE",
"16 58 OFFCURVE",
"16 52 CURVE SMOOTH",
"16 10 LINE SMOOTH",
"16 4 OFFCURVE",
"20 0 OFFCURVE",
"26 0 CURVE SMOOTH"
);
}
);
};
layerId = "2F4EEC1B-9E89-4E08-AD53-AB625B6E887D";
paths = (
{
closed = 1;
nodes = (
"112 0 LINE SMOOTH",
"257 0 OFFCURVE",
"295 67 OFFCURVE",
"295 175 CURVE SMOOTH",
"295 753 LINE SMOOTH",
"295 759 OFFCURVE",
"291 763 OFFCURVE",
"285 763 CURVE SMOOTH",
"236 763 LINE SMOOTH",
"230 763 OFFCURVE",
"226 759 OFFCURVE",
"226 753 CURVE SMOOTH",
"226 176 LINE SMOOTH",
"226 100 OFFCURVE",
"192 62 OFFCURVE",
"112 62 CURVE SMOOTH",
"26 62 LINE SMOOTH",
"20 62 OFFCURVE",
"16 58 OFFCURVE",
"16 52 CURVE SMOOTH",
"16 10 LINE SMOOTH",
"16 4 OFFCURVE",
"20 0 OFFCURVE",
"26 0 CURVE SMOOTH"
);
}
);
width = 371;
}
);
leftKerningGroup = J;
note = J;
rightKerningGroup = J;
unicode = 004A;
},
{
color = 1;
glyphname = K;
lastChange = "2020-04-15 11:39:54 +0000";
layers = (
{
anchors = (
{
name = bottom;
position = "{348, 0}";
},
{
name = top;
position = "{348, 763}";
}
);
layerId = "FD6EB2BB-8839-4CDB-86BF-4EEAE3F02079";
paths = (
{
closed = 1;
nodes = (
"219 0 LINE SMOOTH",
"232 0 OFFCURVE",
"239 7 OFFCURVE",
"239 20 CURVE SMOOTH",
"239 299 LINE SMOOTH",
"239 318 OFFCURVE",
"252 323 OFFCURVE",
"263 307 CURVE SMOOTH",
"469 13 LINE SMOOTH",
"475 5 OFFCURVE",
"483 0 OFFCURVE",
"493 0 CURVE SMOOTH",
"665 0 LINE SMOOTH",
"681 0 OFFCURVE",
"687 11 OFFCURVE",
"677 24 CURVE SMOOTH",
"421 379 LINE SMOOTH",
"414 388 OFFCURVE",
"415 397 OFFCURVE",
"422 407 CURVE SMOOTH",
"673 739 LINE SMOOTH",
"683 753 OFFCURVE",
"676 763 OFFCURVE",
"660 763 CURVE SMOOTH",
"491 763 LINE SMOOTH",
"481 763 OFFCURVE",
"473 759 OFFCURVE",
"467 751 CURVE SMOOTH",
"263 466 LINE SMOOTH",
"252 451 OFFCURVE",
"239 455 OFFCURVE",
"239 474 CURVE SMOOTH",
"239 743 LINE SMOOTH",
"239 756 OFFCURVE",
"232 763 OFFCURVE",
"219 763 CURVE SMOOTH",
"80 763 LINE SMOOTH",
"67 763 OFFCURVE",
"60 756 OFFCURVE",
"60 743 CURVE SMOOTH",
"60 20 LINE SMOOTH",
"60 7 OFFCURVE",
"67 0 OFFCURVE",
"80 0 CURVE SMOOTH"
);
}
);
width = 695;
},
{
anchors = (
{
name = bottom;
position = "{316, 0}";
},
{
name = top;
position = "{316, 763}";
}
);
layerId = "11907447-A26F-432E-A335-7727E0303767";
paths = (
{
closed = 1;
nodes = (
"161 0 LINE SMOOTH",
"167 0 OFFCURVE",
"171 4 OFFCURVE",
"171 10 CURVE SMOOTH",
"171 353 LINE SMOOTH",
"171 362 OFFCURVE",
"177 364 OFFCURVE",
"183 357 CURVE SMOOTH",
"497 6 LINE SMOOTH",
"500 2 OFFCURVE",
"504 0 OFFCURVE",
"509 0 CURVE SMOOTH",
"607 0 LINE SMOOTH",
"615 0 OFFCURVE",
"619 6 OFFCURVE",
"613 12 CURVE SMOOTH",
"273 390 LINE SMOOTH",
"269 394 OFFCURVE",
"269 399 OFFCURVE",
"273 404 CURVE SMOOTH",
"595 751 LINE SMOOTH",
"601 758 OFFCURVE",
"597 763 OFFCURVE",
"589 763 CURVE SMOOTH",
"495 763 LINE SMOOTH",
"490 763 OFFCURVE",
"486 762 OFFCURVE",
"483 758 CURVE SMOOTH",
"183 427 LINE SMOOTH",
"177 420 OFFCURVE",
"171 422 OFFCURVE",
"171 431 CURVE SMOOTH",
"171 753 LINE SMOOTH",
"171 759 OFFCURVE",
"167 763 OFFCURVE",
"161 763 CURVE SMOOTH",
"89 763 LINE SMOOTH",
"83 763 OFFCURVE",
"79 759 OFFCURVE",
"79 753 CURVE SMOOTH",
"79 10 LINE SMOOTH",
"79 4 OFFCURVE",
"83 0 OFFCURVE",
"89 0 CURVE SMOOTH"
);
}
);
width = 632;
},
{
anchors = (
{
name = bottom;
position = "{299, 0}";
},
{
name = top;
position = "{299, 763}";
}
);
layerId = "2F4EEC1B-9E89-4E08-AD53-AB625B6E887D";
paths = (
{
closed = 1;
nodes = (
"138 0 LINE SMOOTH",
"144 0 OFFCURVE",
"148 4 OFFCURVE",
"148 10 CURVE SMOOTH",
"148 362 LINE SMOOTH",
"148 371 OFFCURVE",
"154 373 OFFCURVE",
"160 367 CURVE SMOOTH",
"498 5 LINE SMOOTH",
"501 2 OFFCURVE",
"505 0 OFFCURVE",
"510 0 CURVE SMOOTH",
"582 0 LINE SMOOTH",
"590 0 OFFCURVE",
"593 5 OFFCURVE",
"587 12 CURVE SMOOTH",
"232 390 LINE SMOOTH",
"228 395 OFFCURVE",
"228 399 OFFCURVE",
"232 404 CURVE SMOOTH",
"565 751 LINE SMOOTH",
"571 758 OFFCURVE",
"568 763 OFFCURVE",
"560 763 CURVE SMOOTH",
"497 763 LINE SMOOTH",
"492 763 OFFCURVE",
"488 761 OFFCURVE",
"485 758 CURVE SMOOTH",
"160 423 LINE SMOOTH",
"154 417 OFFCURVE",
"148 419 OFFCURVE",
"148 428 CURVE SMOOTH",
"148 753 LINE SMOOTH",
"148 759 OFFCURVE",
"144 763 OFFCURVE",
"138 763 CURVE SMOOTH",
"89 763 LINE SMOOTH",
"83 763 OFFCURVE",
"79 759 OFFCURVE",
"79 753 CURVE SMOOTH",
"79 10 LINE SMOOTH",
"79 4 OFFCURVE",
"83 0 OFFCURVE",
"89 0 CURVE SMOOTH"
);
}
);
width = 612;
}
);
leftKerningGroup = B;
note = K;
rightKerningGroup = K;
unicode = 004B;
},
{
color = 1;
glyphname = L;
lastChange = "2020-04-15 11:39:59 +0000";
layers = (
{
anchors = (
{
name = bottom;
position = "{305, 0}";
},
{
name = center;
position = "{262, 382}";
},
{
name = top;
position = "{150, 763}";
},
{
name = topright;
position = "{313, 567}";
}
);
background = {
anchors = (
{
name = bottom;
position = "{305, 0}";
},
{
name = center;
position = "{262, 382}";
},
{
name = top;
position = "{150, 763}";
},
{
name = topright;
position = "{313, 567}";
}
);
paths = (
{
closed = 1;
nodes = (
"534 0 LINE SMOOTH",
"544 0 OFFCURVE",
"550 6 OFFCURVE",
"550 16 CURVE SMOOTH",
"550 144 LINE SMOOTH",
"550 154 OFFCURVE",
"544 160 OFFCURVE",
"534 160 CURVE SMOOTH",
"255 160 LINE SMOOTH",
"245 160 OFFCURVE",
"239 166 OFFCURVE",
"239 176 CURVE SMOOTH",
"239 747 LINE SMOOTH",
"239 757 OFFCURVE",
"233 763 OFFCURVE",
"223 763 CURVE SMOOTH",
"76 763 LINE SMOOTH",
"66 763 OFFCURVE",
"60 757 OFFCURVE",
"60 747 CURVE SMOOTH",
"60 16 LINE SMOOTH",
"60 6 OFFCURVE",
"66 0 OFFCURVE",
"76 0 CURVE SMOOTH"
);
}
);
};
layerId = "FD6EB2BB-8839-4CDB-86BF-4EEAE3F02079";
paths = (
{
closed = 1;
nodes = (
"530 0 LINE SMOOTH",
"543 0 OFFCURVE",
"550 7 OFFCURVE",
"550 20 CURVE SMOOTH",
"550 140 LINE SMOOTH",
"550 153 OFFCURVE",
"543 160 OFFCURVE",
"530 160 CURVE SMOOTH",
"259 160 LINE SMOOTH",
"246 160 OFFCURVE",
"239 167 OFFCURVE",
"239 180 CURVE SMOOTH",
"239 743 LINE SMOOTH",
"239 756 OFFCURVE",
"232 763 OFFCURVE",
"219 763 CURVE SMOOTH",
"80 763 LINE SMOOTH",
"67 763 OFFCURVE",
"60 756 OFFCURVE",
"60 743 CURVE SMOOTH",
"60 20 LINE SMOOTH",
"60 7 OFFCURVE",
"67 0 OFFCURVE",
"80 0 CURVE SMOOTH"
);
}
);
width = 558;
},
{
anchors = (
{
name = bottom;
position = "{296, 0}";
},
{
name = center;
position = "{256, 382}";
},
{
name = top;
position = "{125, 763}";
},
{
name = topright;
position = "{346, 553}";
}
);
background = {
anchors = (
{
name = bottom;
position = "{296, 0}";
},
{
name = center;
position = "{256, 382}";
},
{
name = top;
position = "{125, 763}";
},
{
name = topright;
position = "{346, 553}";
}
);
paths = (
{
closed = 1;
nodes = (
"497 0 LINE SMOOTH",
"507 0 OFFCURVE",
"513 6 OFFCURVE",
"513 16 CURVE SMOOTH",
"513 67 LINE SMOOTH",
"513 77 OFFCURVE",
"507 83 OFFCURVE",
"497 83 CURVE SMOOTH",
"187 83 LINE SMOOTH",
"177 83 OFFCURVE",
"171 89 OFFCURVE",
"171 99 CURVE SMOOTH",
"171 747 LINE SMOOTH",
"171 757 OFFCURVE",
"165 763 OFFCURVE",
"155 763 CURVE SMOOTH",
"95 763 LINE SMOOTH",
"85 763 OFFCURVE",
"79 757 OFFCURVE",
"79 747 CURVE SMOOTH",
"79 16 LINE SMOOTH",
"79 6 OFFCURVE",
"85 0 OFFCURVE",
"95 0 CURVE SMOOTH"
);
}
);
};
layerId = "11907447-A26F-432E-A335-7727E0303767";
paths = (
{
closed = 1;
nodes = (
"503 0 LINE SMOOTH",
"509 0 OFFCURVE",
"513 4 OFFCURVE",
"513 10 CURVE SMOOTH",
"513 73 LINE SMOOTH",
"513 79 OFFCURVE",
"509 83 OFFCURVE",
"503 83 CURVE SMOOTH",
"181 83 LINE SMOOTH",
"175 83 OFFCURVE",
"171 87 OFFCURVE",
"171 93 CURVE SMOOTH",
"171 753 LINE SMOOTH",
"171 759 OFFCURVE",
"167 763 OFFCURVE",
"161 763 CURVE SMOOTH",
"89 763 LINE SMOOTH",
"83 763 OFFCURVE",
"79 759 OFFCURVE",
"79 753 CURVE SMOOTH",
"79 10 LINE SMOOTH",
"79 4 OFFCURVE",
"83 0 OFFCURVE",
"89 0 CURVE SMOOTH"
);
}
);
width = 528;
},
{
anchors = (
{
name = bottom;
position = "{289, 0}";
},
{
name = center;
position = "{248, 382}";
},
{
name = top;
position = "{114, 763}";
},
{
name = topright;
position = "{331, 549}";
}
);
background = {
anchors = (
{
name = bottom;
position = "{289, 0}";
},
{
name = center;
position = "{248, 382}";
},
{
name = top;
position = "{114, 763}";
},
{
name = topright;
position = "{331, 549}";
}
);
paths = (
{
closed = 1;
nodes = (
"488 0 LINE SMOOTH",
"494 0 OFFCURVE",
"498 4 OFFCURVE",
"498 10 CURVE SMOOTH",
"498 52 LINE SMOOTH",
"498 58 OFFCURVE",
"494 62 OFFCURVE",
"488 62 CURVE SMOOTH",
"158 62 LINE SMOOTH",
"152 62 OFFCURVE",
"148 66 OFFCURVE",
"148 72 CURVE SMOOTH",
"148 753 LINE SMOOTH",
"148 759 OFFCURVE",
"144 763 OFFCURVE",
"138 763 CURVE SMOOTH",
"89 763 LINE SMOOTH",
"83 763 OFFCURVE",
"79 759 OFFCURVE",
"79 753 CURVE SMOOTH",
"79 10 LINE SMOOTH",
"79 4 OFFCURVE",
"83 0 OFFCURVE",
"89 0 CURVE SMOOTH"
);
}
);
};
layerId = "2F4EEC1B-9E89-4E08-AD53-AB625B6E887D";
paths = (
{
closed = 1;
nodes = (
"488 0 LINE SMOOTH",
"494 0 OFFCURVE",
"498 4 OFFCURVE",
"498 10 CURVE SMOOTH",
"498 52 LINE SMOOTH",
"498 58 OFFCURVE",
"494 62 OFFCURVE",
"488 62 CURVE SMOOTH",
"158 62 LINE SMOOTH",
"152 62 OFFCURVE",
"148 66 OFFCURVE",
"148 72 CURVE SMOOTH",
"148 753 LINE SMOOTH",
"148 759 OFFCURVE",
"144 763 OFFCURVE",
"138 763 CURVE SMOOTH",
"89 763 LINE SMOOTH",
"83 763 OFFCURVE",
"79 759 OFFCURVE",
"79 753 CURVE SMOOTH",
"79 10 LINE SMOOTH",
"79 4 OFFCURVE",
"83 0 OFFCURVE",
"89 0 CURVE SMOOTH"
);
}
);
width = 513;
}
);
leftKerningGroup = B;
note = L;
rightKerningGroup = L;
unicode = 004C;
},
{
color = 1;
glyphname = Lslash;
lastChange = "2020-04-15 11:40:04 +0000";
layers = (
{
anchors = (
{
name = bottom;
position = "{323, 0}";
},
{
name = center;
position = "{282, 382}";
},
{
name = top;
position = "{282, 763}";
},
{
name = topright;
position = "{536, 763}";
}
);
background = {
anchors = (
{
name = bottom;
position = "{323, 0}";
},
{
name = center;
position = "{282, 382}";
},
{
name = top;
position = "{282, 763}";
},
{
name = topright;
position = "{536, 763}";
}
);
paths = (
{
closed = 1;
nodes = (
"522 0 LINE SMOOTH",
"528 0 OFFCURVE",
"532 4 OFFCURVE",
"532 10 CURVE SMOOTH",
"532 52 LINE SMOOTH",
"532 58 OFFCURVE",
"528 62 OFFCURVE",
"522 62 CURVE SMOOTH",
"192 62 LINE SMOOTH",
"186 62 OFFCURVE",
"182 66 OFFCURVE",
"182 72 CURVE SMOOTH",
"182 380 LINE SMOOTH",
"182 385 OFFCURVE",
"184 390 OFFCURVE",
"189 392 CURVE SMOOTH",
"392 497 LINE SMOOTH",
"397 499 OFFCURVE",
"399 504 OFFCURVE",
"399 509 CURVE SMOOTH",
"399 550 LINE SMOOTH",
"399 557 OFFCURVE",
"394 561 OFFCURVE",
"387 557 CURVE SMOOTH",
"194 457 LINE SMOOTH",
"187 453 OFFCURVE",
"182 457 OFFCURVE",
"182 464 CURVE SMOOTH",
"182 753 LINE SMOOTH",
"182 759 OFFCURVE",
"178 763 OFFCURVE",
"172 763 CURVE SMOOTH",
"123 763 LINE SMOOTH",
"117 763 OFFCURVE",
"113 759 OFFCURVE",
"113 753 CURVE SMOOTH",
"113 424 LINE SMOOTH",
"113 419 OFFCURVE",
"111 414 OFFCURVE",
"106 412 CURVE SMOOTH",
"47 382 LINE SMOOTH",
"42 380 OFFCURVE",
"40 375 OFFCURVE",
"40 370 CURVE SMOOTH",
"40 328 LINE SMOOTH",
"40 321 OFFCURVE",
"45 317 OFFCURVE",
"52 321 CURVE SMOOTH",
"101 347 LINE SMOOTH",
"108 351 OFFCURVE",
"113 347 OFFCURVE",
"113 340 CURVE SMOOTH",
"113 10 LINE SMOOTH",
"113 4 OFFCURVE",
"117 0 OFFCURVE",
"123 0 CURVE SMOOTH"
);
}
);
};
layerId = "2F4EEC1B-9E89-4E08-AD53-AB625B6E887D";
paths = (
{
closed = 1;
nodes = (
"522 0 LINE SMOOTH",
"528 0 OFFCURVE",
"532 4 OFFCURVE",
"532 10 CURVE SMOOTH",
"532 52 LINE SMOOTH",
"532 58 OFFCURVE",
"528 62 OFFCURVE",
"522 62 CURVE SMOOTH",
"192 62 LINE SMOOTH",
"186 62 OFFCURVE",
"182 66 OFFCURVE",
"182 72 CURVE SMOOTH",
"182 380 LINE SMOOTH",
"182 385 OFFCURVE",
"184 390 OFFCURVE",
"189 392 CURVE SMOOTH",
"392 497 LINE SMOOTH",
"397 499 OFFCURVE",
"399 504 OFFCURVE",
"399 509 CURVE SMOOTH",
"399 550 LINE SMOOTH",
"399 557 OFFCURVE",
"394 560 OFFCURVE",
"387 557 CURVE SMOOTH",
"194 457 LINE SMOOTH",
"187 454 OFFCURVE",
"182 457 OFFCURVE",
"182 464 CURVE SMOOTH",
"182 753 LINE SMOOTH",
"182 759 OFFCURVE",
"178 763 OFFCURVE",
"172 763 CURVE SMOOTH",
"123 763 LINE SMOOTH",
"117 763 OFFCURVE",
"113 759 OFFCURVE",
"113 753 CURVE SMOOTH",
"113 424 LINE SMOOTH",
"113 419 OFFCURVE",
"111 414 OFFCURVE",
"106 412 CURVE SMOOTH",
"47 382 LINE SMOOTH",
"42 380 OFFCURVE",
"40 375 OFFCURVE",
"40 370 CURVE SMOOTH",
"40 328 LINE SMOOTH",
"40 321 OFFCURVE",
"45 318 OFFCURVE",
"52 321 CURVE SMOOTH",
"101 347 LINE SMOOTH",
"108 350 OFFCURVE",
"113 347 OFFCURVE",
"113 340 CURVE SMOOTH",
"113 10 LINE SMOOTH",
"113 4 OFFCURVE",
"117 0 OFFCURVE",
"123 0 CURVE SMOOTH"
);
}
);
width = 560;
},
{
anchors = (
{
name = bottom;
position = "{331, 0}";
},
{
name = center;
position = "{291, 382}";
},
{
name = top;
position = "{291, 763}";
},
{
name = topright;
position = "{549, 763}";
}
);
background = {
anchors = (
{
name = bottom;
position = "{331, 0}";
},
{
name = center;
position = "{291, 382}";
},
{
name = top;
position = "{291, 763}";
},
{
name = topright;
position = "{549, 763}";
}
);
paths = (
{
closed = 1;
nodes = (
"532 0 LINE SMOOTH",
"542 0 OFFCURVE",
"548 6 OFFCURVE",
"548 16 CURVE SMOOTH",
"548 67 LINE SMOOTH",
"548 77 OFFCURVE",
"542 83 OFFCURVE",
"532 83 CURVE SMOOTH",
"222 83 LINE SMOOTH",
"212 83 OFFCURVE",
"206 89 OFFCURVE",
"206 99 CURVE SMOOTH",
"206 376 LINE SMOOTH",
"206 385 OFFCURVE",
"210 391 OFFCURVE",
"218 395 CURVE SMOOTH",
"394 486 LINE SMOOTH",
"402 490 OFFCURVE",
"405 496 OFFCURVE",
"405 505 CURVE SMOOTH",
"405 549 LINE SMOOTH",
"405 561 OFFCURVE",
"397 566 OFFCURVE",
"386 560 CURVE SMOOTH",
"225 477 LINE SMOOTH",
"214 471 OFFCURVE",
"206 476 OFFCURVE",
"206 488 CURVE SMOOTH",
"206 747 LINE SMOOTH",
"206 757 OFFCURVE",
"200 763 OFFCURVE",
"190 763 CURVE SMOOTH",
"130 763 LINE SMOOTH",
"120 763 OFFCURVE",
"114 757 OFFCURVE",
"114 747 CURVE SMOOTH",
"114 433 LINE SMOOTH",
"114 424 OFFCURVE",
"110 418 OFFCURVE",
"102 414 CURVE SMOOTH",
"50 387 LINE SMOOTH",
"42 383 OFFCURVE",
"38 377 OFFCURVE",
"38 368 CURVE SMOOTH",
"38 323 LINE SMOOTH",
"38 311 OFFCURVE",
"46 306 OFFCURVE",
"57 312 CURVE SMOOTH",
"95 331 LINE SMOOTH",
"106 336 OFFCURVE",
"114 332 OFFCURVE",
"114 320 CURVE SMOOTH",
"114 16 LINE SMOOTH",
"114 6 OFFCURVE",
"120 0 OFFCURVE",
"130 0 CURVE SMOOTH"
);
}
);
};
layerId = "11907447-A26F-432E-A335-7727E0303767";
paths = (
{
closed = 1;
nodes = (
"538 0 LINE SMOOTH",
"544 0 OFFCURVE",
"548 4 OFFCURVE",
"548 10 CURVE SMOOTH",
"548 73 LINE SMOOTH",
"548 79 OFFCURVE",
"544 83 OFFCURVE",
"538 83 CURVE SMOOTH",
"216 83 LINE SMOOTH",
"210 83 OFFCURVE",
"206 87 OFFCURVE",
"206 93 CURVE SMOOTH",
"206 381 LINE SMOOTH",
"206 386 OFFCURVE",
"208 391 OFFCURVE",
"213 393 CURVE SMOOTH",
"398 488 LINE SMOOTH",
"403 490 OFFCURVE",
"405 495 OFFCURVE",
"405 500 CURVE SMOOTH",
"405 557 LINE SMOOTH",
"405 564 OFFCURVE",
"400 567 OFFCURVE",
"393 564 CURVE SMOOTH",
"218 473 LINE SMOOTH",
"211 470 OFFCURVE",
"206 473 OFFCURVE",
"206 480 CURVE SMOOTH",
"206 753 LINE SMOOTH",
"206 759 OFFCURVE",
"202 763 OFFCURVE",
"196 763 CURVE SMOOTH",
"124 763 LINE SMOOTH",
"118 763 OFFCURVE",
"114 759 OFFCURVE",
"114 753 CURVE SMOOTH",
"114 428 LINE SMOOTH",
"114 423 OFFCURVE",
"112 418 OFFCURVE",
"107 416 CURVE SMOOTH",
"45 385 LINE SMOOTH",
"40 383 OFFCURVE",
"38 378 OFFCURVE",
"38 373 CURVE SMOOTH",
"38 316 LINE SMOOTH",
"38 309 OFFCURVE",
"43 305 OFFCURVE",
"50 309 CURVE SMOOTH",
"102 334 LINE SMOOTH",
"109 338 OFFCURVE",
"114 334 OFFCURVE",
"114 327 CURVE SMOOTH",
"114 10 LINE SMOOTH",
"114 4 OFFCURVE",
"118 0 OFFCURVE",
"124 0 CURVE SMOOTH"
);
}
);
width = 568;
},
{
anchors = (
{
name = bottom;
position = "{350, 0}";
},
{
name = center;
position = "{307, 382}";
},
{
name = top;
position = "{307, 763}";
},
{
name = topright;
position = "{577, 763}";
}
);
background = {
anchors = (
{
name = bottom;
position = "{350, 0}";
},
{
name = center;
position = "{307, 382}";
},
{
name = top;
position = "{307, 763}";
},
{
name = topright;
position = "{577, 763}";
}
);
paths = (
{
closed = 1;
nodes = (
"579 0 LINE SMOOTH",
"589 0 OFFCURVE",
"595 6 OFFCURVE",
"595 16 CURVE SMOOTH",
"595 144 LINE SMOOTH",
"595 154 OFFCURVE",
"589 160 OFFCURVE",
"579 160 CURVE SMOOTH",
"300 160 LINE SMOOTH",
"290 160 OFFCURVE",
"284 166 OFFCURVE",
"284 176 CURVE SMOOTH",
"284 360 LINE SMOOTH",
"284 369 OFFCURVE",
"288 375 OFFCURVE",
"296 379 CURVE SMOOTH",
"414 440 LINE SMOOTH",
"422 444 OFFCURVE",
"425 450 OFFCURVE",
"425 459 CURVE SMOOTH",
"425 563 LINE SMOOTH",
"425 575 OFFCURVE",
"417 580 OFFCURVE",
"406 574 CURVE SMOOTH",
"303 521 LINE SMOOTH",
"292 515 OFFCURVE",
"284 520 OFFCURVE",
"284 532 CURVE SMOOTH",
"284 747 LINE SMOOTH",
"284 757 OFFCURVE",
"278 763 OFFCURVE",
"268 763 CURVE SMOOTH",
"121 763 LINE SMOOTH",
"111 763 OFFCURVE",
"105 757 OFFCURVE",
"105 747 CURVE SMOOTH",
"105 432 LINE SMOOTH",
"105 423 OFFCURVE",
"101 417 OFFCURVE",
"93 413 CURVE SMOOTH",
"43 387 LINE SMOOTH",
"35 383 OFFCURVE",
"31 377 OFFCURVE",
"31 368 CURVE SMOOTH",
"31 263 LINE SMOOTH",
"31 251 OFFCURVE",
"39 246 OFFCURVE",
"50 252 CURVE SMOOTH",
"86 270 LINE SMOOTH",
"97 275 OFFCURVE",
"105 271 OFFCURVE",
"105 259 CURVE SMOOTH",
"105 16 LINE SMOOTH",
"105 6 OFFCURVE",
"111 0 OFFCURVE",
"121 0 CURVE SMOOTH"
);
}
);
};
layerId = "FD6EB2BB-8839-4CDB-86BF-4EEAE3F02079";
paths = (
{
closed = 1;
nodes = (
"575 0 LINE SMOOTH",
"588 0 OFFCURVE",
"595 7 OFFCURVE",
"595 20 CURVE SMOOTH",
"595 140 LINE SMOOTH",
"595 153 OFFCURVE",
"588 160 OFFCURVE",
"575 160 CURVE SMOOTH",
"304 160 LINE SMOOTH",
"291 160 OFFCURVE",
"284 167 OFFCURVE",
"284 180 CURVE SMOOTH",
"284 357 LINE SMOOTH",
"284 368 OFFCURVE",
"288 375 OFFCURVE",
"298 380 CURVE SMOOTH",
"411 439 LINE SMOOTH",
"421 444 OFFCURVE",
"425 451 OFFCURVE",
"425 462 CURVE SMOOTH",
"425 557 LINE SMOOTH",
"425 572 OFFCURVE",
"415 579 OFFCURVE",
"401 572 CURVE SMOOTH",
"308 523 LINE SMOOTH",
"294 516 OFFCURVE",
"284 523 OFFCURVE",
"284 538 CURVE SMOOTH",
"284 743 LINE SMOOTH",
"284 756 OFFCURVE",
"277 763 OFFCURVE",
"264 763 CURVE SMOOTH",
"125 763 LINE SMOOTH",
"112 763 OFFCURVE",
"105 756 OFFCURVE",
"105 743 CURVE SMOOTH",
"105 435 LINE SMOOTH",
"105 424 OFFCURVE",
"101 417 OFFCURVE",
"91 412 CURVE SMOOTH",
"45 388 LINE SMOOTH",
"35 383 OFFCURVE",
"31 376 OFFCURVE",
"31 365 CURVE SMOOTH",
"31 269 LINE SMOOTH",
"31 254 OFFCURVE",
"41 248 OFFCURVE",
"55 255 CURVE SMOOTH",
"81 268 LINE SMOOTH",
"95 275 OFFCURVE",
"105 268 OFFCURVE",
"105 253 CURVE SMOOTH",
"105 20 LINE SMOOTH",
"105 7 OFFCURVE",
"112 0 OFFCURVE",
"125 0 CURVE SMOOTH"
);
}
);
width = 595;
}
);
unicode = 0141;
},
{
color = 1;
glyphname = M;
lastChange = "2020-04-15 11:40:08 +0000";
layers = (
{
anchors = (
{
name = bottom;
position = "{474, 0}";
},
{
name = top;
position = "{474, 763}";
}
);
layerId = "FD6EB2BB-8839-4CDB-86BF-4EEAE3F02079";
paths = (
{
closed = 1;
nodes = (
"219 0 LINE SMOOTH",
"232 0 OFFCURVE",
"239 7 OFFCURVE",
"239 20 CURVE SMOOTH",
"239 525 LINE SMOOTH",
"239 538 OFFCURVE",
"257 540 OFFCURVE",
"260 527 CURVE SMOOTH",
"383 17 LINE SMOOTH",
"386 6 OFFCURVE",
"393 0 OFFCURVE",
"405 0 CURVE SMOOTH",
"543 0 LINE SMOOTH",
"555 0 OFFCURVE",
"562 6 OFFCURVE",
"565 17 CURVE SMOOTH",
"688 531 LINE SMOOTH",
"691 543 OFFCURVE",
"709 541 OFFCURVE",
"709 528 CURVE SMOOTH",
"709 20 LINE SMOOTH",
"709 7 OFFCURVE",
"716 0 OFFCURVE",
"729 0 CURVE SMOOTH",
"868 0 LINE SMOOTH",
"881 0 OFFCURVE",
"888 7 OFFCURVE",
"888 20 CURVE SMOOTH",
"888 743 LINE SMOOTH",
"888 756 OFFCURVE",
"881 763 OFFCURVE",
"868 763 CURVE SMOOTH",
"617 763 LINE SMOOTH",
"605 763 OFFCURVE",
"598 756 OFFCURVE",
"595 745 CURVE SMOOTH",
"486 267 LINE SMOOTH",
"482 247 OFFCURVE",
"466 248 OFFCURVE",
"462 267 CURVE SMOOTH",
"352 745 LINE SMOOTH",
"349 756 OFFCURVE",
"342 763 OFFCURVE",
"330 763 CURVE SMOOTH",
"80 763 LINE SMOOTH",
"67 763 OFFCURVE",
"60 756 OFFCURVE",
"60 743 CURVE SMOOTH",
"60 20 LINE SMOOTH",
"60 7 OFFCURVE",
"67 0 OFFCURVE",
"80 0 CURVE SMOOTH"
);
}
);
width = 949;
},
{
anchors = (
{
name = bottom;
position = "{450, 0}";
},
{
name = top;
position = "{450, 763}";
}
);
layerId = "11907447-A26F-432E-A335-7727E0303767";
paths = (
{
closed = 1;
nodes = (
"161 0 LINE SMOOTH",
"167 0 OFFCURVE",
"171 4 OFFCURVE",
"171 10 CURVE SMOOTH",
"171 667 LINE SMOOTH",
"171 676 OFFCURVE",
"179 677 OFFCURVE",
"182 669 CURVE SMOOTH",
"401 8 LINE SMOOTH",
"403 3 OFFCURVE",
"408 0 OFFCURVE",
"413 0 CURVE SMOOTH",
"486 0 LINE SMOOTH",
"491 0 OFFCURVE",
"496 3 OFFCURVE",
"498 8 CURVE SMOOTH",
"717 674 LINE SMOOTH",
"720 682 OFFCURVE",
"728 681 OFFCURVE",
"728 672 CURVE SMOOTH",
"728 10 LINE SMOOTH",
"728 4 OFFCURVE",
"732 0 OFFCURVE",
"738 0 CURVE SMOOTH",
"810 0 LINE SMOOTH",
"816 0 OFFCURVE",
"820 4 OFFCURVE",
"820 10 CURVE SMOOTH",
"820 753 LINE SMOOTH",
"820 759 OFFCURVE",
"816 763 OFFCURVE",
"810 763 CURVE SMOOTH",
"663 763 LINE SMOOTH",
"658 763 OFFCURVE",
"653 760 OFFCURVE",
"651 755 CURVE SMOOTH",
"455 134 LINE SMOOTH",
"452 124 OFFCURVE",
"446 124 OFFCURVE",
"443 134 CURVE SMOOTH",
"247 755 LINE SMOOTH",
"245 760 OFFCURVE",
"240 763 OFFCURVE",
"235 763 CURVE SMOOTH",
"89 763 LINE SMOOTH",
"83 763 OFFCURVE",
"79 759 OFFCURVE",
"79 753 CURVE SMOOTH",
"79 10 LINE SMOOTH",
"79 4 OFFCURVE",
"83 0 OFFCURVE",
"89 0 CURVE SMOOTH"
);
}
);
width = 899;
},
{
anchors = (
{
name = bottom;
position = "{438, 0}";
},
{
name = top;
position = "{438, 763}";
}
);
layerId = "2F4EEC1B-9E89-4E08-AD53-AB625B6E887D";
paths = (
{
closed = 1;
nodes = (
"138 0 LINE SMOOTH",
"144 0 OFFCURVE",
"148 4 OFFCURVE",
"148 10 CURVE SMOOTH",
"148 658 LINE SMOOTH",
"148 667 OFFCURVE",
"156 669 OFFCURVE",
"159 660 CURVE SMOOTH",
"392 8 LINE SMOOTH",
"394 2 OFFCURVE",
"399 0 OFFCURVE",
"404 0 CURVE SMOOTH",
"472 0 LINE SMOOTH",
"477 0 OFFCURVE",
"482 2 OFFCURVE",
"484 8 CURVE SMOOTH",
"717 658 LINE SMOOTH",
"720 667 OFFCURVE",
"728 665 OFFCURVE",
"728 656 CURVE SMOOTH",
"728 10 LINE SMOOTH",
"728 4 OFFCURVE",
"732 0 OFFCURVE",
"738 0 CURVE SMOOTH",
"787 0 LINE SMOOTH",
"793 0 OFFCURVE",
"797 4 OFFCURVE",
"797 10 CURVE SMOOTH",
"797 753 LINE SMOOTH",
"797 759 OFFCURVE",
"793 763 OFFCURVE",
"787 763 CURVE SMOOTH",
"695 763 LINE SMOOTH",
"690 763 OFFCURVE",
"685 761 OFFCURVE",
"683 755 CURVE SMOOTH",
"445 88 LINE SMOOTH",
"442 80 OFFCURVE",
"434 80 OFFCURVE",
"431 88 CURVE SMOOTH",
"193 755 LINE SMOOTH",
"191 761 OFFCURVE",
"186 763 OFFCURVE",
"181 763 CURVE SMOOTH",
"89 763 LINE SMOOTH",
"83 763 OFFCURVE",
"79 759 OFFCURVE",
"79 753 CURVE SMOOTH",
"79 10 LINE SMOOTH",
"79 4 OFFCURVE",
"83 0 OFFCURVE",
"89 0 CURVE SMOOTH"
);
}
);
width = 876;
}
);
leftKerningGroup = B;
note = M;
rightKerningGroup = H;
unicode = 004D;
},
{
color = 1;
glyphname = N;
lastChange = "2020-04-15 11:40:12 +0000";
layers = (
{
anchors = (
{
name = bottom;
position = "{387, 0}";
},
{
name = top;
position = "{387, 763}";
}
);
layerId = "FD6EB2BB-8839-4CDB-86BF-4EEAE3F02079";
paths = (
{
closed = 1;
nodes = (
"219 0 LINE SMOOTH",
"232 0 OFFCURVE",
"239 7 OFFCURVE",
"239 20 CURVE SMOOTH",
"239 420 LINE SMOOTH",
"239 439 OFFCURVE",
"253 444 OFFCURVE",
"263 427 CURVE SMOOTH",
"524 13 LINE SMOOTH",
"530 3 OFFCURVE",
"537 0 OFFCURVE",
"548 0 CURVE SMOOTH",
"694 0 LINE SMOOTH",
"707 0 OFFCURVE",
"714 7 OFFCURVE",
"714 20 CURVE SMOOTH",
"714 743 LINE SMOOTH",
"714 756 OFFCURVE",
"707 763 OFFCURVE",
"694 763 CURVE SMOOTH",
"555 763 LINE SMOOTH",
"542 763 OFFCURVE",
"535 756 OFFCURVE",
"535 743 CURVE SMOOTH",
"535 345 LINE SMOOTH",
"535 326 OFFCURVE",
"521 322 OFFCURVE",
"511 338 CURVE SMOOTH",
"250 750 LINE SMOOTH",
"244 760 OFFCURVE",
"237 763 OFFCURVE",
"226 763 CURVE SMOOTH",
"80 763 LINE SMOOTH",
"67 763 OFFCURVE",
"60 756 OFFCURVE",
"60 743 CURVE SMOOTH",
"60 20 LINE SMOOTH",
"60 7 OFFCURVE",
"67 0 OFFCURVE",
"80 0 CURVE SMOOTH"
);
}
);
width = 774;
},
{
anchors = (
{
name = bottom;
position = "{363, 0}";
},
{
name = top;
position = "{363, 763}";
}
);
layerId = "11907447-A26F-432E-A335-7727E0303767";
paths = (
{
closed = 1;
nodes = (
"161 0 LINE SMOOTH",
"167 0 OFFCURVE",
"171 4 OFFCURVE",
"171 10 CURVE SMOOTH",
"171 643 LINE SMOOTH",
"171 653 OFFCURVE",
"179 655 OFFCURVE",
"183 646 CURVE SMOOTH",
"509 7 LINE SMOOTH",
"511 2 OFFCURVE",
"516 0 OFFCURVE",
"521 0 CURVE SMOOTH",
"637 0 LINE SMOOTH",
"643 0 OFFCURVE",
"647 4 OFFCURVE",
"647 10 CURVE SMOOTH",
"647 753 LINE SMOOTH",
"647 759 OFFCURVE",
"643 763 OFFCURVE",
"637 763 CURVE SMOOTH",
"566 763 LINE SMOOTH",
"560 763 OFFCURVE",
"556 759 OFFCURVE",
"556 753 CURVE SMOOTH",
"556 118 LINE SMOOTH",
"556 108 OFFCURVE",
"548 106 OFFCURVE",
"544 115 CURVE SMOOTH",
"217 756 LINE SMOOTH",
"215 761 OFFCURVE",
"210 763 OFFCURVE",
"205 763 CURVE SMOOTH",
"89 763 LINE SMOOTH",
"83 763 OFFCURVE",
"79 759 OFFCURVE",
"79 753 CURVE SMOOTH",
"79 10 LINE SMOOTH",
"79 4 OFFCURVE",
"83 0 OFFCURVE",
"89 0 CURVE SMOOTH"
);
}
);
width = 727;
},
{
anchors = (
{
name = bottom;
position = "{352, 0}";
},
{
name = top;
position = "{352, 763}";
}
);
layerId = "2F4EEC1B-9E89-4E08-AD53-AB625B6E887D";
paths = (
{
closed = 1;
nodes = (
"138 0 LINE SMOOTH",
"144 0 OFFCURVE",
"148 4 OFFCURVE",
"148 10 CURVE SMOOTH",
"148 672 LINE SMOOTH",
"148 682 OFFCURVE",
"155 683 OFFCURVE",
"160 674 CURVE SMOOTH",
"514 7 LINE SMOOTH",
"516 2 OFFCURVE",
"521 0 OFFCURVE",
"526 0 CURVE SMOOTH",
"614 0 LINE SMOOTH",
"620 0 OFFCURVE",
"624 4 OFFCURVE",
"624 10 CURVE SMOOTH",
"624 753 LINE SMOOTH",
"624 759 OFFCURVE",
"620 763 OFFCURVE",
"614 763 CURVE SMOOTH",
"566 763 LINE SMOOTH",
"560 763 OFFCURVE",
"556 759 OFFCURVE",
"556 753 CURVE SMOOTH",
"556 89 LINE SMOOTH",
"556 79 OFFCURVE",
"549 77 OFFCURVE",
"544 86 CURVE SMOOTH",
"189 756 LINE SMOOTH",
"187 761 OFFCURVE",
"182 763 OFFCURVE",
"177 763 CURVE SMOOTH",
"89 763 LINE SMOOTH",
"83 763 OFFCURVE",
"79 759 OFFCURVE",
"79 753 CURVE SMOOTH",
"79 10 LINE SMOOTH",
"79 4 OFFCURVE",
"83 0 OFFCURVE",
"89 0 CURVE SMOOTH"
);
}
);
width = 704;
}
);
leftKerningGroup = B;
note = N;
rightKerningGroup = H;
unicode = 004E;
},
{
color = 1;
glyphname = O;
lastChange = "2020-04-05 10:52:22 +0000";
layers = (
{
anchors = (
{
name = bottom;
position = "{412, 0}";
},
{
name = center;
position = "{412, 382}";
},
{
name = ogonek;
position = "{536, 0}";
},
{
name = top;
position = "{412, 763}";
},
{
name = topleft;
position = "{21, 763}";
},
{
name = topright;
position = "{803, 763}";
}
);
layerId = "FD6EB2BB-8839-4CDB-86BF-4EEAE3F02079";
paths = (
{
closed = 1;
nodes = (
"672 -17 OFFCURVE",
"793 169 OFFCURVE",
"793 382 CURVE SMOOTH",
"793 595 OFFCURVE",
"672 779 OFFCURVE",
"413 779 CURVE SMOOTH",
"152 779 OFFCURVE",
"32 595 OFFCURVE",
"32 382 CURVE SMOOTH",
"32 169 OFFCURVE",
"152 -17 OFFCURVE",
"413 -17 CURVE SMOOTH"
);
},
{
closed = 1;
nodes = (
"293 143 OFFCURVE",
"221 237 OFFCURVE",
"221 382 CURVE SMOOTH",
"221 526 OFFCURVE",
"293 619 OFFCURVE",
"413 619 CURVE SMOOTH",
"533 619 OFFCURVE",
"604 526 OFFCURVE",
"604 382 CURVE SMOOTH",
"604 237 OFFCURVE",
"533 143 OFFCURVE",
"413 143 CURVE SMOOTH"
);
}
);
width = 826;
},
{
anchors = (
{
name = bottom;
position = "{405, 0}";
},
{
name = center;
position = "{405, 382}";
},
{
name = ogonek;
position = "{494, 0}";
},
{
name = top;
position = "{405, 763}";
},
{
name = topleft;
position = "{18, 763}";
},
{
name = topright;
position = "{792, 763}";
}
);
layerId = "11907447-A26F-432E-A335-7727E0303767";
paths = (
{
closed = 1;
nodes = (
"646 -10 OFFCURVE",
"760 174 OFFCURVE",
"760 382 CURVE SMOOTH",
"760 590 OFFCURVE",
"646 773 OFFCURVE",
"404 773 CURVE SMOOTH",
"164 773 OFFCURVE",
"50 590 OFFCURVE",
"50 382 CURVE SMOOTH",
"50 174 OFFCURVE",
"164 -10 OFFCURVE",
"404 -10 CURVE SMOOTH"
);
},
{
closed = 1;
nodes = (
"235 73 OFFCURVE",
"142 203 OFFCURVE",
"142 382 CURVE SMOOTH",
"142 560 OFFCURVE",
"235 690 OFFCURVE",
"404 690 CURVE SMOOTH",
"576 690 OFFCURVE",
"668 560 OFFCURVE",
"668 382 CURVE SMOOTH",
"668 203 OFFCURVE",
"576 73 OFFCURVE",
"404 73 CURVE SMOOTH"
);
}
);
width = 811;
},
{
anchors = (
{
name = bottom;
position = "{398, 0}";
},
{
name = center;
position = "{398, 382}";
},
{
name = ogonek;
position = "{482, 0}";
},
{
name = top;
position = "{398, 763}";
},
{
name = topleft;
position = "{13, 763}";
},
{
name = topright;
position = "{783, 763}";
}
);
layerId = "2F4EEC1B-9E89-4E08-AD53-AB625B6E887D";
paths = (
{
closed = 1;
nodes = (
"632 -10 OFFCURVE",
"744 174 OFFCURVE",
"744 382 CURVE SMOOTH",
"744 590 OFFCURVE",
"632 773 OFFCURVE",
"397 773 CURVE SMOOTH",
"162 773 OFFCURVE",
"50 590 OFFCURVE",
"50 382 CURVE SMOOTH",
"50 174 OFFCURVE",
"162 -10 OFFCURVE",
"397 -10 CURVE SMOOTH"
);
},
{
closed = 1;
nodes = (
"214 52 OFFCURVE",
"119 195 OFFCURVE",
"119 382 CURVE SMOOTH",
"119 568 OFFCURVE",
"214 711 OFFCURVE",
"397 711 CURVE SMOOTH",
"580 711 OFFCURVE",
"675 568 OFFCURVE",
"675 382 CURVE SMOOTH",
"675 195 OFFCURVE",
"580 52 OFFCURVE",
"397 52 CURVE SMOOTH"
);
}
);
width = 794;
}
);
leftKerningGroup = C;
note = O;
rightKerningGroup = D;
unicode = 004F;
},
{
glyphname = OE;
lastChange = "2020-04-15 11:40:17 +0000";
layers = (
{
anchors = (
{
name = bottom;
position = "{603, 0}";
},
{
name = top;
position = "{603, 763}";
}
);
layerId = "2F4EEC1B-9E89-4E08-AD53-AB625B6E887D";
paths = (
{
closed = 1;
nodes = (
"519 -10 OFFCURVE",
"608 40 OFFCURVE",
"666 126 CURVE SMOOTH",
"670 133 OFFCURVE",
"676 129 OFFCURVE",
"676 120 CURVE SMOOTH",
"676 10 LINE SMOOTH",
"676 4 OFFCURVE",
"680 0 OFFCURVE",
"686 0 CURVE SMOOTH",
"1152 0 LINE SMOOTH",
"1158 0 OFFCURVE",
"1162 4 OFFCURVE",
"1162 10 CURVE SMOOTH",
"1162 52 LINE SMOOTH",
"1162 58 OFFCURVE",
"1158 62 OFFCURVE",
"1152 62 CURVE SMOOTH",
"755 62 LINE SMOOTH",
"749 62 OFFCURVE",
"745 66 OFFCURVE",
"745 72 CURVE SMOOTH",
"745 343 LINE SMOOTH",
"745 349 OFFCURVE",
"749 353 OFFCURVE",
"755 353 CURVE SMOOTH",
"1101 353 LINE SMOOTH",
"1107 353 OFFCURVE",
"1111 357 OFFCURVE",
"1111 363 CURVE SMOOTH",
"1111 404 LINE SMOOTH",
"1111 410 OFFCURVE",
"1107 414 OFFCURVE",
"1101 414 CURVE SMOOTH",
"755 414 LINE SMOOTH",
"749 414 OFFCURVE",
"745 418 OFFCURVE",
"745 424 CURVE SMOOTH",
"745 691 LINE SMOOTH",
"745 697 OFFCURVE",
"749 701 OFFCURVE",
"755 701 CURVE SMOOTH",
"1152 701 LINE SMOOTH",
"1158 701 OFFCURVE",
"1162 705 OFFCURVE",
"1162 711 CURVE SMOOTH",
"1162 753 LINE SMOOTH",
"1162 759 OFFCURVE",
"1158 763 OFFCURVE",
"1152 763 CURVE SMOOTH",
"686 763 LINE SMOOTH",
"680 763 OFFCURVE",
"676 759 OFFCURVE",
"676 753 CURVE SMOOTH",
"676 644 LINE SMOOTH",
"676 635 OFFCURVE",
"670 632 OFFCURVE",
"664 640 CURVE SMOOTH",
"607 724 OFFCURVE",
"518 773 OFFCURVE",
"397 773 CURVE SMOOTH",
"162 773 OFFCURVE",
"50 590 OFFCURVE",
"50 382 CURVE SMOOTH",
"50 174 OFFCURVE",
"162 -10 OFFCURVE",
"397 -10 CURVE SMOOTH"
);
},
{
closed = 1;
nodes = (
"214 52 OFFCURVE",
"119 195 OFFCURVE",
"119 382 CURVE SMOOTH",
"119 568 OFFCURVE",
"214 711 OFFCURVE",
"397 711 CURVE SMOOTH",
"580 711 OFFCURVE",
"675 568 OFFCURVE",
"675 382 CURVE SMOOTH",
"675 195 OFFCURVE",
"580 52 OFFCURVE",
"397 52 CURVE SMOOTH"
);
}
);
width = 1206;
},
{
anchors = (
{
name = bottom;
position = "{602, 0}";
},
{
name = top;
position = "{602, 763}";
}
);
layerId = "11907447-A26F-432E-A335-7727E0303767";
paths = (
{
closed = 1;
nodes = (
"502 -10 OFFCURVE",
"582 24 OFFCURVE",
"653 102 CURVE SMOOTH",
"660 109 OFFCURVE",
"667 108 OFFCURVE",
"667 99 CURVE SMOOTH",
"667 10 LINE SMOOTH",
"667 4 OFFCURVE",
"671 0 OFFCURVE",
"677 0 CURVE SMOOTH",
"1150 0 LINE SMOOTH",
"1156 0 OFFCURVE",
"1160 4 OFFCURVE",
"1160 10 CURVE SMOOTH",
"1160 73 LINE SMOOTH",
"1160 79 OFFCURVE",
"1156 83 OFFCURVE",
"1150 83 CURVE SMOOTH",
"769 83 LINE SMOOTH",
"763 83 OFFCURVE",
"759 87 OFFCURVE",
"759 93 CURVE SMOOTH",
"759 332 LINE SMOOTH",
"759 338 OFFCURVE",
"763 342 OFFCURVE",
"769 342 CURVE SMOOTH",
"1103 342 LINE SMOOTH",
"1109 342 OFFCURVE",
"1113 346 OFFCURVE",
"1113 352 CURVE SMOOTH",
"1113 414 LINE SMOOTH",
"1113 420 OFFCURVE",
"1109 424 OFFCURVE",
"1103 424 CURVE SMOOTH",
"769 424 LINE SMOOTH",
"763 424 OFFCURVE",
"759 428 OFFCURVE",
"759 434 CURVE SMOOTH",
"759 670 LINE SMOOTH",
"759 676 OFFCURVE",
"763 680 OFFCURVE",
"769 680 CURVE SMOOTH",
"1150 680 LINE SMOOTH",
"1156 680 OFFCURVE",
"1160 684 OFFCURVE",
"1160 690 CURVE SMOOTH",
"1160 753 LINE SMOOTH",
"1160 759 OFFCURVE",
"1156 763 OFFCURVE",
"1150 763 CURVE SMOOTH",
"677 763 LINE SMOOTH",
"671 763 OFFCURVE",
"667 759 OFFCURVE",
"667 753 CURVE SMOOTH",
"667 665 LINE SMOOTH",
"667 656 OFFCURVE",
"661 653 OFFCURVE",
"655 661 CURVE SMOOTH",
"586 738 OFFCURVE",
"507 773 OFFCURVE",
"404 773 CURVE SMOOTH",
"164 773 OFFCURVE",
"50 590 OFFCURVE",
"50 382 CURVE SMOOTH",
"50 174 OFFCURVE",
"164 -10 OFFCURVE",
"404 -10 CURVE SMOOTH"
);
},
{
closed = 1;
nodes = (
"235 73 OFFCURVE",
"142 203 OFFCURVE",
"142 382 CURVE SMOOTH",
"142 560 OFFCURVE",
"235 690 OFFCURVE",
"404 690 CURVE SMOOTH",
"576 690 OFFCURVE",
"668 560 OFFCURVE",
"668 382 CURVE SMOOTH",
"668 203 OFFCURVE",
"576 73 OFFCURVE",
"404 73 CURVE SMOOTH"
);
}
);
width = 1204;
},
{
anchors = (
{
name = bottom;
position = "{586, 0}";
},
{
name = top;
position = "{586, 763}";
}
);
layerId = "FD6EB2BB-8839-4CDB-86BF-4EEAE3F02079";
paths = (
{
closed = 1;
nodes = (
"476 -17 OFFCURVE",
"545 6 OFFCURVE",
"590 47 CURVE SMOOTH",
"600 57 OFFCURVE",
"608 50 OFFCURVE",
"608 33 CURVE SMOOTH",
"608 20 LINE SMOOTH",
"608 7 OFFCURVE",
"615 0 OFFCURVE",
"628 0 CURVE SMOOTH",
"1109 0 LINE SMOOTH",
"1122 0 OFFCURVE",
"1129 7 OFFCURVE",
"1129 20 CURVE SMOOTH",
"1129 140 LINE SMOOTH",
"1129 153 OFFCURVE",
"1122 160 OFFCURVE",
"1109 160 CURVE SMOOTH",
"807 160 LINE SMOOTH",
"794 160 OFFCURVE",
"787 167 OFFCURVE",
"787 180 CURVE SMOOTH",
"787 282 LINE SMOOTH",
"787 295 OFFCURVE",
"794 302 OFFCURVE",
"807 302 CURVE SMOOTH",
"1076 302 LINE SMOOTH",
"1089 302 OFFCURVE",
"1096 309 OFFCURVE",
"1096 322 CURVE SMOOTH",
"1096 441 LINE SMOOTH",
"1096 454 OFFCURVE",
"1089 461 OFFCURVE",
"1076 461 CURVE SMOOTH",
"807 461 LINE SMOOTH",
"794 461 OFFCURVE",
"787 468 OFFCURVE",
"787 481 CURVE SMOOTH",
"787 583 LINE SMOOTH",
"787 596 OFFCURVE",
"794 603 OFFCURVE",
"807 603 CURVE SMOOTH",
"1109 603 LINE SMOOTH",
"1122 603 OFFCURVE",
"1129 610 OFFCURVE",
"1129 623 CURVE SMOOTH",
"1129 743 LINE SMOOTH",
"1129 756 OFFCURVE",
"1122 763 OFFCURVE",
"1109 763 CURVE SMOOTH",
"628 763 LINE SMOOTH",
"615 763 OFFCURVE",
"608 756 OFFCURVE",
"608 743 CURVE SMOOTH",
"608 727 LINE SMOOTH",
"608 710 OFFCURVE",
"598 706 OFFCURVE",
"585 717 CURVE SMOOTH",
"540 753 OFFCURVE",
"473 779 OFFCURVE",
"396 779 CURVE SMOOTH",
"152 779 OFFCURVE",
"32 595 OFFCURVE",
"32 382 CURVE SMOOTH",
"32 169 OFFCURVE",
"152 -17 OFFCURVE",
"396 -17 CURVE SMOOTH"
);
},
{
closed = 1;
nodes = (
"293 143 OFFCURVE",
"221 237 OFFCURVE",
"221 382 CURVE SMOOTH",
"221 526 OFFCURVE",
"293 619 OFFCURVE",
"413 619 CURVE SMOOTH",
"533 619 OFFCURVE",
"604 526 OFFCURVE",
"604 382 CURVE SMOOTH",
"604 237 OFFCURVE",
"533 143 OFFCURVE",
"413 143 CURVE SMOOTH"
);
}
);
width = 1172;
}
);
leftKerningGroup = C;
leftMetricsKey = O;
rightKerningGroup = E;
rightMetricsKey = E;
unicode = 0152;
},
{
color = 1;
glyphname = P;
lastChange = "2020-04-15 11:47:04 +0000";
layers = (
{
anchors = (
{
name = bottom;
position = "{324, 0}";
},
{
name = top;
position = "{324, 763}";
}
);
background = {
anchors = (
{
name = bottom;
position = "{324, 0}";
},
{
name = top;
position = "{324, 763}";
}
);
paths = (
{
closed = 1;
nodes = (
"223 0 LINE SMOOTH",
"233 0 OFFCURVE",
"239 6 OFFCURVE",
"239 16 CURVE SMOOTH",
"239 278 LINE SMOOTH",
"239 288 OFFCURVE",
"245 294 OFFCURVE",
"255 294 CURVE SMOOTH",
"420 294 LINE SMOOTH",
"560 294 OFFCURVE",
"661 382 OFFCURVE",
"661 533 CURVE SMOOTH",
"661 699 OFFCURVE",
"560 763 OFFCURVE",
"420 763 CURVE SMOOTH",
"76 763 LINE SMOOTH",
"66 763 OFFCURVE",
"60 757 OFFCURVE",
"60 747 CURVE SMOOTH",
"60 16 LINE SMOOTH",
"60 6 OFFCURVE",
"66 0 OFFCURVE",
"76 0 CURVE SMOOTH"
);
},
{
closed = 1;
nodes = (
"245 449 OFFCURVE",
"239 455 OFFCURVE",
"239 465 CURVE SMOOTH",
"239 587 LINE SMOOTH",
"239 597 OFFCURVE",
"245 603 OFFCURVE",
"255 603 CURVE SMOOTH",
"395 603 LINE SMOOTH",
"453 603 OFFCURVE",
"484 577 OFFCURVE",
"484 527 CURVE SMOOTH",
"484 475 OFFCURVE",
"453 449 OFFCURVE",
"395 449 CURVE SMOOTH",
"255 449 LINE SMOOTH"
);
}
);
};
layerId = "FD6EB2BB-8839-4CDB-86BF-4EEAE3F02079";
paths = (
{
closed = 1;
nodes = (
"219 0 LINE SMOOTH",
"232 0 OFFCURVE",
"239 7 OFFCURVE",
"239 20 CURVE SMOOTH",
"239 274 LINE SMOOTH",
"239 287 OFFCURVE",
"246 294 OFFCURVE",
"259 294 CURVE SMOOTH",
"420 294 LINE SMOOTH",
"560 294 OFFCURVE",
"661 382 OFFCURVE",
"661 533 CURVE SMOOTH",
"661 699 OFFCURVE",
"560 763 OFFCURVE",
"420 763 CURVE SMOOTH",
"80 763 LINE SMOOTH",
"67 763 OFFCURVE",
"60 756 OFFCURVE",
"60 743 CURVE SMOOTH",
"60 20 LINE SMOOTH",
"60 7 OFFCURVE",
"67 0 OFFCURVE",
"80 0 CURVE SMOOTH"
);
},
{
closed = 1;
nodes = (
"246 449 OFFCURVE",
"239 456 OFFCURVE",
"239 469 CURVE SMOOTH",
"239 583 LINE SMOOTH",
"239 596 OFFCURVE",
"246 603 OFFCURVE",
"259 603 CURVE SMOOTH",
"395 603 LINE SMOOTH",
"453 603 OFFCURVE",
"484 577 OFFCURVE",
"484 527 CURVE SMOOTH",
"484 475 OFFCURVE",
"453 449 OFFCURVE",
"395 449 CURVE SMOOTH",
"259 449 LINE SMOOTH"
);
}
);
width = 683;
},
{
anchors = (
{
name = bottom;
position = "{310, 0}";
},
{
name = top;
position = "{310, 763}";
}
);
background = {
anchors = (
{
name = bottom;
position = "{310, 0}";
},
{
name = top;
position = "{310, 763}";
}
);
paths = (
{
closed = 1;
nodes = (
"155 0 LINE SMOOTH",
"165 0 OFFCURVE",
"171 6 OFFCURVE",
"171 16 CURVE SMOOTH",
"171 308 LINE SMOOTH",
"171 318 OFFCURVE",
"177 324 OFFCURVE",
"187 324 CURVE SMOOTH",
"363 324 LINE SMOOTH",
"510 324 OFFCURVE",
"605 405 OFFCURVE",
"605 545 CURVE SMOOTH",
"605 692 OFFCURVE",
"509 763 OFFCURVE",
"363 763 CURVE SMOOTH",
"95 763 LINE SMOOTH",
"85 763 OFFCURVE",
"79 757 OFFCURVE",
"79 747 CURVE SMOOTH",
"79 16 LINE SMOOTH",
"79 6 OFFCURVE",
"85 0 OFFCURVE",
"95 0 CURVE SMOOTH"
);
},
{
closed = 1;
nodes = (
"177 404 OFFCURVE",
"171 410 OFFCURVE",
"171 420 CURVE SMOOTH",
"171 664 LINE SMOOTH",
"171 674 OFFCURVE",
"177 680 OFFCURVE",
"187 680 CURVE SMOOTH",
"351 680 LINE SMOOTH",
"454 680 OFFCURVE",
"514 630 OFFCURVE",
"514 542 CURVE SMOOTH",
"514 453 OFFCURVE",
"456 404 OFFCURVE",
"351 404 CURVE SMOOTH",
"187 404 LINE SMOOTH"
);
}
);
};
layerId = "11907447-A26F-432E-A335-7727E0303767";
paths = (
{
closed = 1;
nodes = (
"161 0 LINE SMOOTH",
"167 0 OFFCURVE",
"171 4 OFFCURVE",
"171 10 CURVE SMOOTH",
"171 312 LINE SMOOTH",
"171 318 OFFCURVE",
"175 322 OFFCURVE",
"181 322 CURVE SMOOTH",
"363 322 LINE SMOOTH",
"510 322 OFFCURVE",
"605 405 OFFCURVE",
"605 545 CURVE SMOOTH",
"605 692 OFFCURVE",
"509 763 OFFCURVE",
"363 763 CURVE SMOOTH",
"89 763 LINE SMOOTH",
"83 763 OFFCURVE",
"79 759 OFFCURVE",
"79 753 CURVE SMOOTH",
"79 10 LINE SMOOTH",
"79 4 OFFCURVE",
"83 0 OFFCURVE",
"89 0 CURVE SMOOTH"
);
},
{
closed = 1;
nodes = (
"175 404 OFFCURVE",
"171 408 OFFCURVE",
"171 414 CURVE SMOOTH",
"171 670 LINE SMOOTH",
"171 676 OFFCURVE",
"175 680 OFFCURVE",
"181 680 CURVE SMOOTH",
"351 680 LINE SMOOTH",
"454 680 OFFCURVE",
"514 630 OFFCURVE",
"514 542 CURVE SMOOTH",
"514 453 OFFCURVE",
"456 404 OFFCURVE",
"351 404 CURVE SMOOTH",
"181 404 LINE SMOOTH"
);
}
);
width = 640;
},
{
anchors = (
{
name = bottom;
position = "{300, 0}";
},
{
name = top;
position = "{300, 763}";
}
);
background = {
anchors = (
{
name = bottom;
position = "{300, 0}";
},
{
name = top;
position = "{300, 763}";
}
);
paths = (
{
closed = 1;
nodes = (
"138 0 LINE SMOOTH",
"144 0 OFFCURVE",
"148 4 OFFCURVE",
"148 10 CURVE SMOOTH",
"148 322 LINE SMOOTH",
"148 328 OFFCURVE",
"152 332 OFFCURVE",
"158 332 CURVE SMOOTH",
"343 332 LINE SMOOTH",
"492 332 OFFCURVE",
"585 411 OFFCURVE",
"585 548 CURVE SMOOTH",
"585 690 OFFCURVE",
"490 763 OFFCURVE",
"343 763 CURVE SMOOTH",
"89 763 LINE SMOOTH",
"83 763 OFFCURVE",
"79 759 OFFCURVE",
"79 753 CURVE SMOOTH",
"79 10 LINE SMOOTH",
"79 4 OFFCURVE",
"83 0 OFFCURVE",
"89 0 CURVE SMOOTH"
);
},
{
closed = 1;
nodes = (
"152 392 OFFCURVE",
"148 396 OFFCURVE",
"148 402 CURVE SMOOTH",
"148 691 LINE SMOOTH",
"148 697 OFFCURVE",
"152 701 OFFCURVE",
"158 701 CURVE SMOOTH",
"334 701 LINE SMOOTH",
"450 701 OFFCURVE",
"517 644 OFFCURVE",
"517 546 CURVE SMOOTH",
"517 447 OFFCURVE",
"452 392 OFFCURVE",
"334 392 CURVE SMOOTH",
"158 392 LINE SMOOTH"
);
}
);
};
layerId = "2F4EEC1B-9E89-4E08-AD53-AB625B6E887D";
paths = (
{
closed = 1;
nodes = (
"138 0 LINE SMOOTH",
"144 0 OFFCURVE",
"148 4 OFFCURVE",
"148 10 CURVE SMOOTH",
"148 322 LINE SMOOTH",
"148 328 OFFCURVE",
"152 332 OFFCURVE",
"158 332 CURVE SMOOTH",
"343 332 LINE SMOOTH",
"492 332 OFFCURVE",
"585 411 OFFCURVE",
"585 548 CURVE SMOOTH",
"585 690 OFFCURVE",
"490 763 OFFCURVE",
"343 763 CURVE SMOOTH",
"89 763 LINE SMOOTH",
"83 763 OFFCURVE",
"79 759 OFFCURVE",
"79 753 CURVE SMOOTH",
"79 10 LINE SMOOTH",
"79 4 OFFCURVE",
"83 0 OFFCURVE",
"89 0 CURVE SMOOTH"
);
},
{
closed = 1;
nodes = (
"152 392 OFFCURVE",
"148 396 OFFCURVE",
"148 402 CURVE SMOOTH",
"148 691 LINE SMOOTH",
"148 697 OFFCURVE",
"152 701 OFFCURVE",
"158 701 CURVE SMOOTH",
"334 701 LINE SMOOTH",
"450 701 OFFCURVE",
"517 644 OFFCURVE",
"517 546 CURVE SMOOTH",
"517 447 OFFCURVE",
"452 392 OFFCURVE",
"334 392 CURVE SMOOTH",
"158 392 LINE SMOOTH"
);
}
);
width = 620;
}
);
leftKerningGroup = B;
note = P;
rightKerningGroup = P;
unicode = 0050;
},
{
color = 1;
glyphname = Thorn;
lastChange = "2020-04-15 11:47:04 +0000";
layers = (
{
background = {
paths = (
{
closed = 1;
nodes = (
"222 0 LINE SMOOTH",
"232 0 OFFCURVE",
"238 6 OFFCURVE",
"238 16 CURVE SMOOTH",
"238 188 LINE SMOOTH",
"238 198 OFFCURVE",
"244 204 OFFCURVE",
"254 204 CURVE SMOOTH",
"419 204 LINE SMOOTH",
"559 204 OFFCURVE",
"660 292 OFFCURVE",
"660 438 CURVE SMOOTH",
"660 598 OFFCURVE",
"559 663 OFFCURVE",
"419 663 CURVE SMOOTH",
"254 663 LINE SMOOTH",
"244 663 OFFCURVE",
"238 669 OFFCURVE",
"238 679 CURVE SMOOTH",
"238 747 LINE SMOOTH",
"238 757 OFFCURVE",
"232 763 OFFCURVE",
"222 763 CURVE SMOOTH",
"76 763 LINE SMOOTH",
"66 763 OFFCURVE",
"60 757 OFFCURVE",
"60 747 CURVE SMOOTH",
"60 16 LINE SMOOTH",
"60 6 OFFCURVE",
"66 0 OFFCURVE",
"76 0 CURVE SMOOTH"
);
},
{
closed = 1;
nodes = (
"244 360 OFFCURVE",
"238 366 OFFCURVE",
"238 376 CURVE SMOOTH",
"238 486 LINE SMOOTH",
"238 496 OFFCURVE",
"244 502 OFFCURVE",
"254 502 CURVE SMOOTH",
"399 502 LINE SMOOTH",
"451 502 OFFCURVE",
"483 479 OFFCURVE",
"483 433 CURVE SMOOTH",
"483 383 OFFCURVE",
"451 360 OFFCURVE",
"399 360 CURVE SMOOTH",
"254 360 LINE SMOOTH"
);
}
);
};
layerId = "FD6EB2BB-8839-4CDB-86BF-4EEAE3F02079";
paths = (
{
closed = 1;
nodes = (
"218 0 LINE SMOOTH",
"231 0 OFFCURVE",
"238 7 OFFCURVE",
"238 20 CURVE SMOOTH",
"238 184 LINE SMOOTH",
"238 197 OFFCURVE",
"245 204 OFFCURVE",
"258 204 CURVE SMOOTH",
"419 204 LINE SMOOTH",
"559 204 OFFCURVE",
"660 292 OFFCURVE",
"660 438 CURVE SMOOTH",
"660 598 OFFCURVE",
"559 663 OFFCURVE",
"419 663 CURVE SMOOTH",
"258 663 LINE SMOOTH",
"245 663 OFFCURVE",
"238 670 OFFCURVE",
"238 683 CURVE SMOOTH",
"238 743 LINE SMOOTH",
"238 756 OFFCURVE",
"231 763 OFFCURVE",
"218 763 CURVE SMOOTH",
"80 763 LINE SMOOTH",
"67 763 OFFCURVE",
"60 756 OFFCURVE",
"60 743 CURVE SMOOTH",
"60 20 LINE SMOOTH",
"60 7 OFFCURVE",
"67 0 OFFCURVE",
"80 0 CURVE SMOOTH"
);
},
{
closed = 1;
nodes = (
"245 360 OFFCURVE",
"238 367 OFFCURVE",
"238 380 CURVE SMOOTH",
"238 482 LINE SMOOTH",
"238 495 OFFCURVE",
"245 502 OFFCURVE",
"258 502 CURVE SMOOTH",
"399 502 LINE SMOOTH",
"451 502 OFFCURVE",
"483 479 OFFCURVE",
"483 433 CURVE SMOOTH",
"483 383 OFFCURVE",
"451 360 OFFCURVE",
"399 360 CURVE SMOOTH",
"258 360 LINE SMOOTH"
);
}
);
width = 672;
},
{
background = {
paths = (
{
closed = 1;
nodes = (
"154 0 LINE SMOOTH",
"164 0 OFFCURVE",
"170 6 OFFCURVE",
"170 16 CURVE SMOOTH",
"170 205 LINE SMOOTH",
"170 215 OFFCURVE",
"176 221 OFFCURVE",
"186 221 CURVE SMOOTH",
"362 221 LINE SMOOTH",
"510 221 OFFCURVE",
"605 302 OFFCURVE",
"605 440 CURVE SMOOTH",
"605 584 OFFCURVE",
"508 655 OFFCURVE",
"362 655 CURVE SMOOTH",
"186 655 LINE SMOOTH",
"176 655 OFFCURVE",
"170 661 OFFCURVE",
"170 671 CURVE SMOOTH",
"170 747 LINE SMOOTH",
"170 757 OFFCURVE",
"164 763 OFFCURVE",
"154 763 CURVE SMOOTH",
"95 763 LINE SMOOTH",
"85 763 OFFCURVE",
"79 757 OFFCURVE",
"79 747 CURVE SMOOTH",
"79 16 LINE SMOOTH",
"79 6 OFFCURVE",
"85 0 OFFCURVE",
"95 0 CURVE SMOOTH"
);
},
{
closed = 1;
nodes = (
"176 302 OFFCURVE",
"170 308 OFFCURVE",
"170 318 CURVE SMOOTH",
"170 556 LINE SMOOTH",
"170 566 OFFCURVE",
"176 572 OFFCURVE",
"186 572 CURVE SMOOTH",
"352 572 LINE SMOOTH",
"454 572 OFFCURVE",
"514 523 OFFCURVE",
"514 437 CURVE SMOOTH",
"514 349 OFFCURVE",
"455 302 OFFCURVE",
"352 302 CURVE SMOOTH",
"186 302 LINE SMOOTH"
);
}
);
};
layerId = "11907447-A26F-432E-A335-7727E0303767";
paths = (
{
closed = 1;
nodes = (
"160 0 LINE SMOOTH",
"166 0 OFFCURVE",
"170 4 OFFCURVE",
"170 10 CURVE SMOOTH",
"170 211 LINE SMOOTH",
"170 217 OFFCURVE",
"174 221 OFFCURVE",
"180 221 CURVE SMOOTH",
"362 221 LINE SMOOTH",
"510 221 OFFCURVE",
"605 302 OFFCURVE",
"605 440 CURVE SMOOTH",
"605 584 OFFCURVE",
"508 655 OFFCURVE",
"362 655 CURVE SMOOTH",
"180 655 LINE SMOOTH",
"174 655 OFFCURVE",
"170 659 OFFCURVE",
"170 665 CURVE SMOOTH",
"170 753 LINE SMOOTH",
"170 759 OFFCURVE",
"166 763 OFFCURVE",
"160 763 CURVE SMOOTH",
"89 763 LINE SMOOTH",
"83 763 OFFCURVE",
"79 759 OFFCURVE",
"79 753 CURVE SMOOTH",
"79 10 LINE SMOOTH",
"79 4 OFFCURVE",
"83 0 OFFCURVE",
"89 0 CURVE SMOOTH"
);
},
{
closed = 1;
nodes = (
"174 302 OFFCURVE",
"170 306 OFFCURVE",
"170 312 CURVE SMOOTH",
"170 562 LINE SMOOTH",
"170 568 OFFCURVE",
"174 572 OFFCURVE",
"180 572 CURVE SMOOTH",
"352 572 LINE SMOOTH",
"454 572 OFFCURVE",
"514 523 OFFCURVE",
"514 437 CURVE SMOOTH",
"514 349 OFFCURVE",
"455 302 OFFCURVE",
"352 302 CURVE SMOOTH",
"180 302 LINE SMOOTH"
);
}
);
width = 641;
},
{
anchors = (
{
name = bottom;
position = "{300, 0}";
},
{
name = top;
position = "{300, 763}";
}
);
background = {
anchors = (
{
name = bottom;
position = "{300, 0}";
},
{
name = top;
position = "{300, 763}";
}
);
paths = (
{
closed = 1;
nodes = (
"137 0 LINE SMOOTH",
"143 0 OFFCURVE",
"147 4 OFFCURVE",
"147 10 CURVE SMOOTH",
"147 216 LINE SMOOTH",
"147 222 OFFCURVE",
"151 226 OFFCURVE",
"157 226 CURVE SMOOTH",
"342 226 LINE SMOOTH",
"492 226 OFFCURVE",
"585 305 OFFCURVE",
"585 440 CURVE SMOOTH",
"585 580 OFFCURVE",
"490 653 OFFCURVE",
"342 653 CURVE SMOOTH",
"157 653 LINE SMOOTH",
"151 653 OFFCURVE",
"147 657 OFFCURVE",
"147 663 CURVE SMOOTH",
"147 753 LINE SMOOTH",
"147 759 OFFCURVE",
"143 763 OFFCURVE",
"137 763 CURVE SMOOTH",
"89 763 LINE SMOOTH",
"83 763 OFFCURVE",
"79 759 OFFCURVE",
"79 753 CURVE SMOOTH",
"79 10 LINE SMOOTH",
"79 4 OFFCURVE",
"83 0 OFFCURVE",
"89 0 CURVE SMOOTH"
);
},
{
closed = 1;
nodes = (
"151 287 OFFCURVE",
"147 291 OFFCURVE",
"147 297 CURVE SMOOTH",
"147 581 LINE SMOOTH",
"147 587 OFFCURVE",
"151 591 OFFCURVE",
"157 591 CURVE SMOOTH",
"335 591 LINE SMOOTH",
"450 591 OFFCURVE",
"517 535 OFFCURVE",
"517 438 CURVE SMOOTH",
"517 340 OFFCURVE",
"451 287 OFFCURVE",
"335 287 CURVE SMOOTH",
"157 287 LINE SMOOTH"
);
}
);
};
layerId = "2F4EEC1B-9E89-4E08-AD53-AB625B6E887D";
paths = (
{
closed = 1;
nodes = (
"137 0 LINE SMOOTH",
"143 0 OFFCURVE",
"147 4 OFFCURVE",
"147 10 CURVE SMOOTH",
"147 216 LINE SMOOTH",
"147 222 OFFCURVE",
"151 226 OFFCURVE",
"157 226 CURVE SMOOTH",
"342 226 LINE SMOOTH",
"492 226 OFFCURVE",
"585 305 OFFCURVE",
"585 440 CURVE SMOOTH",
"585 580 OFFCURVE",
"490 653 OFFCURVE",
"342 653 CURVE SMOOTH",
"157 653 LINE SMOOTH",
"151 653 OFFCURVE",
"147 657 OFFCURVE",
"147 663 CURVE SMOOTH",
"147 753 LINE SMOOTH",
"147 759 OFFCURVE",
"143 763 OFFCURVE",
"137 763 CURVE SMOOTH",
"89 763 LINE SMOOTH",
"83 763 OFFCURVE",
"79 759 OFFCURVE",
"79 753 CURVE SMOOTH",
"79 10 LINE SMOOTH",
"79 4 OFFCURVE",
"83 0 OFFCURVE",
"89 0 CURVE SMOOTH"
);
},
{
closed = 1;
nodes = (
"151 287 OFFCURVE",
"147 291 OFFCURVE",
"147 297 CURVE SMOOTH",
"147 581 LINE SMOOTH",
"147 587 OFFCURVE",
"151 591 OFFCURVE",
"157 591 CURVE SMOOTH",
"335 591 LINE SMOOTH",
"450 591 OFFCURVE",
"517 535 OFFCURVE",
"517 438 CURVE SMOOTH",
"517 340 OFFCURVE",
"451 287 OFFCURVE",
"335 287 CURVE SMOOTH",
"157 287 LINE SMOOTH"
);
}
);
width = 628;
}
);
leftKerningGroup = B;
leftMetricsKey = P;
note = Thorn;
rightKerningGroup = Thorn;
unicode = 00DE;
},
{
color = 1;
glyphname = Q;
lastChange = "2020-04-15 11:40:38 +0000";
layers = (
{
anchors = (
{
name = bottom;
position = "{414, 0}";
},
{
name = top;
position = "{414, 763}";
}
);
layerId = "FD6EB2BB-8839-4CDB-86BF-4EEAE3F02079";
paths = (
{
closed = 1;
nodes = (
"761 -87 LINE SMOOTH",
"777 -87 OFFCURVE",
"783 -76 OFFCURVE",
"775 -63 CURVE SMOOTH",
"692 68 LINE SMOOTH",
"686 78 OFFCURVE",
"686 87 OFFCURVE",
"694 96 CURVE SMOOTH",
"761 169 OFFCURVE",
"793 273 OFFCURVE",
"793 382 CURVE SMOOTH",
"793 595 OFFCURVE",
"672 779 OFFCURVE",
"413 779 CURVE SMOOTH",
"152 779 OFFCURVE",
"32 595 OFFCURVE",
"32 382 CURVE SMOOTH",
"32 169 OFFCURVE",
"152 -17 OFFCURVE",
"413 -17 CURVE SMOOTH",
"451 -17 OFFCURVE",
"487 -13 OFFCURVE",
"519 -5 CURVE SMOOTH",
"531 -3 OFFCURVE",
"539 -6 OFFCURVE",
"545 -16 CURVE SMOOTH",
"580 -74 LINE SMOOTH",
"585 -83 OFFCURVE",
"593 -87 OFFCURVE",
"604 -87 CURVE SMOOTH"
);
},
{
closed = 1;
nodes = (
"293 143 OFFCURVE",
"221 237 OFFCURVE",
"221 382 CURVE SMOOTH",
"221 526 OFFCURVE",
"293 619 OFFCURVE",
"413 619 CURVE SMOOTH",
"533 619 OFFCURVE",
"604 526 OFFCURVE",
"604 382 CURVE SMOOTH",
"604 237 OFFCURVE",
"533 143 OFFCURVE",
"413 143 CURVE SMOOTH"
);
}
);
width = 828;
},
{
anchors = (
{
name = bottom;
position = "{406, 0}";
},
{
name = top;
position = "{406, 763}";
}
);
background = {
paths = (
{
closed = 1;
nodes = (
"716 132 OFFCURVE",
"760 252 OFFCURVE",
"760 382 CURVE SMOOTH",
"760 590 OFFCURVE",
"646 773 OFFCURVE",
"404 773 CURVE SMOOTH",
"164 773 OFFCURVE",
"50 590 OFFCURVE",
"50 382 CURVE SMOOTH",
"50 174 OFFCURVE",
"164 -10 OFFCURVE",
"404 -10 CURVE SMOOTH",
"437 -10 OFFCURVE",
"465 -7 OFFCURVE",
"490 -1 CURVE SMOOTH",
"519 6 OFFCURVE",
"545 21 OFFCURVE",
"567 43 CURVE",
"624 60 LINE"
);
},
{
closed = 1;
nodes = (
"142 203 OFFCURVE",
"142 382 CURVE SMOOTH",
"142 560 OFFCURVE",
"235 691 OFFCURVE",
"404 691 CURVE SMOOTH",
"576 691 OFFCURVE",
"668 560 OFFCURVE",
"668 382 CURVE SMOOTH",
"668 203 OFFCURVE",
"576 72 OFFCURVE",
"404 72 CURVE SMOOTH",
"235 72 OFFCURVE"
);
}
);
};
layerId = "11907447-A26F-432E-A335-7727E0303767";
paths = (
{
closed = 1;
nodes = (
"722 -87 LINE SMOOTH",
"730 -87 OFFCURVE",
"732 -82 OFFCURVE",
"728 -75 CURVE SMOOTH",
"641 62 LINE SMOOTH",
"638 67 OFFCURVE",
"638 72 OFFCURVE",
"643 76 CURVE SMOOTH",
"722 149 OFFCURVE",
"760 261 OFFCURVE",
"760 382 CURVE SMOOTH",
"760 590 OFFCURVE",
"646 773 OFFCURVE",
"404 773 CURVE SMOOTH",
"164 773 OFFCURVE",
"50 590 OFFCURVE",
"50 382 CURVE SMOOTH",
"50 174 OFFCURVE",
"164 -10 OFFCURVE",
"404 -10 CURVE SMOOTH",
"460 -10 OFFCURVE",
"510 0 OFFCURVE",
"554 18 CURVE SMOOTH",
"559 21 OFFCURVE",
"564 19 OFFCURVE",
"567 14 CURVE SMOOTH",
"631 -81 LINE SMOOTH",
"634 -86 OFFCURVE",
"638 -87 OFFCURVE",
"643 -87 CURVE SMOOTH"
);
},
{
closed = 1;
nodes = (
"235 73 OFFCURVE",
"142 203 OFFCURVE",
"142 382 CURVE SMOOTH",
"142 560 OFFCURVE",
"235 690 OFFCURVE",
"404 690 CURVE SMOOTH",
"576 690 OFFCURVE",
"668 560 OFFCURVE",
"668 382 CURVE SMOOTH",
"668 203 OFFCURVE",
"576 73 OFFCURVE",
"404 73 CURVE SMOOTH"
);
}
);
width = 812;
},
{
anchors = (
{
name = bottom;
position = "{397, 0}";
},
{
name = top;
position = "{397, 763}";
}
);
layerId = "2F4EEC1B-9E89-4E08-AD53-AB625B6E887D";
paths = (
{
closed = 1;
nodes = (
"702 -87 LINE SMOOTH",
"710 -87 OFFCURVE",
"712 -82 OFFCURVE",
"708 -75 CURVE SMOOTH",
"624 58 LINE SMOOTH",
"621 63 OFFCURVE",
"621 68 OFFCURVE",
"626 72 CURVE SMOOTH",
"705 145 OFFCURVE",
"744 259 OFFCURVE",
"744 382 CURVE SMOOTH",
"744 590 OFFCURVE",
"632 773 OFFCURVE",
"397 773 CURVE SMOOTH",
"162 773 OFFCURVE",
"50 590 OFFCURVE",
"50 382 CURVE SMOOTH",
"50 174 OFFCURVE",
"162 -10 OFFCURVE",
"397 -10 CURVE SMOOTH",
"457 -10 OFFCURVE",
"510 2 OFFCURVE",
"555 24 CURVE SMOOTH",
"560 27 OFFCURVE",
"565 25 OFFCURVE",
"568 20 CURVE SMOOTH",
"633 -80 LINE SMOOTH",
"636 -84 OFFCURVE",
"640 -87 OFFCURVE",
"645 -87 CURVE SMOOTH"
);
},
{
closed = 1;
nodes = (
"214 52 OFFCURVE",
"119 195 OFFCURVE",
"119 382 CURVE SMOOTH",
"119 568 OFFCURVE",
"214 711 OFFCURVE",
"397 711 CURVE SMOOTH",
"580 711 OFFCURVE",
"675 568 OFFCURVE",
"675 382 CURVE SMOOTH",
"675 195 OFFCURVE",
"580 52 OFFCURVE",
"397 52 CURVE SMOOTH"
);
}
);
width = 794;
}
);
leftKerningGroup = C;
note = Q;
rightKerningGroup = Q;
unicode = 0051;
},
{
color = 1;
glyphname = R;
lastChange = "2020-04-15 11:47:04 +0000";
layers = (
{
anchors = (
{
name = bottom;
position = "{367, 0}";
},
{
name = top;
position = "{342, 763}";
}
);
layerId = "FD6EB2BB-8839-4CDB-86BF-4EEAE3F02079";
paths = (
{
closed = 1;
nodes = (
"219 0 LINE SMOOTH",
"232 0 OFFCURVE",
"239 7 OFFCURVE",
"239 20 CURVE SMOOTH",
"239 274 LINE SMOOTH",
"239 287 OFFCURVE",
"246 294 OFFCURVE",
"259 294 CURVE SMOOTH",
"367 294 LINE SMOOTH",
"378 294 OFFCURVE",
"386 288 OFFCURVE",
"390 278 CURVE SMOOTH",
"489 16 LINE SMOOTH",
"493 6 OFFCURVE",
"501 0 OFFCURVE",
"512 0 CURVE SMOOTH",
"659 0 LINE SMOOTH",
"674 0 OFFCURVE",
"680 9 OFFCURVE",
"675 23 CURVE SMOOTH",
"559 310 LINE SMOOTH",
"555 321 OFFCURVE",
"557 330 OFFCURVE",
"568 337 CURVE SMOOTH",
"625 376 OFFCURVE",
"661 444 OFFCURVE",
"661 533 CURVE SMOOTH",
"661 699 OFFCURVE",
"560 763 OFFCURVE",
"420 763 CURVE SMOOTH",
"80 763 LINE SMOOTH",
"67 763 OFFCURVE",
"60 756 OFFCURVE",
"60 743 CURVE SMOOTH",
"60 20 LINE SMOOTH",
"60 7 OFFCURVE",
"67 0 OFFCURVE",
"80 0 CURVE SMOOTH"
);
},
{
closed = 1;
nodes = (
"246 449 OFFCURVE",
"239 456 OFFCURVE",
"239 469 CURVE SMOOTH",
"239 583 LINE SMOOTH",
"239 596 OFFCURVE",
"246 603 OFFCURVE",
"259 603 CURVE SMOOTH",
"395 603 LINE SMOOTH",
"453 603 OFFCURVE",
"484 577 OFFCURVE",
"484 527 CURVE SMOOTH",
"484 475 OFFCURVE",
"453 449 OFFCURVE",
"395 449 CURVE SMOOTH",
"259 449 LINE SMOOTH"
);
}
);
width = 708;
},
{
anchors = (
{
name = bottom;
position = "{344, 0}";
},
{
name = top;
position = "{321, 763}";
}
);
layerId = "11907447-A26F-432E-A335-7727E0303767";
paths = (
{
closed = 1;
nodes = (
"161 0 LINE SMOOTH",
"167 0 OFFCURVE",
"171 4 OFFCURVE",
"171 10 CURVE SMOOTH",
"171 312 LINE SMOOTH",
"171 318 OFFCURVE",
"175 322 OFFCURVE",
"181 322 CURVE SMOOTH",
"371 322 LINE SMOOTH",
"376 322 OFFCURVE",
"380 320 OFFCURVE",
"382 314 CURVE SMOOTH",
"511 8 LINE SMOOTH",
"513 2 OFFCURVE",
"517 0 OFFCURVE",
"522 0 CURVE SMOOTH",
"602 0 LINE SMOOTH",
"609 0 OFFCURVE",
"613 5 OFFCURVE",
"610 12 CURVE SMOOTH",
"472 330 LINE SMOOTH",
"470 336 OFFCURVE",
"471 340 OFFCURVE",
"478 343 CURVE SMOOTH",
"558 375 OFFCURVE",
"605 446 OFFCURVE",
"605 545 CURVE SMOOTH",
"605 692 OFFCURVE",
"509 763 OFFCURVE",
"363 763 CURVE SMOOTH",
"89 763 LINE SMOOTH",
"83 763 OFFCURVE",
"79 759 OFFCURVE",
"79 753 CURVE SMOOTH",
"79 10 LINE SMOOTH",
"79 4 OFFCURVE",
"83 0 OFFCURVE",
"89 0 CURVE SMOOTH"
);
},
{
closed = 1;
nodes = (
"175 404 OFFCURVE",
"171 408 OFFCURVE",
"171 414 CURVE SMOOTH",
"171 670 LINE SMOOTH",
"171 676 OFFCURVE",
"175 680 OFFCURVE",
"181 680 CURVE SMOOTH",
"351 680 LINE SMOOTH",
"454 680 OFFCURVE",
"514 630 OFFCURVE",
"514 542 CURVE SMOOTH",
"514 453 OFFCURVE",
"456 404 OFFCURVE",
"351 404 CURVE SMOOTH",
"181 404 LINE SMOOTH"
);
}
);
width = 660;
},
{
anchors = (
{
name = bottom;
position = "{333, 0}";
},
{
name = top;
position = "{310, 763}";
}
);
layerId = "2F4EEC1B-9E89-4E08-AD53-AB625B6E887D";
paths = (
{
closed = 1;
nodes = (
"138 0 LINE SMOOTH",
"144 0 OFFCURVE",
"148 4 OFFCURVE",
"148 10 CURVE SMOOTH",
"148 322 LINE SMOOTH",
"148 328 OFFCURVE",
"152 332 OFFCURVE",
"158 332 CURVE SMOOTH",
"364 332 LINE SMOOTH",
"369 332 OFFCURVE",
"373 330 OFFCURVE",
"375 324 CURVE SMOOTH",
"513 8 LINE SMOOTH",
"515 2 OFFCURVE",
"519 0 OFFCURVE",
"524 0 CURVE SMOOTH",
"579 0 LINE SMOOTH",
"586 0 OFFCURVE",
"590 5 OFFCURVE",
"587 12 CURVE SMOOTH",
"444 335 LINE SMOOTH",
"441 342 OFFCURVE",
"444 346 OFFCURVE",
"450 348 CURVE SMOOTH",
"535 378 OFFCURVE",
"585 448 OFFCURVE",
"585 548 CURVE SMOOTH",
"585 690 OFFCURVE",
"490 763 OFFCURVE",
"343 763 CURVE SMOOTH",
"89 763 LINE SMOOTH",
"83 763 OFFCURVE",
"79 759 OFFCURVE",
"79 753 CURVE SMOOTH",
"79 10 LINE SMOOTH",
"79 4 OFFCURVE",
"83 0 OFFCURVE",
"89 0 CURVE SMOOTH"
);
},
{
closed = 1;
nodes = (
"152 392 OFFCURVE",
"148 396 OFFCURVE",
"148 402 CURVE SMOOTH",
"148 691 LINE SMOOTH",
"148 697 OFFCURVE",
"152 701 OFFCURVE",
"158 701 CURVE SMOOTH",
"334 701 LINE SMOOTH",
"450 701 OFFCURVE",
"517 644 OFFCURVE",
"517 546 CURVE SMOOTH",
"517 447 OFFCURVE",
"452 392 OFFCURVE",
"334 392 CURVE SMOOTH",
"158 392 LINE SMOOTH"
);
}
);
width = 639;
}
);
leftKerningGroup = B;
note = R;
rightKerningGroup = R;
unicode = 0052;
},
{
color = 1;
glyphname = S;
lastChange = "2020-04-15 11:41:03 +0000";
layers = (
{
anchors = (
{
name = bottom;
position = "{356, 0}";
},
{
name = top;
position = "{356, 763}";
}
);
background = {
paths = (
{
closed = 1;
nodes = (
"566 -17 OFFCURVE",
"679 77 OFFCURVE",
"679 227 CURVE SMOOTH",
"679 524 OFFCURVE",
"229 424 OFFCURVE",
"229 561 CURVE SMOOTH",
"229 609 OFFCURVE",
"279 629 OFFCURVE",
"330 629 CURVE SMOOTH",
"405 629 OFFCURVE",
"457 590 OFFCURVE",
"475 525 CURVE",
"660 525 LINE",
"636 695 OFFCURVE",
"494 779 OFFCURVE",
"334 779 CURVE SMOOTH",
"178 779 OFFCURVE",
"51 704 OFFCURVE",
"51 546 CURVE SMOOTH",
"51 258 OFFCURVE",
"499 363 OFFCURVE",
"499 218 CURVE SMOOTH",
"499 158 OFFCURVE",
"441 133 OFFCURVE",
"380 133 CURVE SMOOTH",
"311 133 OFFCURVE",
"242 159 OFFCURVE",
"216 259 CURVE",
"31 259 LINE",
"45 45 OFFCURVE",
"237 -17 OFFCURVE",
"381 -17 CURVE SMOOTH"
);
}
);
};
guideLines = (
{
position = "{419, 525}";
},
{
position = "{119, 259}";
}
);
layerId = "FD6EB2BB-8839-4CDB-86BF-4EEAE3F02079";
paths = (
{
closed = 1;
nodes = (
"566 -17 OFFCURVE",
"679 77 OFFCURVE",
"679 227 CURVE SMOOTH",
"679 404 OFFCURVE",
"519 440 OFFCURVE",
"390 469 CURVE SMOOTH",
"303 489 OFFCURVE",
"229 506 OFFCURVE",
"229 561 CURVE SMOOTH",
"229 609 OFFCURVE",
"279 629 OFFCURVE",
"330 629 CURVE SMOOTH",
"398 629 OFFCURVE",
"448 597 OFFCURVE",
"470 541 CURVE SMOOTH",
"474 530 OFFCURVE",
"481 525 OFFCURVE",
"492 525 CURVE SMOOTH",
"638 525 LINE SMOOTH",
"651 525 OFFCURVE",
"659 533 OFFCURVE",
"656 547 CURVE SMOOTH",
"624 702 OFFCURVE",
"487 779 OFFCURVE",
"334 779 CURVE SMOOTH",
"178 779 OFFCURVE",
"51 704 OFFCURVE",
"51 546 CURVE SMOOTH",
"51 378 OFFCURVE",
"204 344 OFFCURVE",
"332 315 CURVE SMOOTH",
"422 295 OFFCURVE",
"499 278 OFFCURVE",
"499 218 CURVE SMOOTH",
"499 158 OFFCURVE",
"441 133 OFFCURVE",
"380 133 CURVE SMOOTH",
"315 133 OFFCURVE",
"250 156 OFFCURVE",
"221 242 CURVE SMOOTH",
"217 253 OFFCURVE",
"210 259 OFFCURVE",
"199 259 CURVE SMOOTH",
"52 259 LINE SMOOTH",
"39 259 OFFCURVE",
"31 251 OFFCURVE",
"33 238 CURVE SMOOTH",
"58 41 OFFCURVE",
"242 -17 OFFCURVE",
"381 -17 CURVE SMOOTH"
);
}
);
width = 712;
},
{
anchors = (
{
name = bottom;
position = "{336, 0}";
},
{
name = top;
position = "{336, 763}";
}
);
background = {
guideLines = (
{
angle = 180;
position = "{555, 552}";
},
{
position = "{669, 231}";
}
);
paths = (
{
closed = 1;
nodes = (
"529 -10 OFFCURVE",
"622 78 OFFCURVE",
"622 213 CURVE SMOOTH",
"622 517 OFFCURVE",
"165 365 OFFCURVE",
"165 571 CURVE SMOOTH",
"165 644 OFFCURVE",
"219 691 OFFCURVE",
"322 691 CURVE SMOOTH",
"406 691 OFFCURVE",
"489 657 OFFCURVE",
"511 553 CURVE",
"600 553 LINE",
"575 710 OFFCURVE",
"452 773 OFFCURVE",
"323 773 CURVE SMOOTH",
"174 773 OFFCURVE",
"73 693 OFFCURVE",
"73 563 CURVE SMOOTH",
"73 278 OFFCURVE",
"530 438 OFFCURVE",
"530 207 CURVE SMOOTH",
"530 116 OFFCURVE",
"466 72 OFFCURVE",
"359 72 CURVE SMOOTH",
"264 72 OFFCURVE",
"159 109 OFFCURVE",
"135 231 CURVE",
"42 231 LINE",
"68 60 OFFCURVE",
"204 -10 OFFCURVE",
"355 -10 CURVE SMOOTH"
);
}
);
};
guideLines = (
{
angle = 180;
position = "{555, 552}";
},
{
position = "{669, 231}";
}
);
layerId = "11907447-A26F-432E-A335-7727E0303767";
paths = (
{
closed = 1;
nodes = (
"529 -10 OFFCURVE",
"622 78 OFFCURVE",
"622 213 CURVE SMOOTH",
"622 380 OFFCURVE",
"485 409 OFFCURVE",
"360 436 CURVE SMOOTH",
"258 458 OFFCURVE",
"165 478 OFFCURVE",
"165 571 CURVE SMOOTH",
"165 644 OFFCURVE",
"219 691 OFFCURVE",
"322 691 CURVE SMOOTH",
"404 691 OFFCURVE",
"484 659 OFFCURVE",
"509 562 CURVE SMOOTH",
"510 556 OFFCURVE",
"514 553 OFFCURVE",
"520 553 CURVE SMOOTH",
"589 553 LINE SMOOTH",
"596 553 OFFCURVE",
"599 557 OFFCURVE",
"598 564 CURVE SMOOTH",
"569 713 OFFCURVE",
"449 773 OFFCURVE",
"323 773 CURVE SMOOTH",
"174 773 OFFCURVE",
"73 693 OFFCURVE",
"73 563 CURVE SMOOTH",
"73 413 OFFCURVE",
"200 386 OFFCURVE",
"319 361 CURVE SMOOTH",
"427 338 OFFCURVE",
"530 316 OFFCURVE",
"530 207 CURVE SMOOTH",
"530 116 OFFCURVE",
"466 72 OFFCURVE",
"359 72 CURVE SMOOTH",
"266 72 OFFCURVE",
"164 107 OFFCURVE",
"137 222 CURVE SMOOTH",
"136 228 OFFCURVE",
"132 231 OFFCURVE",
"126 231 CURVE SMOOTH",
"53 231 LINE SMOOTH",
"46 231 OFFCURVE",
"43 227 OFFCURVE",
"44 220 CURVE SMOOTH",
"74 57 OFFCURVE",
"207 -10 OFFCURVE",
"355 -10 CURVE SMOOTH"
);
}
);
width = 673;
},
{
anchors = (
{
name = bottom;
position = "{326, 0}";
},
{
name = top;
position = "{326, 763}";
}
);
background = {
paths = (
{
closed = 1;
nodes = (
"512 -10 OFFCURVE",
"604 80 OFFCURVE",
"604 213 CURVE SMOOTH",
"604 513 OFFCURVE",
"142 359 OFFCURVE",
"142 577 CURVE SMOOTH",
"142 660 OFFCURVE",
"216 711 OFFCURVE",
"320 711 CURVE SMOOTH",
"418 711 OFFCURVE",
"492 671 OFFCURVE",
"513 562 CURVE",
"579 562 LINE",
"555 711 OFFCURVE",
"454 773 OFFCURVE",
"321 773 CURVE SMOOTH",
"179 773 OFFCURVE",
"73 695 OFFCURVE",
"73 572 CURVE SMOOTH",
"73 290 OFFCURVE",
"535 449 OFFCURVE",
"535 210 CURVE SMOOTH",
"535 111 OFFCURVE",
"465 52 OFFCURVE",
"344 52 CURVE SMOOTH",
"242 52 OFFCURVE",
"135 91 OFFCURVE",
"113 216 CURVE",
"43 216 LINE",
"68 55 OFFCURVE",
"195 -10 OFFCURVE",
"339 -10 CURVE SMOOTH"
);
}
);
};
layerId = "2F4EEC1B-9E89-4E08-AD53-AB625B6E887D";
paths = (
{
closed = 1;
nodes = (
"512 -10 OFFCURVE",
"604 80 OFFCURVE",
"604 213 CURVE SMOOTH",
"604 375 OFFCURVE",
"469 405 OFFCURVE",
"345 432 CURVE SMOOTH",
"240 455 OFFCURVE",
"142 477 OFFCURVE",
"142 577 CURVE SMOOTH",
"142 660 OFFCURVE",
"216 711 OFFCURVE",
"320 711 CURVE SMOOTH",
"415 711 OFFCURVE",
"488 673 OFFCURVE",
"511 571 CURVE SMOOTH",
"512 565 OFFCURVE",
"516 562 OFFCURVE",
"522 562 CURVE SMOOTH",
"568 562 LINE SMOOTH",
"575 562 OFFCURVE",
"578 566 OFFCURVE",
"577 573 CURVE SMOOTH",
"550 714 OFFCURVE",
"451 773 OFFCURVE",
"321 773 CURVE SMOOTH",
"179 773 OFFCURVE",
"73 695 OFFCURVE",
"73 572 CURVE SMOOTH",
"73 425 OFFCURVE",
"198 398 OFFCURVE",
"318 372 CURVE SMOOTH",
"429 348 OFFCURVE",
"535 325 OFFCURVE",
"535 210 CURVE SMOOTH",
"535 111 OFFCURVE",
"465 52 OFFCURVE",
"344 52 CURVE SMOOTH",
"245 52 OFFCURVE",
"140 89 OFFCURVE",
"115 207 CURVE SMOOTH",
"113 213 OFFCURVE",
"110 216 OFFCURVE",
"104 216 CURVE SMOOTH",
"54 216 LINE SMOOTH",
"47 216 OFFCURVE",
"44 212 OFFCURVE",
"45 205 CURVE SMOOTH",
"74 52 OFFCURVE",
"198 -10 OFFCURVE",
"339 -10 CURVE SMOOTH"
);
}
);
width = 653;
}
);
leftKerningGroup = S;
note = S;
rightKerningGroup = S;
unicode = 0053;
},
{
color = 1;
glyphname = Germandbls;
lastChange = "2020-04-15 11:41:09 +0000";
layers = (
{
anchors = (
{
name = bottom;
position = "{328, 0}";
},
{
name = top;
position = "{328, 763}";
}
);
background = {
paths = (
{
closed = 0;
nodes = (
"400 433 LINE SMOOTH"
);
}
);
};
layerId = "2F4EEC1B-9E89-4E08-AD53-AB625B6E887D";
paths = (
{
closed = 1;
nodes = (
"138 0 LINE SMOOTH",
"144 0 OFFCURVE",
"148 4 OFFCURVE",
"148 10 CURVE SMOOTH",
"148 452 LINE SMOOTH",
"148 557 OFFCURVE",
"164 615 OFFCURVE",
"193 652 CURVE SMOOTH",
"226 694 OFFCURVE",
"274 711 OFFCURVE",
"334 711 CURVE SMOOTH",
"407 711 OFFCURVE",
"444 696 OFFCURVE",
"488 662 CURVE SMOOTH",
"493 657 OFFCURVE",
"493 652 OFFCURVE",
"488 648 CURVE SMOOTH",
"300 462 LINE SMOOTH",
"297 459 OFFCURVE",
"295 455 OFFCURVE",
"295 450 CURVE SMOOTH",
"295 381 LINE SMOOTH",
"295 375 OFFCURVE",
"299 371 OFFCURVE",
"305 371 CURVE SMOOTH",
"391 371 LINE SMOOTH",
"454 371 OFFCURVE",
"557 352 OFFCURVE",
"557 215 CURVE SMOOTH",
"557 81 OFFCURVE",
"440 62 OFFCURVE",
"364 62 CURVE SMOOTH",
"250 62 LINE SMOOTH",
"244 62 OFFCURVE",
"240 58 OFFCURVE",
"240 52 CURVE SMOOTH",
"240 10 LINE SMOOTH",
"240 4 OFFCURVE",
"244 0 OFFCURVE",
"250 0 CURVE SMOOTH",
"371 0 LINE SMOOTH",
"489 0 OFFCURVE",
"626 45 OFFCURVE",
"626 221 CURVE SMOOTH",
"626 367 OFFCURVE",
"519 433 OFFCURVE",
"400 433 CURVE SMOOTH",
"389 433 OFFCURVE",
"379 433 OFFCURVE",
"368 432 CURVE SMOOTH",
"358 431 OFFCURVE",
"356 437 OFFCURVE",
"362 443 CURVE SMOOTH",
"553 630 LINE SMOOTH",
"556 633 OFFCURVE",
"558 637 OFFCURVE",
"558 642 CURVE SMOOTH",
"558 681 LINE SMOOTH",
"558 686 OFFCURVE",
"556 689 OFFCURVE",
"552 693 CURVE SMOOTH",
"483 752 OFFCURVE",
"418 773 OFFCURVE",
"334 773 CURVE SMOOTH",
"245 773 OFFCURVE",
"182 747 OFFCURVE",
"140 697 CURVE SMOOTH",
"98 646 OFFCURVE",
"79 571 OFFCURVE",
"79 452 CURVE SMOOTH",
"79 10 LINE SMOOTH",
"79 4 OFFCURVE",
"83 0 OFFCURVE",
"89 0 CURVE SMOOTH"
);
}
);
width = 677;
},
{
anchors = (
{
name = bottom;
position = "{334, 0}";
},
{
name = top;
position = "{334, 763}";
}
);
layerId = "11907447-A26F-432E-A335-7727E0303767";
paths = (
{
closed = 1;
nodes = (
"161 0 LINE SMOOTH",
"167 0 OFFCURVE",
"171 4 OFFCURVE",
"171 10 CURVE SMOOTH",
"171 507 LINE SMOOTH",
"171 584 OFFCURVE",
"190 627 OFFCURVE",
"221 654 CURVE SMOOTH",
"251 680 OFFCURVE",
"292 690 OFFCURVE",
"337 690 CURVE SMOOTH",
"395 690 OFFCURVE",
"450 675 OFFCURVE",
"490 643 CURVE SMOOTH",
"495 639 OFFCURVE",
"496 633 OFFCURVE",
"491 629 CURVE SMOOTH",
"345 486 LINE SMOOTH",
"342 483 OFFCURVE",
"340 479 OFFCURVE",
"340 474 CURVE SMOOTH",
"340 370 LINE SMOOTH",
"340 364 OFFCURVE",
"344 360 OFFCURVE",
"350 360 CURVE SMOOTH",
"388 360 LINE SMOOTH",
"430 360 OFFCURVE",
"547 360 OFFCURVE",
"547 221 CURVE SMOOTH",
"547 83 OFFCURVE",
"414 83 OFFCURVE",
"368 83 CURVE SMOOTH",
"281 83 LINE SMOOTH",
"275 83 OFFCURVE",
"271 79 OFFCURVE",
"271 73 CURVE SMOOTH",
"271 10 LINE SMOOTH",
"271 4 OFFCURVE",
"275 0 OFFCURVE",
"281 0 CURVE SMOOTH",
"378 0 LINE SMOOTH",
"481 0 OFFCURVE",
"639 35 OFFCURVE",
"639 215 CURVE SMOOTH",
"639 334 OFFCURVE",
"579 410 OFFCURVE",
"468 430 CURVE SMOOTH",
"455 432 OFFCURVE",
"442 433 OFFCURVE",
"428 434 CURVE SMOOTH",
"419 434 OFFCURVE",
"416 439 OFFCURVE",
"423 446 CURVE SMOOTH",
"573 595 LINE SMOOTH",
"576 598 OFFCURVE",
"578 602 OFFCURVE",
"578 607 CURVE SMOOTH",
"578 668 LINE SMOOTH",
"578 673 OFFCURVE",
"576 676 OFFCURVE",
"573 680 CURVE SMOOTH",
"507 738 OFFCURVE",
"442 773 OFFCURVE",
"337 773 CURVE SMOOTH",
"266 773 OFFCURVE",
"207 756 OFFCURVE",
"164 722 CURVE SMOOTH",
"109 679 OFFCURVE",
"79 611 OFFCURVE",
"79 507 CURVE SMOOTH",
"79 10 LINE SMOOTH",
"79 4 OFFCURVE",
"83 0 OFFCURVE",
"89 0 CURVE SMOOTH"
);
}
);
width = 690;
},
{
anchors = (
{
name = bottom;
position = "{338, 0}";
},
{
name = top;
position = "{338, 763}";
}
);
layerId = "FD6EB2BB-8839-4CDB-86BF-4EEAE3F02079";
paths = (
{
closed = 1;
nodes = (
"219 0 LINE SMOOTH",
"232 0 OFFCURVE",
"239 7 OFFCURVE",
"239 20 CURVE SMOOTH",
"239 450 LINE SMOOTH",
"239 525 OFFCURVE",
"251 561 OFFCURVE",
"269 583 CURVE SMOOTH",
"292 611 OFFCURVE",
"324 619 OFFCURVE",
"359 619 CURVE SMOOTH",
"391 619 OFFCURVE",
"417 609 OFFCURVE",
"438 596 CURVE SMOOTH",
"450 588 OFFCURVE",
"450 577 OFFCURVE",
"440 568 CURVE SMOOTH",
"332 462 LINE SMOOTH",
"325 455 OFFCURVE",
"322 447 OFFCURVE",
"322 437 CURVE SMOOTH",
"322 335 LINE SMOOTH",
"322 322 OFFCURVE",
"329 315 OFFCURVE",
"342 315 CURVE SMOOTH",
"387 315 LINE SMOOTH",
"458 315 OFFCURVE",
"491 290 OFFCURVE",
"491 240 CURVE SMOOTH",
"491 191 OFFCURVE",
"463 160 OFFCURVE",
"394 160 CURVE SMOOTH",
"319 160 LINE SMOOTH",
"306 160 OFFCURVE",
"299 153 OFFCURVE",
"299 140 CURVE SMOOTH",
"299 20 LINE SMOOTH",
"299 7 OFFCURVE",
"306 0 OFFCURVE",
"319 0 CURVE SMOOTH",
"386 0 LINE SMOOTH",
"444 0 OFFCURVE",
"670 10 OFFCURVE",
"670 236 CURVE SMOOTH",
"670 326 OFFCURVE",
"632 387 OFFCURVE",
"564 417 CURVE SMOOTH",
"552 422 OFFCURVE",
"539 427 OFFCURVE",
"524 430 CURVE SMOOTH",
"508 434 OFFCURVE",
"504 444 OFFCURVE",
"516 456 CURVE SMOOTH",
"589 525 LINE SMOOTH",
"596 532 OFFCURVE",
"599 540 OFFCURVE",
"599 550 CURVE SMOOTH",
"599 671 LINE SMOOTH",
"599 681 OFFCURVE",
"596 689 OFFCURVE",
"588 696 CURVE SMOOTH",
"533 743 OFFCURVE",
"455 779 OFFCURVE",
"359 779 CURVE SMOOTH",
"250 779 OFFCURVE",
"178 751 OFFCURVE",
"131 701 CURVE SMOOTH",
"80 646 OFFCURVE",
"60 567 OFFCURVE",
"60 450 CURVE SMOOTH",
"60 20 LINE SMOOTH",
"60 7 OFFCURVE",
"67 0 OFFCURVE",
"80 0 CURVE SMOOTH"
);
}
);
width = 703;
}
);
leftMetricsKey = I;
rightMetricsKey = B;
unicode = 1E9E;
},
{
color = 1;
glyphname = T;
lastChange = "2020-04-15 11:41:15 +0000";
layers = (
{
anchors = (
{
name = bottom;
position = "{313, 0}";
},
{
name = center;
position = "{313, 382}";
},
{
name = top;
position = "{313, 763}";
}
);
background = {
anchors = (
{
name = bottom;
position = "{313, 0}";
},
{
name = center;
position = "{313, 382}";
},
{
name = top;
position = "{313, 763}";
}
);
paths = (
{
closed = 1;
nodes = (
"386 0 LINE SMOOTH",
"396 0 OFFCURVE",
"402 6 OFFCURVE",
"402 16 CURVE SMOOTH",
"402 587 LINE SMOOTH",
"402 597 OFFCURVE",
"408 603 OFFCURVE",
"418 603 CURVE SMOOTH",
"601 603 LINE SMOOTH",
"611 603 OFFCURVE",
"617 609 OFFCURVE",
"617 619 CURVE SMOOTH",
"617 747 LINE SMOOTH",
"617 757 OFFCURVE",
"611 763 OFFCURVE",
"601 763 CURVE SMOOTH",
"24 763 LINE SMOOTH",
"14 763 OFFCURVE",
"8 757 OFFCURVE",
"8 747 CURVE SMOOTH",
"8 619 LINE SMOOTH",
"8 609 OFFCURVE",
"14 603 OFFCURVE",
"24 603 CURVE SMOOTH",
"207 603 LINE SMOOTH",
"217 603 OFFCURVE",
"223 597 OFFCURVE",
"223 587 CURVE SMOOTH",
"223 16 LINE SMOOTH",
"223 6 OFFCURVE",
"229 0 OFFCURVE",
"239 0 CURVE SMOOTH"
);
}
);
};
layerId = "FD6EB2BB-8839-4CDB-86BF-4EEAE3F02079";
paths = (
{
closed = 1;
nodes = (
"382 0 LINE SMOOTH",
"395 0 OFFCURVE",
"402 7 OFFCURVE",
"402 20 CURVE SMOOTH",
"402 583 LINE SMOOTH",
"402 596 OFFCURVE",
"409 603 OFFCURVE",
"422 603 CURVE SMOOTH",
"597 603 LINE SMOOTH",
"610 603 OFFCURVE",
"617 610 OFFCURVE",
"617 623 CURVE SMOOTH",
"617 743 LINE SMOOTH",
"617 756 OFFCURVE",
"610 763 OFFCURVE",
"597 763 CURVE SMOOTH",
"28 763 LINE SMOOTH",
"15 763 OFFCURVE",
"8 756 OFFCURVE",
"8 743 CURVE SMOOTH",
"8 623 LINE SMOOTH",
"8 610 OFFCURVE",
"15 603 OFFCURVE",
"28 603 CURVE SMOOTH",
"203 603 LINE SMOOTH",
"216 603 OFFCURVE",
"223 596 OFFCURVE",
"223 583 CURVE SMOOTH",
"223 20 LINE SMOOTH",
"223 7 OFFCURVE",
"230 0 OFFCURVE",
"243 0 CURVE SMOOTH"
);
}
);
width = 625;
},
{
anchors = (
{
name = bottom;
position = "{319, 0}";
},
{
name = center;
position = "{319, 382}";
},
{
name = top;
position = "{319, 763}";
}
);
background = {
anchors = (
{
name = bottom;
position = "{319, 0}";
},
{
name = center;
position = "{319, 382}";
},
{
name = top;
position = "{319, 763}";
}
);
paths = (
{
closed = 1;
nodes = (
"348 0 LINE SMOOTH",
"358 0 OFFCURVE",
"364 6 OFFCURVE",
"364 16 CURVE SMOOTH",
"364 664 LINE SMOOTH",
"364 674 OFFCURVE",
"370 680 OFFCURVE",
"380 680 CURVE SMOOTH",
"607 680 LINE SMOOTH",
"617 680 OFFCURVE",
"623 686 OFFCURVE",
"623 696 CURVE SMOOTH",
"623 747 LINE SMOOTH",
"623 757 OFFCURVE",
"617 763 OFFCURVE",
"607 763 CURVE SMOOTH",
"30 763 LINE SMOOTH",
"20 763 OFFCURVE",
"14 757 OFFCURVE",
"14 747 CURVE SMOOTH",
"14 696 LINE SMOOTH",
"14 686 OFFCURVE",
"20 680 OFFCURVE",
"30 680 CURVE SMOOTH",
"256 680 LINE SMOOTH",
"266 680 OFFCURVE",
"272 674 OFFCURVE",
"272 664 CURVE SMOOTH",
"272 16 LINE SMOOTH",
"272 6 OFFCURVE",
"278 0 OFFCURVE",
"288 0 CURVE SMOOTH"
);
}
);
};
layerId = "11907447-A26F-432E-A335-7727E0303767";
paths = (
{
closed = 1;
nodes = (
"354 0 LINE SMOOTH",
"360 0 OFFCURVE",
"364 4 OFFCURVE",
"364 10 CURVE SMOOTH",
"364 670 LINE SMOOTH",
"364 676 OFFCURVE",
"368 680 OFFCURVE",
"374 680 CURVE SMOOTH",
"613 680 LINE SMOOTH",
"619 680 OFFCURVE",
"623 684 OFFCURVE",
"623 690 CURVE SMOOTH",
"623 753 LINE SMOOTH",
"623 759 OFFCURVE",
"619 763 OFFCURVE",
"613 763 CURVE SMOOTH",
"24 763 LINE SMOOTH",
"18 763 OFFCURVE",
"14 759 OFFCURVE",
"14 753 CURVE SMOOTH",
"14 690 LINE SMOOTH",
"14 684 OFFCURVE",
"18 680 OFFCURVE",
"24 680 CURVE SMOOTH",
"262 680 LINE SMOOTH",
"268 680 OFFCURVE",
"272 676 OFFCURVE",
"272 670 CURVE SMOOTH",
"272 10 LINE SMOOTH",
"272 4 OFFCURVE",
"276 0 OFFCURVE",
"282 0 CURVE SMOOTH"
);
}
);
width = 637;
},
{
anchors = (
{
name = bottom;
position = "{317, 0}";
},
{
name = center;
position = "{317, 382}";
},
{
name = top;
position = "{317, 763}";
}
);
background = {
anchors = (
{
name = bottom;
position = "{317, 0}";
},
{
name = center;
position = "{317, 382}";
},
{
name = top;
position = "{317, 763}";
}
);
paths = (
{
closed = 1;
nodes = (
"341 0 LINE SMOOTH",
"347 0 OFFCURVE",
"351 4 OFFCURVE",
"351 10 CURVE SMOOTH",
"351 691 LINE SMOOTH",
"351 697 OFFCURVE",
"355 701 OFFCURVE",
"361 701 CURVE SMOOTH",
"610 701 LINE SMOOTH",
"616 701 OFFCURVE",
"620 705 OFFCURVE",
"620 711 CURVE SMOOTH",
"620 753 LINE SMOOTH",
"620 759 OFFCURVE",
"616 763 OFFCURVE",
"610 763 CURVE SMOOTH",
"24 763 LINE SMOOTH",
"18 763 OFFCURVE",
"14 759 OFFCURVE",
"14 753 CURVE SMOOTH",
"14 711 LINE SMOOTH",
"14 705 OFFCURVE",
"18 701 OFFCURVE",
"24 701 CURVE SMOOTH",
"272 701 LINE SMOOTH",
"278 701 OFFCURVE",
"282 697 OFFCURVE",
"282 691 CURVE SMOOTH",
"282 10 LINE SMOOTH",
"282 4 OFFCURVE",
"286 0 OFFCURVE",
"292 0 CURVE SMOOTH"
);
}
);
};
layerId = "2F4EEC1B-9E89-4E08-AD53-AB625B6E887D";
paths = (
{
closed = 1;
nodes = (
"341 0 LINE SMOOTH",
"347 0 OFFCURVE",
"351 4 OFFCURVE",
"351 10 CURVE SMOOTH",
"351 691 LINE SMOOTH",
"351 697 OFFCURVE",
"355 701 OFFCURVE",
"361 701 CURVE SMOOTH",
"610 701 LINE SMOOTH",
"616 701 OFFCURVE",
"620 705 OFFCURVE",
"620 711 CURVE SMOOTH",
"620 753 LINE SMOOTH",
"620 759 OFFCURVE",
"616 763 OFFCURVE",
"610 763 CURVE SMOOTH",
"24 763 LINE SMOOTH",
"18 763 OFFCURVE",
"14 759 OFFCURVE",
"14 753 CURVE SMOOTH",
"14 711 LINE SMOOTH",
"14 705 OFFCURVE",
"18 701 OFFCURVE",
"24 701 CURVE SMOOTH",
"272 701 LINE SMOOTH",
"278 701 OFFCURVE",
"282 697 OFFCURVE",
"282 691 CURVE SMOOTH",
"282 10 LINE SMOOTH",
"282 4 OFFCURVE",
"286 0 OFFCURVE",
"292 0 CURVE SMOOTH"
);
}
);
width = 634;
}
);
leftKerningGroup = T;
note = T;
rightKerningGroup = T;
unicode = 0054;
},
{
color = 1;
glyphname = U;
lastChange = "2020-07-09 08:31:42 +0000";
layers = (
{
anchors = (
{
name = bottom;
position = "{377, 0}";
},
{
name = ogonek;
position = "{473, 0}";
},
{
name = top;
position = "{377, 763}";
},
{
name = topright;
position = "{751, 763}";
}
);
background = {
anchors = (
{
name = bottom;
position = "{377, 0}";
},
{
name = ogonek;
position = "{493, 0}";
},
{
name = top;
position = "{377, 763}";
},
{
name = topright;
position = "{751, 763}";
}
);
paths = (
{
closed = 1;
nodes = (
"612 -17 OFFCURVE",
"701 110 OFFCURVE",
"701 285 CURVE SMOOTH",
"701 747 LINE SMOOTH",
"701 757 OFFCURVE",
"695 763 OFFCURVE",
"685 763 CURVE SMOOTH",
"537 763 LINE SMOOTH",
"527 763 OFFCURVE",
"521 757 OFFCURVE",
"521 747 CURVE SMOOTH",
"521 285 LINE SMOOTH",
"521 207 OFFCURVE",
"493 143 OFFCURVE",
"377 143 CURVE SMOOTH",
"260 143 OFFCURVE",
"232 207 OFFCURVE",
"232 285 CURVE SMOOTH",
"232 747 LINE SMOOTH",
"232 757 OFFCURVE",
"226 763 OFFCURVE",
"216 763 CURVE SMOOTH",
"68 763 LINE SMOOTH",
"58 763 OFFCURVE",
"52 757 OFFCURVE",
"52 747 CURVE SMOOTH",
"52 285 LINE SMOOTH",
"52 110 OFFCURVE",
"141 -17 OFFCURVE",
"377 -17 CURVE SMOOTH"
);
}
);
};
layerId = "FD6EB2BB-8839-4CDB-86BF-4EEAE3F02079";
paths = (
{
closed = 1;
nodes = (
"612 -17 OFFCURVE",
"701 110 OFFCURVE",
"701 285 CURVE SMOOTH",
"701 743 LINE SMOOTH",
"701 756 OFFCURVE",
"694 763 OFFCURVE",
"681 763 CURVE SMOOTH",
"541 763 LINE SMOOTH",
"528 763 OFFCURVE",
"521 756 OFFCURVE",
"521 743 CURVE SMOOTH",
"521 285 LINE SMOOTH",
"521 207 OFFCURVE",
"493 143 OFFCURVE",
"377 143 CURVE SMOOTH",
"260 143 OFFCURVE",
"232 207 OFFCURVE",
"232 285 CURVE SMOOTH",
"232 743 LINE SMOOTH",
"232 756 OFFCURVE",
"225 763 OFFCURVE",
"212 763 CURVE SMOOTH",
"72 763 LINE SMOOTH",
"59 763 OFFCURVE",
"52 756 OFFCURVE",
"52 743 CURVE SMOOTH",
"52 285 LINE SMOOTH",
"52 110 OFFCURVE",
"141 -17 OFFCURVE",
"377 -17 CURVE SMOOTH"
);
}
);
width = 754;
},
{
anchors = (
{
name = bottom;
position = "{355, 0}";
},
{
name = ogonek;
position = "{428, 0}";
},
{
name = top;
position = "{355, 763}";
},
{
name = topright;
position = "{704, 763}";
}
);
background = {
anchors = (
{
name = bottom;
position = "{355, 0}";
},
{
name = ogonek;
position = "{438, 0}";
},
{
name = top;
position = "{355, 763}";
},
{
name = topright;
position = "{704, 763}";
}
);
paths = (
{
closed = 1;
nodes = (
"548 -9 OFFCURVE",
"638 96 OFFCURVE",
"638 265 CURVE SMOOTH",
"638 747 LINE SMOOTH",
"638 757 OFFCURVE",
"632 763 OFFCURVE",
"622 763 CURVE SMOOTH",
"562 763 LINE SMOOTH",
"552 763 OFFCURVE",
"546 757 OFFCURVE",
"546 747 CURVE SMOOTH",
"546 265 LINE SMOOTH",
"546 146 OFFCURVE",
"488 74 OFFCURVE",
"355 74 CURVE SMOOTH",
"222 74 OFFCURVE",
"164 146 OFFCURVE",
"164 265 CURVE SMOOTH",
"164 747 LINE SMOOTH",
"164 757 OFFCURVE",
"158 763 OFFCURVE",
"148 763 CURVE SMOOTH",
"88 763 LINE SMOOTH",
"78 763 OFFCURVE",
"72 757 OFFCURVE",
"72 747 CURVE SMOOTH",
"72 265 LINE SMOOTH",
"72 96 OFFCURVE",
"162 -9 OFFCURVE",
"355 -9 CURVE SMOOTH"
);
}
);
};
layerId = "11907447-A26F-432E-A335-7727E0303767";
paths = (
{
closed = 1;
nodes = (
"548 -10 OFFCURVE",
"638 95 OFFCURVE",
"638 264 CURVE SMOOTH",
"638 753 LINE SMOOTH",
"638 759 OFFCURVE",
"634 763 OFFCURVE",
"628 763 CURVE SMOOTH",
"556 763 LINE SMOOTH",
"550 763 OFFCURVE",
"546 759 OFFCURVE",
"546 753 CURVE SMOOTH",
"546 264 LINE SMOOTH",
"546 145 OFFCURVE",
"488 72 OFFCURVE",
"355 72 CURVE SMOOTH",
"222 72 OFFCURVE",
"164 145 OFFCURVE",
"164 264 CURVE SMOOTH",
"164 753 LINE SMOOTH",
"164 759 OFFCURVE",
"160 763 OFFCURVE",
"154 763 CURVE SMOOTH",
"82 763 LINE SMOOTH",
"76 763 OFFCURVE",
"72 759 OFFCURVE",
"72 753 CURVE SMOOTH",
"72 264 LINE SMOOTH",
"72 95 OFFCURVE",
"162 -10 OFFCURVE",
"355 -10 CURVE SMOOTH"
);
}
);
width = 711;
},
{
anchors = (
{
name = bottom;
position = "{345, 0}";
},
{
name = ogonek;
position = "{410, 0}";
},
{
name = top;
position = "{345, 763}";
},
{
name = topright;
position = "{687, 763}";
}
);
background = {
anchors = (
{
name = bottom;
position = "{345, 0}";
},
{
name = ogonek;
position = "{430, 0}";
},
{
name = top;
position = "{345, 763}";
},
{
name = topright;
position = "{687, 763}";
}
);
paths = (
{
closed = 1;
nodes = (
"531 -10 OFFCURVE",
"616 96 OFFCURVE",
"616 270 CURVE SMOOTH",
"616 753 LINE SMOOTH",
"616 759 OFFCURVE",
"612 763 OFFCURVE",
"606 763 CURVE SMOOTH",
"557 763 LINE SMOOTH",
"551 763 OFFCURVE",
"547 759 OFFCURVE",
"547 753 CURVE SMOOTH",
"547 270 LINE SMOOTH",
"547 134 OFFCURVE",
"487 53 OFFCURVE",
"344 53 CURVE SMOOTH",
"201 53 OFFCURVE",
"141 134 OFFCURVE",
"141 270 CURVE SMOOTH",
"141 753 LINE SMOOTH",
"141 759 OFFCURVE",
"137 763 OFFCURVE",
"131 763 CURVE SMOOTH",
"82 763 LINE SMOOTH",
"76 763 OFFCURVE",
"72 759 OFFCURVE",
"72 753 CURVE SMOOTH",
"72 270 LINE SMOOTH",
"72 96 OFFCURVE",
"157 -10 OFFCURVE",
"344 -10 CURVE SMOOTH"
);
}
);
};
layerId = "2F4EEC1B-9E89-4E08-AD53-AB625B6E887D";
paths = (
{
closed = 1;
nodes = (
"531 -10 OFFCURVE",
"616 96 OFFCURVE",
"616 270 CURVE SMOOTH",
"616 753 LINE SMOOTH",
"616 759 OFFCURVE",
"612 763 OFFCURVE",
"606 763 CURVE SMOOTH",
"557 763 LINE SMOOTH",
"551 763 OFFCURVE",
"547 759 OFFCURVE",
"547 753 CURVE SMOOTH",
"547 270 LINE SMOOTH",
"547 134 OFFCURVE",
"487 52 OFFCURVE",
"344 52 CURVE SMOOTH",
"201 52 OFFCURVE",
"141 134 OFFCURVE",
"141 270 CURVE SMOOTH",
"141 753 LINE SMOOTH",
"141 759 OFFCURVE",
"137 763 OFFCURVE",
"131 763 CURVE SMOOTH",
"82 763 LINE SMOOTH",
"76 763 OFFCURVE",
"72 759 OFFCURVE",
"72 753 CURVE SMOOTH",
"72 270 LINE SMOOTH",
"72 96 OFFCURVE",
"157 -10 OFFCURVE",
"344 -10 CURVE SMOOTH"
);
}
);
width = 689;
}
);
leftKerningGroup = U;
note = U;
rightKerningGroup = J;
unicode = 0055;
},
{
color = 1;
glyphname = V;
lastChange = "2020-04-15 11:41:23 +0000";
layers = (
{
anchors = (
{
name = bottom;
position = "{354, 0}";
},
{
name = top;
position = "{354, 763}";
}
);
layerId = "FD6EB2BB-8839-4CDB-86BF-4EEAE3F02079";
paths = (
{
closed = 1;
nodes = (
"434 0 LINE SMOOTH",
"445 0 OFFCURVE",
"453 5 OFFCURVE",
"457 16 CURVE SMOOTH",
"704 740 LINE SMOOTH",
"709 754 OFFCURVE",
"702 763 OFFCURVE",
"688 763 CURVE SMOOTH",
"539 763 LINE SMOOTH",
"528 763 OFFCURVE",
"520 758 OFFCURVE",
"517 746 CURVE SMOOTH",
"367 243 LINE SMOOTH",
"362 225 OFFCURVE",
"346 225 OFFCURVE",
"341 243 CURVE SMOOTH",
"191 746 LINE SMOOTH",
"188 758 OFFCURVE",
"180 763 OFFCURVE",
"169 763 CURVE SMOOTH",
"20 763 LINE SMOOTH",
"6 763 OFFCURVE",
"-1 754 OFFCURVE",
"4 740 CURVE SMOOTH",
"251 16 LINE SMOOTH",
"255 5 OFFCURVE",
"263 0 OFFCURVE",
"274 0 CURVE SMOOTH"
);
}
);
width = 708;
},
{
anchors = (
{
name = bottom;
position = "{347, 0}";
},
{
name = top;
position = "{347, 763}";
}
);
layerId = "11907447-A26F-432E-A335-7727E0303767";
paths = (
{
closed = 1;
nodes = (
"390 0 LINE SMOOTH",
"395 0 OFFCURVE",
"400 2 OFFCURVE",
"402 8 CURVE SMOOTH",
"676 751 LINE SMOOTH",
"678 758 OFFCURVE",
"675 763 OFFCURVE",
"668 763 CURVE SMOOTH",
"596 763 LINE SMOOTH",
"591 763 OFFCURVE",
"586 761 OFFCURVE",
"584 755 CURVE SMOOTH",
"354 112 LINE SMOOTH",
"351 104 OFFCURVE",
"343 104 OFFCURVE",
"340 112 CURVE SMOOTH",
"110 755 LINE SMOOTH",
"108 761 OFFCURVE",
"103 763 OFFCURVE",
"98 763 CURVE SMOOTH",
"26 763 LINE SMOOTH",
"19 763 OFFCURVE",
"16 758 OFFCURVE",
"18 751 CURVE SMOOTH",
"292 8 LINE SMOOTH",
"294 2 OFFCURVE",
"299 0 OFFCURVE",
"304 0 CURVE SMOOTH"
);
}
);
width = 694;
},
{
anchors = (
{
name = bottom;
position = "{344, 0}";
},
{
name = top;
position = "{344, 763}";
}
);
layerId = "2F4EEC1B-9E89-4E08-AD53-AB625B6E887D";
paths = (
{
closed = 1;
nodes = (
"376 0 LINE SMOOTH",
"381 0 OFFCURVE",
"385 2 OFFCURVE",
"387 8 CURVE SMOOTH",
"668 751 LINE SMOOTH",
"670 758 OFFCURVE",
"667 763 OFFCURVE",
"660 763 CURVE SMOOTH",
"609 763 LINE SMOOTH",
"604 763 OFFCURVE",
"600 761 OFFCURVE",
"598 755 CURVE SMOOTH",
"351 87 LINE SMOOTH",
"348 79 OFFCURVE",
"340 79 OFFCURVE",
"337 87 CURVE SMOOTH",
"90 755 LINE SMOOTH",
"88 761 OFFCURVE",
"84 763 OFFCURVE",
"79 763 CURVE SMOOTH",
"28 763 LINE SMOOTH",
"21 763 OFFCURVE",
"18 758 OFFCURVE",
"20 751 CURVE SMOOTH",
"301 8 LINE SMOOTH",
"303 2 OFFCURVE",
"307 0 OFFCURVE",
"312 0 CURVE SMOOTH"
);
}
);
width = 688;
}
);
leftKerningGroup = V;
note = V;
rightKerningGroup = V;
unicode = 0056;
},
{
color = 1;
glyphname = W;
lastChange = "2020-04-15 11:41:27 +0000";
layers = (
{
anchors = (
{
name = bottom;
position = "{569, 0}";
},
{
name = top;
position = "{569, 763}";
}
);
layerId = "FD6EB2BB-8839-4CDB-86BF-4EEAE3F02079";
paths = (
{
closed = 1;
nodes = (
"464 0 LINE SMOOTH",
"476 0 OFFCURVE",
"484 5 OFFCURVE",
"486 18 CURVE SMOOTH",
"558 501 LINE SMOOTH",
"561 518 OFFCURVE",
"577 518 OFFCURVE",
"580 501 CURVE SMOOTH",
"652 18 LINE SMOOTH",
"654 5 OFFCURVE",
"662 0 OFFCURVE",
"674 0 CURVE SMOOTH",
"927 0 LINE SMOOTH",
"939 0 OFFCURVE",
"946 6 OFFCURVE",
"949 17 CURVE SMOOTH",
"1122 741 LINE SMOOTH",
"1125 754 OFFCURVE",
"1118 763 OFFCURVE",
"1104 763 CURVE SMOOTH",
"957 763 LINE SMOOTH",
"945 763 OFFCURVE",
"937 756 OFFCURVE",
"935 745 CURVE SMOOTH",
"816 187 LINE SMOOTH",
"812 167 OFFCURVE",
"795 169 OFFCURVE",
"792 188 CURVE SMOOTH",
"695 745 LINE SMOOTH",
"693 757 OFFCURVE",
"686 763 OFFCURVE",
"674 763 CURVE SMOOTH",
"464 763 LINE SMOOTH",
"452 763 OFFCURVE",
"445 757 OFFCURVE",
"443 745 CURVE SMOOTH",
"346 189 LINE SMOOTH",
"343 170 OFFCURVE",
"326 168 OFFCURVE",
"322 188 CURVE SMOOTH",
"203 745 LINE SMOOTH",
"201 756 OFFCURVE",
"193 763 OFFCURVE",
"181 763 CURVE SMOOTH",
"34 763 LINE SMOOTH",
"20 763 OFFCURVE",
"13 754 OFFCURVE",
"16 741 CURVE SMOOTH",
"189 17 LINE SMOOTH",
"192 6 OFFCURVE",
"199 0 OFFCURVE",
"211 0 CURVE SMOOTH"
);
}
);
width = 1138;
},
{
anchors = (
{
name = bottom;
position = "{536, 0}";
},
{
name = top;
position = "{536, 763}";
}
);
layerId = "11907447-A26F-432E-A335-7727E0303767";
paths = (
{
closed = 1;
nodes = (
"341 0 LINE SMOOTH",
"346 0 OFFCURVE",
"351 3 OFFCURVE",
"353 8 CURVE SMOOTH",
"531 592 LINE SMOOTH",
"534 602 OFFCURVE",
"540 602 OFFCURVE",
"543 592 CURVE SMOOTH",
"721 8 LINE SMOOTH",
"723 3 OFFCURVE",
"728 0 OFFCURVE",
"733 0 CURVE SMOOTH",
"819 0 LINE SMOOTH",
"825 0 OFFCURVE",
"828 3 OFFCURVE",
"830 8 CURVE SMOOTH",
"1051 752 LINE SMOOTH",
"1053 759 OFFCURVE",
"1049 763 OFFCURVE",
"1042 763 CURVE SMOOTH",
"967 763 LINE SMOOTH",
"961 763 OFFCURVE",
"958 760 OFFCURVE",
"956 755 CURVE SMOOTH",
"776 152 LINE SMOOTH",
"773 142 OFFCURVE",
"767 142 OFFCURVE",
"764 152 CURVE SMOOTH",
"584 755 LINE SMOOTH",
"582 760 OFFCURVE",
"578 763 OFFCURVE",
"572 763 CURVE SMOOTH",
"502 763 LINE SMOOTH",
"496 763 OFFCURVE",
"493 760 OFFCURVE",
"491 755 CURVE SMOOTH",
"311 153 LINE SMOOTH",
"308 143 OFFCURVE",
"302 143 OFFCURVE",
"299 153 CURVE SMOOTH",
"119 755 LINE SMOOTH",
"117 760 OFFCURVE",
"113 763 OFFCURVE",
"107 763 CURVE SMOOTH",
"32 763 LINE SMOOTH",
"25 763 OFFCURVE",
"21 759 OFFCURVE",
"23 752 CURVE SMOOTH",
"244 8 LINE SMOOTH",
"246 3 OFFCURVE",
"249 0 OFFCURVE",
"255 0 CURVE SMOOTH"
);
}
);
width = 1074;
},
{
anchors = (
{
name = bottom;
position = "{541, 0}";
},
{
name = top;
position = "{541, 763}";
}
);
layerId = "2F4EEC1B-9E89-4E08-AD53-AB625B6E887D";
paths = (
{
closed = 1;
nodes = (
"324 0 LINE SMOOTH",
"329 0 OFFCURVE",
"334 3 OFFCURVE",
"336 8 CURVE SMOOTH",
"535 630 LINE SMOOTH",
"538 640 OFFCURVE",
"544 640 OFFCURVE",
"547 630 CURVE SMOOTH",
"745 8 LINE SMOOTH",
"747 3 OFFCURVE",
"752 0 OFFCURVE",
"757 0 CURVE SMOOTH",
"819 0 LINE SMOOTH",
"825 0 OFFCURVE",
"829 3 OFFCURVE",
"831 8 CURVE SMOOTH",
"1056 752 LINE SMOOTH",
"1058 759 OFFCURVE",
"1054 763 OFFCURVE",
"1047 763 CURVE SMOOTH",
"996 763 LINE SMOOTH",
"991 763 OFFCURVE",
"986 760 OFFCURVE",
"984 755 CURVE SMOOTH",
"789 120 LINE SMOOTH",
"786 110 OFFCURVE",
"780 109 OFFCURVE",
"777 119 CURVE SMOOTH",
"576 755 LINE SMOOTH",
"574 760 OFFCURVE",
"569 763 OFFCURVE",
"564 763 CURVE SMOOTH",
"517 763 LINE SMOOTH",
"512 763 OFFCURVE",
"507 760 OFFCURVE",
"505 755 CURVE SMOOTH",
"304 119 LINE SMOOTH",
"301 109 OFFCURVE",
"294 109 OFFCURVE",
"291 119 CURVE SMOOTH",
"98 755 LINE SMOOTH",
"96 760 OFFCURVE",
"92 763 OFFCURVE",
"86 763 CURVE SMOOTH",
"34 763 LINE SMOOTH",
"27 763 OFFCURVE",
"23 759 OFFCURVE",
"25 752 CURVE SMOOTH",
"249 8 LINE SMOOTH",
"251 3 OFFCURVE",
"255 0 OFFCURVE",
"261 0 CURVE SMOOTH"
);
}
);
width = 1081;
}
);
leftKerningGroup = W;
note = W;
rightKerningGroup = W;
unicode = 0057;
},
{
color = 1;
glyphname = X;
lastChange = "2020-04-15 11:41:32 +0000";
layers = (
{
layerId = "FD6EB2BB-8839-4CDB-86BF-4EEAE3F02079";
paths = (
{
closed = 1;
nodes = (
"200 0 LINE SMOOTH",
"210 0 OFFCURVE",
"218 4 OFFCURVE",
"224 13 CURVE SMOOTH",
"361 223 LINE SMOOTH",
"369 236 OFFCURVE",
"381 236 OFFCURVE",
"389 223 CURVE SMOOTH",
"525 13 LINE SMOOTH",
"531 4 OFFCURVE",
"539 0 OFFCURVE",
"549 0 CURVE SMOOTH",
"716 0 LINE SMOOTH",
"732 0 OFFCURVE",
"738 11 OFFCURVE",
"729 24 CURVE SMOOTH",
"507 365 LINE SMOOTH",
"501 374 OFFCURVE",
"501 384 OFFCURVE",
"507 393 CURVE SMOOTH",
"731 739 LINE SMOOTH",
"740 752 OFFCURVE",
"734 763 OFFCURVE",
"718 763 CURVE SMOOTH",
"550 763 LINE SMOOTH",
"539 763 OFFCURVE",
"531 759 OFFCURVE",
"526 750 CURVE SMOOTH",
"388 523 LINE SMOOTH",
"380 509 OFFCURVE",
"368 509 OFFCURVE",
"360 523 CURVE SMOOTH",
"223 750 LINE SMOOTH",
"218 759 OFFCURVE",
"210 763 OFFCURVE",
"199 763 CURVE SMOOTH",
"31 763 LINE SMOOTH",
"15 763 OFFCURVE",
"9 752 OFFCURVE",
"18 739 CURVE SMOOTH",
"242 393 LINE SMOOTH",
"248 384 OFFCURVE",
"248 374 OFFCURVE",
"242 365 CURVE SMOOTH",
"20 24 LINE SMOOTH",
"11 11 OFFCURVE",
"17 0 OFFCURVE",
"33 0 CURVE SMOOTH"
);
}
);
width = 749;
},
{
layerId = "11907447-A26F-432E-A335-7727E0303767";
paths = (
{
closed = 1;
nodes = (
"117 0 LINE SMOOTH",
"122 0 OFFCURVE",
"126 1 OFFCURVE",
"129 6 CURVE SMOOTH",
"335 304 LINE SMOOTH",
"339 310 OFFCURVE",
"345 310 OFFCURVE",
"349 304 CURVE SMOOTH",
"555 6 LINE SMOOTH",
"558 1 OFFCURVE",
"562 0 OFFCURVE",
"567 0 CURVE SMOOTH",
"653 0 LINE SMOOTH",
"661 0 OFFCURVE",
"664 6 OFFCURVE",
"660 12 CURVE SMOOTH",
"409 377 LINE SMOOTH",
"406 381 OFFCURVE",
"406 387 OFFCURVE",
"409 391 CURVE SMOOTH",
"656 751 LINE SMOOTH",
"660 757 OFFCURVE",
"657 763 OFFCURVE",
"649 763 CURVE SMOOTH",
"562 763 LINE SMOOTH",
"557 763 OFFCURVE",
"553 762 OFFCURVE",
"550 757 CURVE SMOOTH",
"349 458 LINE SMOOTH",
"345 451 OFFCURVE",
"339 451 OFFCURVE",
"335 458 CURVE SMOOTH",
"134 757 LINE SMOOTH",
"131 762 OFFCURVE",
"127 763 OFFCURVE",
"122 763 CURVE SMOOTH",
"35 763 LINE SMOOTH",
"27 763 OFFCURVE",
"24 757 OFFCURVE",
"28 751 CURVE SMOOTH",
"275 391 LINE SMOOTH",
"278 387 OFFCURVE",
"278 381 OFFCURVE",
"275 377 CURVE SMOOTH",
"24 12 LINE SMOOTH",
"20 6 OFFCURVE",
"23 0 OFFCURVE",
"31 0 CURVE SMOOTH"
);
}
);
width = 684;
},
{
anchors = (
{
name = bottom;
position = "{333, 0}";
},
{
name = top;
position = "{333, 763}";
}
);
layerId = "2F4EEC1B-9E89-4E08-AD53-AB625B6E887D";
paths = (
{
closed = 1;
nodes = (
"93 0 LINE SMOOTH",
"98 0 OFFCURVE",
"102 1 OFFCURVE",
"105 6 CURVE SMOOTH",
"325 324 LINE SMOOTH",
"329 330 OFFCURVE",
"335 330 OFFCURVE",
"339 324 CURVE SMOOTH",
"561 6 LINE SMOOTH",
"564 1 OFFCURVE",
"568 0 OFFCURVE",
"573 0 CURVE SMOOTH",
"632 0 LINE SMOOTH",
"640 0 OFFCURVE",
"643 6 OFFCURVE",
"639 12 CURVE SMOOTH",
"384 378 LINE SMOOTH",
"381 383 OFFCURVE",
"381 387 OFFCURVE",
"384 392 CURVE SMOOTH",
"634 751 LINE SMOOTH",
"638 757 OFFCURVE",
"635 763 OFFCURVE",
"627 763 CURVE SMOOTH",
"567 763 LINE SMOOTH",
"562 763 OFFCURVE",
"558 762 OFFCURVE",
"555 757 CURVE SMOOTH",
"340 442 LINE SMOOTH",
"336 435 OFFCURVE",
"330 436 OFFCURVE",
"326 442 CURVE SMOOTH",
"110 757 LINE SMOOTH",
"107 762 OFFCURVE",
"103 763 OFFCURVE",
"98 763 CURVE SMOOTH",
"39 763 LINE SMOOTH",
"31 763 OFFCURVE",
"28 757 OFFCURVE",
"32 751 CURVE SMOOTH",
"282 392 LINE SMOOTH",
"285 387 OFFCURVE",
"285 383 OFFCURVE",
"282 378 CURVE SMOOTH",
"27 12 LINE SMOOTH",
"22 6 OFFCURVE",
"26 0 OFFCURVE",
"34 0 CURVE SMOOTH"
);
}
);
width = 667;
}
);
leftKerningGroup = X;
note = X;
rightKerningGroup = X;
unicode = 0058;
},
{
color = 1;
glyphname = Y;
lastChange = "2020-04-15 11:41:36 +0000";
layers = (
{
anchors = (
{
name = bottom;
position = "{357, 0}";
},
{
name = top;
position = "{357, 763}";
},
{
name = topleft;
position = "{24, 763}";
}
);
layerId = "FD6EB2BB-8839-4CDB-86BF-4EEAE3F02079";
paths = (
{
closed = 1;
nodes = (
"433 0 LINE SMOOTH",
"446 0 OFFCURVE",
"453 7 OFFCURVE",
"453 20 CURVE SMOOTH",
"453 290 LINE SMOOTH",
"453 299 OFFCURVE",
"455 305 OFFCURVE",
"460 314 CURVE SMOOTH",
"712 739 LINE SMOOTH",
"720 752 OFFCURVE",
"714 763 OFFCURVE",
"698 763 CURVE SMOOTH",
"533 763 LINE SMOOTH",
"522 763 OFFCURVE",
"514 759 OFFCURVE",
"509 749 CURVE SMOOTH",
"373 501 LINE SMOOTH",
"365 486 OFFCURVE",
"353 486 OFFCURVE",
"345 501 CURVE SMOOTH",
"209 749 LINE SMOOTH",
"204 759 OFFCURVE",
"196 763 OFFCURVE",
"185 763 CURVE SMOOTH",
"20 763 LINE SMOOTH",
"4 763 OFFCURVE",
"-2 752 OFFCURVE",
"6 739 CURVE SMOOTH",
"258 314 LINE SMOOTH",
"263 305 OFFCURVE",
"265 299 OFFCURVE",
"265 290 CURVE SMOOTH",
"265 20 LINE SMOOTH",
"265 7 OFFCURVE",
"272 0 OFFCURVE",
"285 0 CURVE SMOOTH"
);
}
);
width = 718;
},
{
anchors = (
{
name = bottom;
position = "{337, 0}";
},
{
name = top;
position = "{337, 763}";
},
{
name = topleft;
position = "{8, 763}";
}
);
layerId = "11907447-A26F-432E-A335-7727E0303767";
paths = (
{
closed = 1;
nodes = (
"376 0 LINE SMOOTH",
"382 0 OFFCURVE",
"386 4 OFFCURVE",
"386 10 CURVE SMOOTH",
"386 285 LINE SMOOTH",
"386 289 OFFCURVE",
"387 294 OFFCURVE",
"389 298 CURVE SMOOTH",
"662 751 LINE SMOOTH",
"666 758 OFFCURVE",
"663 763 OFFCURVE",
"655 763 CURVE SMOOTH",
"572 763 LINE SMOOTH",
"567 763 OFFCURVE",
"563 760 OFFCURVE",
"560 756 CURVE SMOOTH",
"343 395 LINE SMOOTH",
"339 389 OFFCURVE",
"333 389 OFFCURVE",
"329 395 CURVE SMOOTH",
"115 756 LINE SMOOTH",
"112 760 OFFCURVE",
"108 763 OFFCURVE",
"103 763 CURVE SMOOTH",
"18 763 LINE SMOOTH",
"10 763 OFFCURVE",
"7 758 OFFCURVE",
"11 751 CURVE SMOOTH",
"287 298 LINE SMOOTH",
"289 294 OFFCURVE",
"290 289 OFFCURVE",
"290 285 CURVE SMOOTH",
"290 10 LINE SMOOTH",
"290 4 OFFCURVE",
"294 0 OFFCURVE",
"300 0 CURVE SMOOTH"
);
}
);
width = 674;
},
{
anchors = (
{
name = bottom;
position = "{331, 0}";
},
{
name = top;
position = "{331, 763}";
},
{
name = topleft;
position = "{20, 763}";
}
);
guideLines = (
{
position = "{326, 455}";
}
);
layerId = "2F4EEC1B-9E89-4E08-AD53-AB625B6E887D";
paths = (
{
closed = 1;
nodes = (
"357 0 LINE SMOOTH",
"363 0 OFFCURVE",
"367 4 OFFCURVE",
"367 10 CURVE SMOOTH",
"367 285 LINE SMOOTH",
"367 289 OFFCURVE",
"368 294 OFFCURVE",
"370 298 CURVE SMOOTH",
"647 751 LINE SMOOTH",
"651 758 OFFCURVE",
"648 763 OFFCURVE",
"640 763 CURVE SMOOTH",
"582 763 LINE SMOOTH",
"577 763 OFFCURVE",
"573 760 OFFCURVE",
"570 756 CURVE SMOOTH",
"338 371 LINE SMOOTH",
"334 365 OFFCURVE",
"328 365 OFFCURVE",
"324 371 CURVE SMOOTH",
"92 756 LINE SMOOTH",
"89 760 OFFCURVE",
"85 763 OFFCURVE",
"80 763 CURVE SMOOTH",
"22 763 LINE SMOOTH",
"14 763 OFFCURVE",
"11 758 OFFCURVE",
"15 751 CURVE SMOOTH",
"292 298 LINE SMOOTH",
"294 294 OFFCURVE",
"295 289 OFFCURVE",
"295 285 CURVE SMOOTH",
"295 10 LINE SMOOTH",
"295 4 OFFCURVE",
"299 0 OFFCURVE",
"305 0 CURVE SMOOTH"
);
}
);
width = 662;
}
);
leftKerningGroup = Y;
note = Y;
rightKerningGroup = Y;
unicode = 0059;
},
{
color = 1;
glyphname = Z;
lastChange = "2020-04-15 11:41:40 +0000";
layers = (
{
anchors = (
{
name = bottom;
position = "{314, 0}";
},
{
name = center;
position = "{314, 382}";
},
{
name = top;
position = "{314, 763}";
}
);
layerId = "FD6EB2BB-8839-4CDB-86BF-4EEAE3F02079";
paths = (
{
closed = 1;
nodes = (
"573 0 LINE SMOOTH",
"586 0 OFFCURVE",
"593 7 OFFCURVE",
"593 20 CURVE SMOOTH",
"593 140 LINE SMOOTH",
"593 153 OFFCURVE",
"586 160 OFFCURVE",
"573 160 CURVE SMOOTH",
"288 160 LINE SMOOTH",
"272 160 OFFCURVE",
"266 170 OFFCURVE",
"275 184 CURVE SMOOTH",
"583 625 LINE SMOOTH",
"588 633 OFFCURVE",
"591 641 OFFCURVE",
"591 650 CURVE SMOOTH",
"591 743 LINE SMOOTH",
"591 756 OFFCURVE",
"584 763 OFFCURVE",
"571 763 CURVE SMOOTH",
"67 763 LINE SMOOTH",
"54 763 OFFCURVE",
"47 756 OFFCURVE",
"47 743 CURVE SMOOTH",
"47 623 LINE SMOOTH",
"47 610 OFFCURVE",
"54 603 OFFCURVE",
"67 603 CURVE SMOOTH",
"335 603 LINE SMOOTH",
"351 603 OFFCURVE",
"357 592 OFFCURVE",
"348 579 CURVE SMOOTH",
"34 132 LINE SMOOTH",
"29 124 OFFCURVE",
"26 116 OFFCURVE",
"26 107 CURVE SMOOTH",
"26 20 LINE SMOOTH",
"26 7 OFFCURVE",
"33 0 OFFCURVE",
"46 0 CURVE SMOOTH"
);
}
);
width = 624;
},
{
anchors = (
{
name = bottom;
position = "{318, 0}";
},
{
name = center;
position = "{318, 382}";
},
{
name = top;
position = "{318, 763}";
}
);
layerId = "11907447-A26F-432E-A335-7727E0303767";
paths = (
{
closed = 1;
nodes = (
"591 0 LINE SMOOTH",
"597 0 OFFCURVE",
"601 4 OFFCURVE",
"601 10 CURVE SMOOTH",
"601 73 LINE SMOOTH",
"601 79 OFFCURVE",
"597 83 OFFCURVE",
"591 83 CURVE SMOOTH",
"162 83 LINE SMOOTH",
"154 83 OFFCURVE",
"151 89 OFFCURVE",
"156 95 CURVE SMOOTH",
"598 688 LINE SMOOTH",
"601 692 OFFCURVE",
"602 696 OFFCURVE",
"602 701 CURVE SMOOTH",
"602 753 LINE SMOOTH",
"602 759 OFFCURVE",
"598 763 OFFCURVE",
"592 763 CURVE SMOOTH",
"63 763 LINE SMOOTH",
"57 763 OFFCURVE",
"53 759 OFFCURVE",
"53 753 CURVE SMOOTH",
"53 690 LINE SMOOTH",
"53 684 OFFCURVE",
"57 680 OFFCURVE",
"63 680 CURVE SMOOTH",
"473 680 LINE SMOOTH",
"481 680 OFFCURVE",
"484 674 OFFCURVE",
"479 668 CURVE SMOOTH",
"33 73 LINE SMOOTH",
"30 69 OFFCURVE",
"29 65 OFFCURVE",
"29 60 CURVE SMOOTH",
"29 10 LINE SMOOTH",
"29 4 OFFCURVE",
"33 0 OFFCURVE",
"39 0 CURVE SMOOTH"
);
}
);
width = 634;
},
{
anchors = (
{
name = bottom;
position = "{320, 0}";
},
{
name = center;
position = "{320, 382}";
},
{
name = top;
position = "{320, 763}";
}
);
layerId = "2F4EEC1B-9E89-4E08-AD53-AB625B6E887D";
paths = (
{
closed = 1;
nodes = (
"594 0 LINE SMOOTH",
"600 0 OFFCURVE",
"604 4 OFFCURVE",
"604 10 CURVE SMOOTH",
"604 52 LINE SMOOTH",
"604 58 OFFCURVE",
"600 62 OFFCURVE",
"594 62 CURVE SMOOTH",
"129 62 LINE SMOOTH",
"121 62 OFFCURVE",
"118 68 OFFCURVE",
"123 74 CURVE SMOOTH",
"602 702 LINE SMOOTH",
"605 706 OFFCURVE",
"606 710 OFFCURVE",
"606 715 CURVE SMOOTH",
"606 753 LINE SMOOTH",
"606 759 OFFCURVE",
"602 763 OFFCURVE",
"596 763 CURVE SMOOTH",
"63 763 LINE SMOOTH",
"57 763 OFFCURVE",
"53 759 OFFCURVE",
"53 753 CURVE SMOOTH",
"53 711 LINE SMOOTH",
"53 705 OFFCURVE",
"57 701 OFFCURVE",
"63 701 CURVE SMOOTH",
"506 701 LINE SMOOTH",
"514 701 OFFCURVE",
"517 695 OFFCURVE",
"512 689 CURVE SMOOTH",
"33 60 LINE SMOOTH",
"30 56 OFFCURVE",
"29 52 OFFCURVE",
"29 47 CURVE SMOOTH",
"29 10 LINE SMOOTH",
"29 4 OFFCURVE",
"33 0 OFFCURVE",
"39 0 CURVE SMOOTH"
);
}
);
width = 638;
}
);
leftKerningGroup = Z;
note = Z;
rightKerningGroup = Z;
unicode = 005A;
},
{
color = 1;
glyphname = a;
lastChange = "2020-04-15 13:26:50 +0000";
layers = (
{
anchors = (
{
name = bottom;
position = "{307, 0}";
},
{
name = ogonek;
position = "{532, 0}";
},
{
name = top;
position = "{307, 567}";
}
);
guideLines = (
{
angle = 270;
position = "{384, 763}";
},
{
position = "{385, 367}";
}
);
layerId = "FD6EB2BB-8839-4CDB-86BF-4EEAE3F02079";
paths = (
{
closed = 1;
nodes = (
"266 -12 OFFCURVE",
"311 -5 OFFCURVE",
"344 18 CURVE SMOOTH",
"353 24 OFFCURVE",
"361 32 OFFCURVE",
"368 40 CURVE SMOOTH",
"377 53 OFFCURVE",
"384 48 OFFCURVE",
"384 29 CURVE SMOOTH",
"384 20 LINE SMOOTH",
"384 7 OFFCURVE",
"391 0 OFFCURVE",
"404 0 CURVE SMOOTH",
"532 0 LINE SMOOTH",
"545 0 OFFCURVE",
"552 7 OFFCURVE",
"552 20 CURVE SMOOTH",
"552 269 LINE SMOOTH",
"552 374 OFFCURVE",
"552 463 OFFCURVE",
"482 523 CURVE SMOOTH",
"437 562 OFFCURVE",
"372 579 OFFCURVE",
"306 579 CURVE SMOOTH",
"198 579 OFFCURVE",
"87 526 OFFCURVE",
"58 400 CURVE SMOOTH",
"55 386 OFFCURVE",
"62 378 OFFCURVE",
"76 378 CURVE SMOOTH",
"203 378 LINE SMOOTH",
"215 378 OFFCURVE",
"221 384 OFFCURVE",
"225 395 CURVE SMOOTH",
"239 432 OFFCURVE",
"271 453 OFFCURVE",
"305 453 CURVE SMOOTH",
"330 453 OFFCURVE",
"349 447 OFFCURVE",
"362 433 CURVE SMOOTH",
"372 422 OFFCURVE",
"379 406 OFFCURVE",
"383 387 CURVE SMOOTH",
"385 374 OFFCURVE",
"378 366 OFFCURVE",
"366 364 CURVE SMOOTH",
"238 341 LINE SMOOTH",
"195 333 OFFCURVE",
"144 322 OFFCURVE",
"104 296 CURVE SMOOTH",
"63 269 OFFCURVE",
"33 227 OFFCURVE",
"33 159 CURVE SMOOTH",
"33 45 OFFCURVE",
"117 -12 OFFCURVE",
"219 -12 CURVE SMOOTH"
);
},
{
closed = 1;
nodes = (
"232 115 OFFCURVE",
"201 129 OFFCURVE",
"201 165 CURVE SMOOTH",
"201 181 OFFCURVE",
"207 192 OFFCURVE",
"216 201 CURVE SMOOTH",
"230 214 OFFCURVE",
"248 221 OFFCURVE",
"285 228 CURVE SMOOTH",
"365 244 LINE SMOOTH",
"379 247 OFFCURVE",
"388 239 OFFCURVE",
"387 225 CURVE SMOOTH",
"382 177 OFFCURVE",
"369 147 OFFCURVE",
"329 129 CURVE SMOOTH",
"309 120 OFFCURVE",
"287 115 OFFCURVE",
"268 115 CURVE SMOOTH"
);
}
);
width = 601;
},
{
anchors = (
{
name = bottom;
position = "{295, 0}";
},
{
name = ogonek;
position = "{501, 0}";
},
{
name = top;
position = "{295, 553}";
}
);
guideLines = (
{
angle = 270;
position = "{426, 351}";
}
);
layerId = "11907447-A26F-432E-A335-7727E0303767";
paths = (
{
closed = 1;
nodes = (
"279 -10 OFFCURVE",
"322 -1 OFFCURVE",
"359 22 CURVE SMOOTH",
"379 34 OFFCURVE",
"397 50 OFFCURVE",
"414 71 CURVE SMOOTH",
"420 78 OFFCURVE",
"426 76 OFFCURVE",
"426 67 CURVE SMOOTH",
"426 10 LINE SMOOTH",
"426 4 OFFCURVE",
"430 0 OFFCURVE",
"436 0 CURVE SMOOTH",
"501 0 LINE SMOOTH",
"507 0 OFFCURVE",
"511 4 OFFCURVE",
"511 10 CURVE SMOOTH",
"511 326 LINE SMOOTH",
"511 363 OFFCURVE",
"511 450 OFFCURVE",
"453 506 CURVE SMOOTH",
"414 544 OFFCURVE",
"355 563 OFFCURVE",
"291 563 CURVE SMOOTH",
"188 563 OFFCURVE",
"94 506 OFFCURVE",
"71 398 CURVE SMOOTH",
"70 391 OFFCURVE",
"73 387 OFFCURVE",
"80 387 CURVE SMOOTH",
"145 387 LINE SMOOTH",
"151 387 OFFCURVE",
"154 390 OFFCURVE",
"156 396 CURVE SMOOTH",
"172 453 OFFCURVE",
"225 488 OFFCURVE",
"290 488 CURVE SMOOTH",
"333 488 OFFCURVE",
"368 474 OFFCURVE",
"392 450 CURVE SMOOTH",
"413 429 OFFCURVE",
"424 399 OFFCURVE",
"426 360 CURVE SMOOTH",
"426 354 OFFCURVE",
"423 350 OFFCURVE",
"417 349 CURVE SMOOTH",
"229 313 LINE SMOOTH",
"174 302 OFFCURVE",
"132 285 OFFCURVE",
"102 261 CURVE SMOOTH",
"66 233 OFFCURVE",
"48 194 OFFCURVE",
"48 147 CURVE SMOOTH",
"48 50 OFFCURVE",
"117 -10 OFFCURVE",
"228 -10 CURVE SMOOTH"
);
},
{
closed = 1;
nodes = (
"174 65 OFFCURVE",
"133 98 OFFCURVE",
"133 149 CURVE SMOOTH",
"133 173 OFFCURVE",
"141 192 OFFCURVE",
"156 207 CURVE SMOOTH",
"175 225 OFFCURVE",
"205 238 OFFCURVE",
"247 246 CURVE SMOOTH",
"416 280 LINE SMOOTH",
"422 281 OFFCURVE",
"427 278 OFFCURVE",
"427 271 CURVE SMOOTH",
"425 185 OFFCURVE",
"402 123 OFFCURVE",
"326 84 CURVE SMOOTH",
"301 71 OFFCURVE",
"272 65 OFFCURVE",
"238 65 CURVE SMOOTH"
);
}
);
width = 576;
},
{
anchors = (
{
name = bottom;
position = "{288, 0}";
},
{
name = ogonek;
position = "{486, 0}";
},
{
name = top;
position = "{288, 549}";
}
);
guideLines = (
{
angle = 270;
position = "{431, 347}";
}
);
layerId = "2F4EEC1B-9E89-4E08-AD53-AB625B6E887D";
paths = (
{
closed = 1;
nodes = (
"279 -10 OFFCURVE",
"320 2 OFFCURVE",
"355 23 CURVE SMOOTH",
"381 38 OFFCURVE",
"403 59 OFFCURVE",
"420 84 CURVE SMOOTH",
"425 92 OFFCURVE",
"431 90 OFFCURVE",
"431 81 CURVE SMOOTH",
"431 10 LINE SMOOTH",
"431 4 OFFCURVE",
"435 0 OFFCURVE",
"441 0 CURVE SMOOTH",
"486 0 LINE SMOOTH",
"492 0 OFFCURVE",
"496 4 OFFCURVE",
"496 10 CURVE SMOOTH",
"496 328 LINE SMOOTH",
"496 403 OFFCURVE",
"478 462 OFFCURVE",
"440 502 CURVE SMOOTH",
"405 539 OFFCURVE",
"353 559 OFFCURVE",
"283 559 CURVE SMOOTH",
"181 559 OFFCURVE",
"91 502 OFFCURVE",
"70 400 CURVE SMOOTH",
"69 393 OFFCURVE",
"72 389 OFFCURVE",
"79 389 CURVE SMOOTH",
"124 389 LINE SMOOTH",
"130 389 OFFCURVE",
"133 392 OFFCURVE",
"135 398 CURVE SMOOTH",
"151 461 OFFCURVE",
"211 501 OFFCURVE",
"282 501 CURVE SMOOTH",
"333 501 OFFCURVE",
"370 488 OFFCURVE",
"394 461 CURVE SMOOTH",
"416 436 OFFCURVE",
"428 401 OFFCURVE",
"430 356 CURVE SMOOTH",
"431 350 OFFCURVE",
"428 346 OFFCURVE",
"422 345 CURVE SMOOTH",
"235 308 LINE SMOOTH",
"197 300 OFFCURVE",
"146 288 OFFCURVE",
"107 261 CURVE SMOOTH",
"73 237 OFFCURVE",
"48 201 OFFCURVE",
"48 146 CURVE SMOOTH",
"48 45 OFFCURVE",
"127 -10 OFFCURVE",
"235 -10 CURVE SMOOTH"
);
},
{
closed = 1;
nodes = (
"164 48 OFFCURVE",
"113 83 OFFCURVE",
"113 146 CURVE SMOOTH",
"113 176 OFFCURVE",
"125 198 OFFCURVE",
"144 214 CURVE SMOOTH",
"168 234 OFFCURVE",
"203 244 OFFCURVE",
"236 251 CURVE SMOOTH",
"420 290 LINE SMOOTH",
"427 292 OFFCURVE",
"431 288 OFFCURVE",
"431 281 CURVE SMOOTH",
"429 185 OFFCURVE",
"402 108 OFFCURVE",
"324 70 CURVE SMOOTH",
"294 55 OFFCURVE",
"263 48 OFFCURVE",
"230 48 CURVE SMOOTH"
);
}
);
width = 561;
}
);
leftKerningGroup = a;
note = a;
rightKerningGroup = a;
unicode = 0061;
},
{
glyphname = ae;
lastChange = "2020-04-16 06:34:47 +0000";
layers = (
{
anchors = (
{
name = bottom;
position = "{500, 0}";
},
{
name = top;
position = "{500, 549}";
}
);
layerId = "2F4EEC1B-9E89-4E08-AD53-AB625B6E887D";
paths = (
{
closed = 1;
nodes = (
"278 -10 OFFCURVE",
"319 1 OFFCURVE",
"354 21 CURVE SMOOTH",
"395 45 OFFCURVE",
"429 81 OFFCURVE",
"451 130 CURVE SMOOTH",
"455 138 OFFCURVE",
"460 138 OFFCURVE",
"464 130 CURVE SMOOTH",
"508 45 OFFCURVE",
"590 -10 OFFCURVE",
"693 -10 CURVE SMOOTH",
"820 -10 OFFCURVE",
"903 65 OFFCURVE",
"937 162 CURVE SMOOTH",
"940 169 OFFCURVE",
"936 173 OFFCURVE",
"929 173 CURVE SMOOTH",
"880 173 LINE SMOOTH",
"875 173 OFFCURVE",
"871 171 OFFCURVE",
"869 165 CURVE SMOOTH",
"842 100 OFFCURVE",
"781 48 OFFCURVE",
"693 48 CURVE SMOOTH",
"609 48 OFFCURVE",
"541 101 OFFCURVE",
"511 187 CURVE SMOOTH",
"503 209 OFFCURVE",
"498 229 OFFCURVE",
"496 252 CURVE SMOOTH",
"496 253 LINE SMOOTH",
"496 259 OFFCURVE",
"500 263 OFFCURVE",
"506 263 CURVE SMOOTH",
"943 263 LINE SMOOTH",
"949 263 OFFCURVE",
"953 267 OFFCURVE",
"953 273 CURVE SMOOTH",
"953 281 OFFCURVE",
"953 289 OFFCURVE",
"952 297 CURVE SMOOTH",
"939 450 OFFCURVE",
"843 559 OFFCURVE",
"692 559 CURVE SMOOTH",
"601 559 OFFCURVE",
"530 517 OFFCURVE",
"485 453 CURVE SMOOTH",
"480 447 OFFCURVE",
"475 447 OFFCURVE",
"472 455 CURVE SMOOTH",
"463 472 OFFCURVE",
"453 488 OFFCURVE",
"440 502 CURVE SMOOTH",
"405 539 OFFCURVE",
"353 559 OFFCURVE",
"283 559 CURVE SMOOTH",
"181 559 OFFCURVE",
"91 502 OFFCURVE",
"70 400 CURVE SMOOTH",
"69 393 OFFCURVE",
"72 389 OFFCURVE",
"79 389 CURVE SMOOTH",
"124 389 LINE SMOOTH",
"130 389 OFFCURVE",
"133 392 OFFCURVE",
"135 398 CURVE SMOOTH",
"151 461 OFFCURVE",
"211 501 OFFCURVE",
"282 501 CURVE SMOOTH",
"333 501 OFFCURVE",
"370 488 OFFCURVE",
"394 461 CURVE SMOOTH",
"416 436 OFFCURVE",
"428 401 OFFCURVE",
"430 356 CURVE SMOOTH",
"431 350 OFFCURVE",
"428 346 OFFCURVE",
"422 345 CURVE SMOOTH",
"235 308 LINE SMOOTH",
"197 300 OFFCURVE",
"146 288 OFFCURVE",
"107 261 CURVE SMOOTH",
"73 237 OFFCURVE",
"48 201 OFFCURVE",
"48 146 CURVE SMOOTH",
"48 45 OFFCURVE",
"127 -10 OFFCURVE",
"235 -10 CURVE SMOOTH"
);
},
{
closed = 1;
nodes = (
"164 48 OFFCURVE",
"113 83 OFFCURVE",
"113 146 CURVE SMOOTH",
"113 176 OFFCURVE",
"125 198 OFFCURVE",
"144 214 CURVE SMOOTH",
"168 234 OFFCURVE",
"203 244 OFFCURVE",
"236 251 CURVE SMOOTH",
"420 290 LINE SMOOTH",
"427 292 OFFCURVE",
"431 288 OFFCURVE",
"431 281 CURVE SMOOTH",
"429 185 OFFCURVE",
"402 108 OFFCURVE",
"324 70 CURVE SMOOTH",
"294 55 OFFCURVE",
"263 48 OFFCURVE",
"230 48 CURVE SMOOTH"
);
},
{
closed = 1;
nodes = (
"504 316 OFFCURVE",
"499 320 OFFCURVE",
"501 327 CURVE SMOOTH",
"504 347 OFFCURVE",
"511 369 OFFCURVE",
"519 388 CURVE SMOOTH",
"550 459 OFFCURVE",
"613 501 OFFCURVE",
"693 501 CURVE SMOOTH",
"772 501 OFFCURVE",
"840 458 OFFCURVE",
"872 384 CURVE SMOOTH",
"881 364 OFFCURVE",
"885 347 OFFCURVE",
"888 327 CURVE SMOOTH",
"889 320 OFFCURVE",
"885 316 OFFCURVE",
"879 316 CURVE SMOOTH",
"510 316 LINE SMOOTH"
);
}
);
width = 1000;
},
{
anchors = (
{
name = bottom;
position = "{504, 0}";
},
{
name = top;
position = "{504, 553}";
}
);
layerId = "11907447-A26F-432E-A335-7727E0303767";
paths = (
{
closed = 1;
nodes = (
"273 -10 OFFCURVE",
"320 -3 OFFCURVE",
"361 19 CURVE SMOOTH",
"396 38 OFFCURVE",
"428 68 OFFCURVE",
"457 113 CURVE SMOOTH",
"461 119 OFFCURVE",
"467 119 OFFCURVE",
"471 113 CURVE SMOOTH",
"517 37 OFFCURVE",
"597 -10 OFFCURVE",
"696 -10 CURVE SMOOTH",
"828 -10 OFFCURVE",
"911 68 OFFCURVE",
"947 167 CURVE SMOOTH",
"950 174 OFFCURVE",
"946 178 OFFCURVE",
"939 178 CURVE SMOOTH",
"868 178 LINE SMOOTH",
"863 178 OFFCURVE",
"859 176 OFFCURVE",
"857 170 CURVE SMOOTH",
"831 113 OFFCURVE",
"775 65 OFFCURVE",
"695 65 CURVE SMOOTH",
"615 65 OFFCURVE",
"550 120 OFFCURVE",
"522 205 CURVE SMOOTH",
"517 219 OFFCURVE",
"514 235 OFFCURVE",
"512 250 CURVE SMOOTH",
"511 256 OFFCURVE",
"515 260 OFFCURVE",
"521 260 CURVE SMOOTH",
"951 260 LINE SMOOTH",
"957 260 OFFCURVE",
"961 264 OFFCURVE",
"961 270 CURVE SMOOTH",
"961 290 LINE SMOOTH",
"961 468 OFFCURVE",
"833 563 OFFCURVE",
"694 563 CURVE SMOOTH",
"606 563 OFFCURVE",
"539 527 OFFCURVE",
"493 472 CURVE SMOOTH",
"488 466 OFFCURVE",
"483 466 OFFCURVE",
"479 473 CURVE SMOOTH",
"472 484 OFFCURVE",
"464 496 OFFCURVE",
"453 506 CURVE SMOOTH",
"414 544 OFFCURVE",
"355 563 OFFCURVE",
"291 563 CURVE SMOOTH",
"188 563 OFFCURVE",
"94 506 OFFCURVE",
"71 398 CURVE SMOOTH",
"70 391 OFFCURVE",
"73 387 OFFCURVE",
"80 387 CURVE SMOOTH",
"145 387 LINE SMOOTH",
"151 387 OFFCURVE",
"154 390 OFFCURVE",
"156 396 CURVE SMOOTH",
"172 453 OFFCURVE",
"225 488 OFFCURVE",
"290 488 CURVE SMOOTH",
"333 488 OFFCURVE",
"368 474 OFFCURVE",
"392 450 CURVE SMOOTH",
"413 429 OFFCURVE",
"424 399 OFFCURVE",
"426 360 CURVE SMOOTH",
"426 354 OFFCURVE",
"423 350 OFFCURVE",
"417 349 CURVE SMOOTH",
"229 313 LINE SMOOTH",
"174 302 OFFCURVE",
"132 285 OFFCURVE",
"102 261 CURVE SMOOTH",
"66 233 OFFCURVE",
"48 194 OFFCURVE",
"48 147 CURVE SMOOTH",
"48 50 OFFCURVE",
"117 -10 OFFCURVE",
"228 -10 CURVE SMOOTH"
);
},
{
closed = 1;
nodes = (
"174 65 OFFCURVE",
"133 98 OFFCURVE",
"133 149 CURVE SMOOTH",
"133 173 OFFCURVE",
"141 192 OFFCURVE",
"156 207 CURVE SMOOTH",
"175 225 OFFCURVE",
"205 238 OFFCURVE",
"247 246 CURVE SMOOTH",
"416 280 LINE SMOOTH",
"422 281 OFFCURVE",
"427 278 OFFCURVE",
"427 271 CURVE SMOOTH",
"425 185 OFFCURVE",
"402 123 OFFCURVE",
"326 84 CURVE SMOOTH",
"301 71 OFFCURVE",
"272 65 OFFCURVE",
"238 65 CURVE SMOOTH"
);
},
{
closed = 1;
nodes = (
"523 335 OFFCURVE",
"520 339 OFFCURVE",
"521 346 CURVE SMOOTH",
"524 360 OFFCURVE",
"529 376 OFFCURVE",
"535 389 CURVE SMOOTH",
"565 452 OFFCURVE",
"622 488 OFFCURVE",
"696 488 CURVE SMOOTH",
"767 488 OFFCURVE",
"829 453 OFFCURVE",
"858 389 CURVE SMOOTH",
"864 376 OFFCURVE",
"867 360 OFFCURVE",
"869 345 CURVE SMOOTH",
"870 339 OFFCURVE",
"866 335 OFFCURVE",
"860 335 CURVE SMOOTH",
"530 335 LINE SMOOTH"
);
}
);
width = 1008;
},
{
anchors = (
{
name = bottom;
position = "{502, 0}";
},
{
name = top;
position = "{502, 567}";
}
);
layerId = "FD6EB2BB-8839-4CDB-86BF-4EEAE3F02079";
paths = (
{
closed = 1;
nodes = (
"293 -12 OFFCURVE",
"345 3 OFFCURVE",
"385 32 CURVE SMOOTH",
"403 45 OFFCURVE",
"419 61 OFFCURVE",
"432 79 CURVE SMOOTH",
"440 90 OFFCURVE",
"449 91 OFFCURVE",
"459 80 CURVE SMOOTH",
"510 23 OFFCURVE",
"587 -12 OFFCURVE",
"683 -12 CURVE SMOOTH",
"832 -12 OFFCURVE",
"918 71 OFFCURVE",
"955 173 CURVE SMOOTH",
"960 187 OFFCURVE",
"952 196 OFFCURVE",
"938 196 CURVE SMOOTH",
"809 196 LINE SMOOTH",
"798 196 OFFCURVE",
"792 191 OFFCURVE",
"786 182 CURVE SMOOTH",
"768 153 OFFCURVE",
"736 132 OFFCURVE",
"692 132 CURVE SMOOTH",
"650 132 OFFCURVE",
"616 145 OFFCURVE",
"592 175 CURVE SMOOTH",
"582 188 OFFCURVE",
"573 206 OFFCURVE",
"568 226 CURVE SMOOTH",
"564 240 OFFCURVE",
"571 248 OFFCURVE",
"585 248 CURVE SMOOTH",
"951 248 LINE SMOOTH",
"964 248 OFFCURVE",
"971 255 OFFCURVE",
"971 268 CURVE SMOOTH",
"971 277 LINE SMOOTH",
"971 496 OFFCURVE",
"827 579 OFFCURVE",
"678 579 CURVE SMOOTH",
"605 579 OFFCURVE",
"547 560 OFFCURVE",
"503 528 CURVE SMOOTH",
"493 521 OFFCURVE",
"485 521 OFFCURVE",
"475 528 CURVE SMOOTH",
"467 534 OFFCURVE",
"458 540 OFFCURVE",
"450 545 CURVE SMOOTH",
"410 567 OFFCURVE",
"363 579 OFFCURVE",
"306 579 CURVE SMOOTH",
"198 579 OFFCURVE",
"87 526 OFFCURVE",
"58 400 CURVE SMOOTH",
"55 386 OFFCURVE",
"62 378 OFFCURVE",
"76 378 CURVE SMOOTH",
"203 378 LINE SMOOTH",
"215 378 OFFCURVE",
"221 384 OFFCURVE",
"225 395 CURVE SMOOTH",
"239 432 OFFCURVE",
"271 453 OFFCURVE",
"305 453 CURVE SMOOTH",
"330 453 OFFCURVE",
"349 447 OFFCURVE",
"362 433 CURVE SMOOTH",
"372 422 OFFCURVE",
"379 406 OFFCURVE",
"383 387 CURVE SMOOTH",
"385 374 OFFCURVE",
"378 366 OFFCURVE",
"366 364 CURVE SMOOTH",
"238 341 LINE SMOOTH",
"195 333 OFFCURVE",
"144 322 OFFCURVE",
"104 296 CURVE SMOOTH",
"63 269 OFFCURVE",
"33 227 OFFCURVE",
"33 159 CURVE SMOOTH",
"33 45 OFFCURVE",
"117 -12 OFFCURVE",
"229 -12 CURVE SMOOTH"
);
},
{
closed = 1;
nodes = (
"232 115 OFFCURVE",
"201 129 OFFCURVE",
"201 165 CURVE SMOOTH",
"201 181 OFFCURVE",
"207 192 OFFCURVE",
"216 201 CURVE SMOOTH",
"230 214 OFFCURVE",
"248 221 OFFCURVE",
"285 228 CURVE SMOOTH",
"365 244 LINE SMOOTH",
"379 247 OFFCURVE",
"388 239 OFFCURVE",
"387 225 CURVE SMOOTH",
"382 177 OFFCURVE",
"369 147 OFFCURVE",
"329 129 CURVE SMOOTH",
"309 120 OFFCURVE",
"287 115 OFFCURVE",
"268 115 CURVE SMOOTH"
);
},
{
closed = 1;
nodes = (
"577 367 OFFCURVE",
"569 376 OFFCURVE",
"574 389 CURVE SMOOTH",
"578 398 OFFCURVE",
"584 408 OFFCURVE",
"594 418 CURVE SMOOTH",
"618 442 OFFCURVE",
"650 451 OFFCURVE",
"684 451 CURVE SMOOTH",
"718 451 OFFCURVE",
"750 442 OFFCURVE",
"774 418 CURVE SMOOTH",
"783 409 OFFCURVE",
"789 399 OFFCURVE",
"794 390 CURVE SMOOTH",
"800 376 OFFCURVE",
"791 367 OFFCURVE",
"777 367 CURVE SMOOTH",
"591 367 LINE SMOOTH"
);
}
);
width = 1003;
}
);
leftKerningGroup = a;
leftMetricsKey = a;
rightKerningGroup = e;
rightMetricsKey = e;
unicode = 00E6;
},
{
color = 1;
glyphname = b;
lastChange = "2020-04-15 11:42:00 +0000";
layers = (
{
anchors = (
{
name = bottom;
position = "{312, 0}";
},
{
name = top;
position = "{312, 763}";
}
);
guideLines = (
{
angle = 270;
position = "{197, 0}";
}
);
layerId = "FD6EB2BB-8839-4CDB-86BF-4EEAE3F02079";
paths = (
{
closed = 1;
nodes = (
"513 -12 OFFCURVE",
"615 110 OFFCURVE",
"615 284 CURVE SMOOTH",
"615 457 OFFCURVE",
"513 579 OFFCURVE",
"368 579 CURVE SMOOTH",
"319 579 OFFCURVE",
"279 568 OFFCURVE",
"245 534 CURVE SMOOTH",
"233 521 OFFCURVE",
"223 523 OFFCURVE",
"223 541 CURVE SMOOTH",
"223 743 LINE SMOOTH",
"223 756 OFFCURVE",
"216 763 OFFCURVE",
"203 763 CURVE SMOOTH",
"75 763 LINE SMOOTH",
"62 763 OFFCURVE",
"55 756 OFFCURVE",
"55 743 CURVE SMOOTH",
"55 20 LINE SMOOTH",
"55 7 OFFCURVE",
"62 0 OFFCURVE",
"75 0 CURVE SMOOTH",
"203 0 LINE SMOOTH",
"216 0 OFFCURVE",
"223 7 OFFCURVE",
"223 20 CURVE SMOOTH",
"223 31 LINE SMOOTH",
"223 46 OFFCURVE",
"233 46 OFFCURVE",
"245 33 CURVE SMOOTH",
"279 -1 OFFCURVE",
"319 -12 OFFCURVE",
"368 -12 CURVE SMOOTH"
);
},
{
closed = 1;
nodes = (
"247 131 OFFCURVE",
"197 192 OFFCURVE",
"197 284 CURVE SMOOTH",
"197 375 OFFCURVE",
"247 436 OFFCURVE",
"321 436 CURVE SMOOTH",
"396 436 OFFCURVE",
"445 373 OFFCURVE",
"445 284 CURVE SMOOTH",
"445 194 OFFCURVE",
"396 131 OFFCURVE",
"321 131 CURVE SMOOTH"
);
}
);
width = 649;
},
{
anchors = (
{
name = bottom;
position = "{306, 0}";
},
{
name = top;
position = "{317, 763}";
}
);
guideLines = (
{
position = "{108, 0}";
}
);
layerId = "11907447-A26F-432E-A335-7727E0303767";
paths = (
{
closed = 1;
nodes = (
"487 -10 OFFCURVE",
"584 107 OFFCURVE",
"584 276 CURVE SMOOTH",
"584 446 OFFCURVE",
"487 563 OFFCURVE",
"338 563 CURVE SMOOTH",
"269 563 OFFCURVE",
"221 544 OFFCURVE",
"169 482 CURVE SMOOTH",
"163 475 OFFCURVE",
"157 477 OFFCURVE",
"157 486 CURVE SMOOTH",
"157 753 LINE SMOOTH",
"157 759 OFFCURVE",
"153 763 OFFCURVE",
"147 763 CURVE SMOOTH",
"82 763 LINE SMOOTH",
"76 763 OFFCURVE",
"72 759 OFFCURVE",
"72 753 CURVE SMOOTH",
"72 10 LINE SMOOTH",
"72 4 OFFCURVE",
"76 0 OFFCURVE",
"82 0 CURVE SMOOTH",
"147 0 LINE SMOOTH",
"153 0 OFFCURVE",
"157 4 OFFCURVE",
"157 10 CURVE SMOOTH",
"157 67 LINE SMOOTH",
"157 76 OFFCURVE",
"163 78 OFFCURVE",
"169 71 CURVE SMOOTH",
"220 11 OFFCURVE",
"268 -10 OFFCURVE",
"338 -10 CURVE SMOOTH"
);
},
{
closed = 1;
nodes = (
"227 65 OFFCURVE",
"154 154 OFFCURVE",
"154 276 CURVE SMOOTH",
"154 399 OFFCURVE",
"227 488 OFFCURVE",
"330 488 CURVE SMOOTH",
"434 488 OFFCURVE",
"499 397 OFFCURVE",
"499 276 CURVE SMOOTH",
"499 156 OFFCURVE",
"434 65 OFFCURVE",
"330 65 CURVE SMOOTH"
);
}
);
width = 634;
},
{
anchors = (
{
name = bottom;
position = "{302, 0}";
},
{
name = top;
position = "{302, 763}";
}
);
layerId = "2F4EEC1B-9E89-4E08-AD53-AB625B6E887D";
paths = (
{
closed = 1;
nodes = (
"476 -10 OFFCURVE",
"573 108 OFFCURVE",
"573 274 CURVE SMOOTH",
"573 441 OFFCURVE",
"476 559 OFFCURVE",
"333 559 CURVE SMOOTH",
"259 559 OFFCURVE",
"197 525 OFFCURVE",
"149 464 CURVE SMOOTH",
"143 456 OFFCURVE",
"137 458 OFFCURVE",
"137 467 CURVE SMOOTH",
"137 753 LINE SMOOTH",
"137 759 OFFCURVE",
"133 763 OFFCURVE",
"127 763 CURVE SMOOTH",
"82 763 LINE SMOOTH",
"76 763 OFFCURVE",
"72 759 OFFCURVE",
"72 753 CURVE SMOOTH",
"72 10 LINE SMOOTH",
"72 4 OFFCURVE",
"76 0 OFFCURVE",
"82 0 CURVE SMOOTH",
"127 0 LINE SMOOTH",
"133 0 OFFCURVE",
"137 4 OFFCURVE",
"137 10 CURVE SMOOTH",
"137 82 LINE SMOOTH",
"137 91 OFFCURVE",
"143 93 OFFCURVE",
"149 86 CURVE SMOOTH",
"196 25 OFFCURVE",
"259 -10 OFFCURVE",
"333 -10 CURVE SMOOTH"
);
},
{
closed = 1;
nodes = (
"216 48 OFFCURVE",
"135 145 OFFCURVE",
"135 274 CURVE SMOOTH",
"135 404 OFFCURVE",
"216 501 OFFCURVE",
"327 501 CURVE SMOOTH",
"439 501 OFFCURVE",
"508 403 OFFCURVE",
"508 274 CURVE SMOOTH",
"508 146 OFFCURVE",
"439 48 OFFCURVE",
"327 48 CURVE SMOOTH"
);
}
);
width = 623;
}
);
leftKerningGroup = b;
note = b;
rightKerningGroup = b;
unicode = 0062;
},
{
color = 1;
glyphname = c;
lastChange = "2020-04-15 11:42:05 +0000";
layers = (
{
anchors = (
{
name = bottom;
position = "{317, 0}";
},
{
name = top;
position = "{317, 567}";
}
);
background = {
anchors = (
{
name = bottom;
position = "{317, 0}";
},
{
name = top;
position = "{317, 567}";
}
);
paths = (
{
closed = 1;
nodes = (
"467 -12 OFFCURVE",
"575 59 OFFCURVE",
"602 180 CURVE SMOOTH",
"604 190 OFFCURVE",
"598 196 OFFCURVE",
"587 196 CURVE SMOOTH",
"436 196 LINE SMOOTH",
"427 196 OFFCURVE",
"422 191 OFFCURVE",
"419 182 CURVE SMOOTH",
"408 144 OFFCURVE",
"372 122 OFFCURVE",
"327 122 CURVE SMOOTH",
"252 122 OFFCURVE",
"205 184 OFFCURVE",
"205 287 CURVE SMOOTH",
"205 386 OFFCURVE",
"252 447 OFFCURVE",
"327 447 CURVE SMOOTH",
"365 447 OFFCURVE",
"402 429 OFFCURVE",
"416 392 CURVE SMOOTH",
"420 383 OFFCURVE",
"425 378 OFFCURVE",
"434 378 CURVE SMOOTH",
"586 378 LINE SMOOTH",
"597 378 OFFCURVE",
"603 385 OFFCURVE",
"600 396 CURVE SMOOTH",
"572 508 OFFCURVE",
"468 581 OFFCURVE",
"327 581 CURVE SMOOTH",
"149 581 OFFCURVE",
"32 461 OFFCURVE",
"32 287 CURVE SMOOTH",
"32 106 OFFCURVE",
"150 -12 OFFCURVE",
"327 -12 CURVE SMOOTH"
);
}
);
};
layerId = "FD6EB2BB-8839-4CDB-86BF-4EEAE3F02079";
paths = (
{
closed = 1;
nodes = (
"461 -12 OFFCURVE",
"566 57 OFFCURVE",
"601 175 CURVE SMOOTH",
"604 188 OFFCURVE",
"597 196 OFFCURVE",
"583 196 CURVE SMOOTH",
"441 196 LINE SMOOTH",
"430 196 OFFCURVE",
"422 190 OFFCURVE",
"418 179 CURVE SMOOTH",
"404 143 OFFCURVE",
"377 122 OFFCURVE",
"327 122 CURVE SMOOTH",
"252 122 OFFCURVE",
"205 184 OFFCURVE",
"205 287 CURVE SMOOTH",
"205 386 OFFCURVE",
"252 446 OFFCURVE",
"327 446 CURVE SMOOTH",
"371 446 OFFCURVE",
"399 429 OFFCURVE",
"415 394 CURVE SMOOTH",
"420 383 OFFCURVE",
"427 378 OFFCURVE",
"438 378 CURVE SMOOTH",
"582 378 LINE SMOOTH",
"596 378 OFFCURVE",
"603 387 OFFCURVE",
"599 400 CURVE SMOOTH",
"563 510 OFFCURVE",
"461 579 OFFCURVE",
"327 579 CURVE SMOOTH",
"149 579 OFFCURVE",
"32 461 OFFCURVE",
"32 287 CURVE SMOOTH",
"32 106 OFFCURVE",
"150 -12 OFFCURVE",
"327 -12 CURVE SMOOTH"
);
}
);
width = 633;
},
{
anchors = (
{
name = bottom;
position = "{302, 0}";
},
{
name = top;
position = "{302, 553}";
}
);
layerId = "11907447-A26F-432E-A335-7727E0303767";
paths = (
{
closed = 1;
nodes = (
"436 -10 OFFCURVE",
"531 56 OFFCURVE",
"559 167 CURVE SMOOTH",
"560 174 OFFCURVE",
"557 178 OFFCURVE",
"550 178 CURVE SMOOTH",
"479 178 LINE SMOOTH",
"473 178 OFFCURVE",
"469 175 OFFCURVE",
"468 170 CURVE SMOOTH",
"447 106 OFFCURVE",
"390 65 OFFCURVE",
"316 65 CURVE SMOOTH",
"211 65 OFFCURVE",
"133 153 OFFCURVE",
"133 279 CURVE SMOOTH",
"133 401 OFFCURVE",
"211 488 OFFCURVE",
"316 488 CURVE SMOOTH",
"384 488 OFFCURVE",
"440 452 OFFCURVE",
"463 395 CURVE SMOOTH",
"465 390 OFFCURVE",
"470 387 OFFCURVE",
"475 387 CURVE SMOOTH",
"545 387 LINE SMOOTH",
"552 387 OFFCURVE",
"556 391 OFFCURVE",
"554 398 CURVE SMOOTH",
"525 499 OFFCURVE",
"436 563 OFFCURVE",
"316 563 CURVE SMOOTH",
"158 563 OFFCURVE",
"48 443 OFFCURVE",
"48 279 CURVE SMOOTH",
"48 110 OFFCURVE",
"159 -10 OFFCURVE",
"316 -10 CURVE SMOOTH"
);
}
);
width = 602;
},
{
anchors = (
{
name = bottom;
position = "{314, 0}";
},
{
name = top;
position = "{314, 549}";
}
);
layerId = "2F4EEC1B-9E89-4E08-AD53-AB625B6E887D";
paths = (
{
closed = 1;
nodes = (
"427 -10 OFFCURVE",
"519 57 OFFCURVE",
"546 162 CURVE SMOOTH",
"547 169 OFFCURVE",
"544 173 OFFCURVE",
"537 173 CURVE SMOOTH",
"486 173 LINE SMOOTH",
"480 173 OFFCURVE",
"476 170 OFFCURVE",
"475 164 CURVE SMOOTH",
"456 95 OFFCURVE",
"393 48 OFFCURVE",
"310 48 CURVE SMOOTH",
"196 48 OFFCURVE",
"113 143 OFFCURVE",
"113 277 CURVE SMOOTH",
"113 407 OFFCURVE",
"196 501 OFFCURVE",
"310 501 CURVE SMOOTH",
"387 501 OFFCURVE",
"449 461 OFFCURVE",
"471 397 CURVE SMOOTH",
"473 392 OFFCURVE",
"478 389 OFFCURVE",
"483 389 CURVE SMOOTH",
"532 389 LINE SMOOTH",
"539 389 OFFCURVE",
"543 393 OFFCURVE",
"541 400 CURVE SMOOTH",
"512 497 OFFCURVE",
"425 559 OFFCURVE",
"310 559 CURVE SMOOTH",
"157 559 OFFCURVE",
"48 438 OFFCURVE",
"48 277 CURVE SMOOTH",
"48 111 OFFCURVE",
"157 -10 OFFCURVE",
"310 -10 CURVE SMOOTH"
);
}
);
width = 591;
}
);
leftKerningGroup = c;
note = c;
rightKerningGroup = c;
unicode = 0063;
},
{
color = 1;
glyphname = eth;
lastChange = "2020-04-15 11:43:37 +0000";
layers = (
{
layerId = "2F4EEC1B-9E89-4E08-AD53-AB625B6E887D";
paths = (
{
closed = 1;
nodes = (
"473 -10 OFFCURVE",
"546 158 OFFCURVE",
"546 370 CURVE SMOOTH",
"546 486 OFFCURVE",
"525 593 OFFCURVE",
"473 668 CURVE SMOOTH",
"469 674 OFFCURVE",
"470 678 OFFCURVE",
"476 682 CURVE SMOOTH",
"526 711 LINE SMOOTH",
"531 714 OFFCURVE",
"533 720 OFFCURVE",
"530 725 CURVE SMOOTH",
"517 747 LINE SMOOTH",
"514 752 OFFCURVE",
"509 755 OFFCURVE",
"503 751 CURVE SMOOTH",
"444 716 LINE SMOOTH",
"439 713 OFFCURVE",
"435 714 OFFCURVE",
"430 718 CURVE SMOOTH",
"389 751 OFFCURVE",
"337 771 OFFCURVE",
"272 771 CURVE SMOOTH",
"220 771 OFFCURVE",
"174 759 OFFCURVE",
"138 737 CURVE SMOOTH",
"133 734 OFFCURVE",
"132 729 OFFCURVE",
"135 724 CURVE SMOOTH",
"157 690 LINE SMOOTH",
"160 685 OFFCURVE",
"165 684 OFFCURVE",
"170 687 CURVE SMOOTH",
"200 704 OFFCURVE",
"234 713 OFFCURVE",
"272 713 CURVE SMOOTH",
"308 713 OFFCURVE",
"341 704 OFFCURVE",
"368 686 CURVE SMOOTH",
"375 681 OFFCURVE",
"374 676 OFFCURVE",
"368 672 CURVE SMOOTH",
"238 598 LINE SMOOTH",
"233 595 OFFCURVE",
"231 589 OFFCURVE",
"234 584 CURVE SMOOTH",
"247 562 LINE SMOOTH",
"250 557 OFFCURVE",
"256 555 OFFCURVE",
"261 558 CURVE SMOOTH",
"407 641 LINE SMOOTH",
"412 644 OFFCURVE",
"417 644 OFFCURVE",
"421 639 CURVE SMOOTH",
"464 581 OFFCURVE",
"484 473 OFFCURVE",
"483 388 CURVE SMOOTH",
"483 379 OFFCURVE",
"479 378 OFFCURVE",
"475 385 CURVE SMOOTH",
"437 443 OFFCURVE",
"363 487 OFFCURVE",
"271 487 CURVE SMOOTH",
"129 487 OFFCURVE",
"36 385 OFFCURVE",
"36 244 CURVE SMOOTH",
"36 102 OFFCURVE",
"132 -10 OFFCURVE",
"273 -10 CURVE SMOOTH"
);
},
{
closed = 1;
nodes = (
"170 48 OFFCURVE",
"101 138 OFFCURVE",
"101 245 CURVE SMOOTH",
"101 349 OFFCURVE",
"171 429 OFFCURVE",
"274 429 CURVE SMOOTH",
"383 429 OFFCURVE",
"465 348 OFFCURVE",
"465 245 CURVE SMOOTH",
"465 130 OFFCURVE",
"384 48 OFFCURVE",
"274 48 CURVE SMOOTH"
);
}
);
width = 600;
},
{
layerId = "11907447-A26F-432E-A335-7727E0303767";
paths = (
{
closed = 1;
nodes = (
"472 -9 OFFCURVE",
"554 149 OFFCURVE",
"554 369 CURVE SMOOTH",
"554 488 OFFCURVE",
"532 591 OFFCURVE",
"484 664 CURVE SMOOTH",
"480 669 OFFCURVE",
"481 673 OFFCURVE",
"487 677 CURVE SMOOTH",
"531 703 LINE SMOOTH",
"536 706 OFFCURVE",
"538 712 OFFCURVE",
"535 717 CURVE SMOOTH",
"513 754 LINE SMOOTH",
"510 759 OFFCURVE",
"504 761 OFFCURVE",
"499 758 CURVE SMOOTH",
"440 724 LINE SMOOTH",
"435 721 OFFCURVE",
"431 722 OFFCURVE",
"426 725 CURVE SMOOTH",
"387 755 OFFCURVE",
"338 772 OFFCURVE",
"275 772 CURVE SMOOTH",
"225 772 OFFCURVE",
"182 762 OFFCURVE",
"147 744 CURVE SMOOTH",
"141 741 OFFCURVE",
"140 735 OFFCURVE",
"144 730 CURVE SMOOTH",
"178 680 LINE SMOOTH",
"181 675 OFFCURVE",
"186 674 OFFCURVE",
"191 677 CURVE SMOOTH",
"215 690 OFFCURVE",
"243 697 OFFCURVE",
"275 697 CURVE SMOOTH",
"300 697 OFFCURVE",
"323 691 OFFCURVE",
"344 682 CURVE SMOOTH",
"351 679 OFFCURVE",
"351 673 OFFCURVE",
"344 669 CURVE SMOOTH",
"234 605 LINE SMOOTH",
"229 602 OFFCURVE",
"227 597 OFFCURVE",
"230 591 CURVE SMOOTH",
"252 554 LINE SMOOTH",
"255 549 OFFCURVE",
"261 547 OFFCURVE",
"266 550 CURVE SMOOTH",
"401 627 LINE SMOOTH",
"406 630 OFFCURVE",
"411 629 OFFCURVE",
"414 624 CURVE SMOOTH",
"450 571 OFFCURVE",
"467 496 OFFCURVE",
"470 411 CURVE SMOOTH",
"470 402 OFFCURVE",
"465 401 OFFCURVE",
"459 407 CURVE SMOOTH",
"409 464 OFFCURVE",
"345 492 OFFCURVE",
"273 492 CURVE SMOOTH",
"127 492 OFFCURVE",
"32 392 OFFCURVE",
"32 247 CURVE SMOOTH",
"32 101 OFFCURVE",
"132 -9 OFFCURVE",
"277 -9 CURVE SMOOTH"
);
},
{
closed = 1;
nodes = (
"182 66 OFFCURVE",
"117 150 OFFCURVE",
"117 248 CURVE SMOOTH",
"117 344 OFFCURVE",
"183 417 OFFCURVE",
"281 417 CURVE SMOOTH",
"378 417 OFFCURVE",
"451 343 OFFCURVE",
"451 248 CURVE SMOOTH",
"451 144 OFFCURVE",
"379 66 OFFCURVE",
"278 66 CURVE SMOOTH"
);
}
);
width = 605;
},
{
background = {
paths = (
{
closed = 1;
nodes = (
"468 -17 OFFCURVE",
"584 107 OFFCURVE",
"584 365 CURVE SMOOTH",
"584 495 OFFCURVE",
"553 595 OFFCURVE",
"500 664 CURVE SMOOTH",
"493 672 OFFCURVE",
"495 680 OFFCURVE",
"504 686 CURVE SMOOTH",
"528 700 LINE SMOOTH",
"537 705 OFFCURVE",
"539 713 OFFCURVE",
"534 722 CURVE SMOOTH",
"518 749 LINE SMOOTH",
"513 758 OFFCURVE",
"505 760 OFFCURVE",
"496 755 CURVE SMOOTH",
"450 729 LINE SMOOTH",
"443 725 OFFCURVE",
"436 724 OFFCURVE",
"428 729 CURVE SMOOTH",
"377 762 OFFCURVE",
"315 779 OFFCURVE",
"244 779 CURVE SMOOTH",
"199 779 OFFCURVE",
"153 775 OFFCURVE",
"103 760 CURVE SMOOTH",
"92 757 OFFCURVE",
"89 748 OFFCURVE",
"94 739 CURVE SMOOTH",
"147 635 LINE SMOOTH",
"151 626 OFFCURVE",
"159 623 OFFCURVE",
"168 626 CURVE SMOOTH",
"191 632 OFFCURVE",
"213 634 OFFCURVE",
"234 634 CURVE SMOOTH",
"242 634 OFFCURVE",
"249 634 OFFCURVE",
"257 633 CURVE SMOOTH",
"267 632 OFFCURVE",
"263 621 OFFCURVE",
"250 613 CURVE SMOOTH",
"241 608 LINE SMOOTH",
"232 603 OFFCURVE",
"230 595 OFFCURVE",
"235 586 CURVE SMOOTH",
"251 559 LINE SMOOTH",
"256 550 OFFCURVE",
"264 548 OFFCURVE",
"273 553 CURVE SMOOTH",
"340 592 LINE SMOOTH",
"348 596 OFFCURVE",
"356 597 OFFCURVE",
"363 591 CURVE SMOOTH",
"394 563 OFFCURVE",
"415 525 OFFCURVE",
"421 479 CURVE SMOOTH",
"423 463 OFFCURVE",
"411 458 OFFCURVE",
"399 468 CURVE SMOOTH",
"356 501 OFFCURVE",
"304 511 OFFCURVE",
"261 511 CURVE SMOOTH",
"118 511 OFFCURVE",
"14 421 OFFCURVE",
"14 260 CURVE SMOOTH",
"14 93 OFFCURVE",
"129 -17 OFFCURVE",
"289 -17 CURVE SMOOTH"
);
},
{
closed = 1;
nodes = (
"226 138 OFFCURVE",
"174 190 OFFCURVE",
"174 260 CURVE SMOOTH",
"174 325 OFFCURVE",
"226 377 OFFCURVE",
"292 377 CURVE SMOOTH",
"359 377 OFFCURVE",
"411 325 OFFCURVE",
"411 260 CURVE SMOOTH",
"411 190 OFFCURVE",
"359 138 OFFCURVE",
"292 138 CURVE SMOOTH"
);
}
);
};
layerId = "FD6EB2BB-8839-4CDB-86BF-4EEAE3F02079";
paths = (
{
closed = 1;
nodes = (
"468 -17 OFFCURVE",
"584 107 OFFCURVE",
"584 365 CURVE SMOOTH",
"584 493 OFFCURVE",
"554 592 OFFCURVE",
"502 660 CURVE SMOOTH",
"494 671 OFFCURVE",
"497 681 OFFCURVE",
"508 688 CURVE SMOOTH",
"525 698 LINE SMOOTH",
"536 705 OFFCURVE",
"538 714 OFFCURVE",
"532 725 CURVE SMOOTH",
"520 746 LINE SMOOTH",
"514 757 OFFCURVE",
"505 760 OFFCURVE",
"493 753 CURVE SMOOTH",
"452 730 LINE SMOOTH",
"443 725 OFFCURVE",
"434 725 OFFCURVE",
"425 731 CURVE SMOOTH",
"374 763 OFFCURVE",
"314 779 OFFCURVE",
"244 779 CURVE SMOOTH",
"200 779 OFFCURVE",
"156 775 OFFCURVE",
"107 762 CURVE SMOOTH",
"94 758 OFFCURVE",
"90 747 OFFCURVE",
"96 735 CURVE SMOOTH",
"146 638 LINE SMOOTH",
"151 628 OFFCURVE",
"160 624 OFFCURVE",
"172 627 CURVE SMOOTH",
"193 632 OFFCURVE",
"214 634 OFFCURVE",
"234 634 CURVE SMOOTH",
"243 634 OFFCURVE",
"251 633 OFFCURVE",
"256 632 CURVE SMOOTH",
"264 629 OFFCURVE",
"266 623 OFFCURVE",
"259 619 CURVE SMOOTH",
"245 610 LINE SMOOTH",
"233 602 OFFCURVE",
"231 594 OFFCURVE",
"237 583 CURVE SMOOTH",
"249 562 LINE SMOOTH",
"255 551 OFFCURVE",
"265 548 OFFCURVE",
"276 555 CURVE SMOOTH",
"338 591 LINE SMOOTH",
"348 597 OFFCURVE",
"357 597 OFFCURVE",
"366 589 CURVE SMOOTH",
"396 560 OFFCURVE",
"417 522 OFFCURVE",
"421 476 CURVE SMOOTH",
"423 459 OFFCURVE",
"413 456 OFFCURVE",
"400 466 CURVE SMOOTH",
"357 500 OFFCURVE",
"304 511 OFFCURVE",
"261 511 CURVE SMOOTH",
"118 511 OFFCURVE",
"14 421 OFFCURVE",
"14 260 CURVE SMOOTH",
"14 93 OFFCURVE",
"129 -17 OFFCURVE",
"289 -17 CURVE SMOOTH"
);
},
{
closed = 1;
nodes = (
"226 138 OFFCURVE",
"174 190 OFFCURVE",
"174 260 CURVE SMOOTH",
"174 325 OFFCURVE",
"226 377 OFFCURVE",
"292 377 CURVE SMOOTH",
"359 377 OFFCURVE",
"411 325 OFFCURVE",
"411 260 CURVE SMOOTH",
"411 190 OFFCURVE",
"359 138 OFFCURVE",
"292 138 CURVE SMOOTH"
);
}
);
width = 620;
}
);
unicode = 00F0;
},
{
color = 1;
glyphname = e;
lastChange = "2020-04-15 11:44:04 +0000";
layers = (
{
anchors = (
{
name = bottom;
position = "{325, 0}";
},
{
name = ogonek;
position = "{508, 44}";
},
{
name = top;
position = "{325, 567}";
}
);
background = {
paths = (
{
closed = 1;
nodes = (
"488 -12 OFFCURVE",
"575 84 OFFCURVE",
"607 196 CURVE",
"438 196 LINE",
"424 161 OFFCURVE",
"388 132 OFFCURVE",
"337 132 CURVE SMOOTH",
"295 132 OFFCURVE",
"261 145 OFFCURVE",
"237 175 CURVE SMOOTH",
"214 203 OFFCURVE",
"219 231 OFFCURVE",
"197 237 CURVE",
"201 248 LINE",
"616 248 LINE",
"616 277 LINE SMOOTH",
"616 496 OFFCURVE",
"472 579 OFFCURVE",
"323 579 CURVE SMOOTH",
"118 579 OFFCURVE",
"32 423 OFFCURVE",
"32 279 CURVE SMOOTH",
"32 111 OFFCURVE",
"148 -12 OFFCURVE",
"328 -12 CURVE SMOOTH"
);
},
{
closed = 1;
nodes = (
"203 370 LINE",
"223 376 OFFCURVE",
"211 390 OFFCURVE",
"239 418 CURVE SMOOTH",
"263 442 OFFCURVE",
"295 451 OFFCURVE",
"329 451 CURVE SMOOTH",
"363 451 OFFCURVE",
"395 442 OFFCURVE",
"419 418 CURVE SMOOTH",
"447 390 OFFCURVE",
"435 376 OFFCURVE",
"455 370 CURVE",
"454 367 LINE",
"204 367 LINE"
);
}
);
};
layerId = "FD6EB2BB-8839-4CDB-86BF-4EEAE3F02079";
paths = (
{
closed = 1;
nodes = (
"480 -12 OFFCURVE",
"566 74 OFFCURVE",
"602 179 CURVE SMOOTH",
"605 189 OFFCURVE",
"597 196 OFFCURVE",
"583 196 CURVE SMOOTH",
"454 196 LINE SMOOTH",
"443 196 OFFCURVE",
"437 191 OFFCURVE",
"431 182 CURVE SMOOTH",
"413 153 OFFCURVE",
"381 132 OFFCURVE",
"337 132 CURVE SMOOTH",
"295 132 OFFCURVE",
"261 145 OFFCURVE",
"237 175 CURVE SMOOTH",
"227 188 OFFCURVE",
"218 206 OFFCURVE",
"213 226 CURVE SMOOTH",
"209 240 OFFCURVE",
"216 248 OFFCURVE",
"230 248 CURVE SMOOTH",
"596 248 LINE SMOOTH",
"609 248 OFFCURVE",
"616 255 OFFCURVE",
"616 268 CURVE SMOOTH",
"616 271 OFFCURVE",
"616 274 OFFCURVE",
"616 277 CURVE SMOOTH",
"616 496 OFFCURVE",
"472 579 OFFCURVE",
"323 579 CURVE SMOOTH",
"118 579 OFFCURVE",
"32 423 OFFCURVE",
"32 279 CURVE SMOOTH",
"32 111 OFFCURVE",
"148 -12 OFFCURVE",
"328 -12 CURVE SMOOTH"
);
},
{
closed = 1;
nodes = (
"222 367 OFFCURVE",
"214 376 OFFCURVE",
"219 389 CURVE SMOOTH",
"223 398 OFFCURVE",
"229 408 OFFCURVE",
"239 418 CURVE SMOOTH",
"263 442 OFFCURVE",
"295 451 OFFCURVE",
"329 451 CURVE SMOOTH",
"363 451 OFFCURVE",
"395 442 OFFCURVE",
"419 418 CURVE SMOOTH",
"428 409 OFFCURVE",
"434 399 OFFCURVE",
"439 390 CURVE SMOOTH",
"445 376 OFFCURVE",
"436 367 OFFCURVE",
"422 367 CURVE SMOOTH",
"236 367 LINE SMOOTH"
);
}
);
width = 648;
},
{
anchors = (
{
name = bottom;
position = "{314, 0}";
},
{
name = ogonek;
position = "{481, 44}";
},
{
name = top;
position = "{314, 553}";
}
);
background = {
paths = (
{
closed = 1;
nodes = (
"454 -10 OFFCURVE",
"538 74 OFFCURVE",
"572 178 CURVE",
"481 178 LINE",
"457 117 OFFCURVE",
"400 65 OFFCURVE",
"316 65 CURVE SMOOTH",
"236 65 OFFCURVE",
"171 120 OFFCURVE",
"143 205 CURVE SMOOTH",
"134 232 OFFCURVE",
"137 243 OFFCURVE",
"119 246 CURVE",
"122 262 LINE",
"100 260 LINE",
"582 260 LINE",
"582 290 LINE SMOOTH",
"582 468 OFFCURVE",
"454 563 OFFCURVE",
"315 563 CURVE SMOOTH",
"144 563 OFFCURVE",
"48 425 OFFCURVE",
"48 275 CURVE SMOOTH",
"48 112 OFFCURVE",
"158 -10 OFFCURVE",
"317 -10 CURVE SMOOTH"
);
},
{
closed = 1;
nodes = (
"128 328 LINE",
"154 348 OFFCURVE",
"137 350 OFFCURVE",
"156 389 CURVE SMOOTH",
"186 452 OFFCURVE",
"243 488 OFFCURVE",
"317 488 CURVE SMOOTH",
"388 488 OFFCURVE",
"450 453 OFFCURVE",
"479 389 CURVE SMOOTH",
"497 350 OFFCURVE",
"481 348 OFFCURVE",
"506 328 CURVE",
"495 316 LINE",
"525 335 LINE",
"114 335 LINE",
"139 316 LINE"
);
}
);
};
layerId = "11907447-A26F-432E-A335-7727E0303767";
paths = (
{
closed = 1;
nodes = (
"450 -10 OFFCURVE",
"533 69 OFFCURVE",
"569 169 CURVE SMOOTH",
"571 174 OFFCURVE",
"567 178 OFFCURVE",
"560 178 CURVE SMOOTH",
"489 178 LINE SMOOTH",
"484 178 OFFCURVE",
"480 176 OFFCURVE",
"478 170 CURVE SMOOTH",
"452 113 OFFCURVE",
"396 65 OFFCURVE",
"316 65 CURVE SMOOTH",
"236 65 OFFCURVE",
"171 120 OFFCURVE",
"143 205 CURVE SMOOTH",
"138 219 OFFCURVE",
"135 235 OFFCURVE",
"133 250 CURVE SMOOTH",
"132 256 OFFCURVE",
"136 260 OFFCURVE",
"142 260 CURVE SMOOTH",
"572 260 LINE SMOOTH",
"578 260 OFFCURVE",
"582 264 OFFCURVE",
"582 270 CURVE SMOOTH",
"582 277 OFFCURVE",
"582 283 OFFCURVE",
"582 290 CURVE SMOOTH",
"582 468 OFFCURVE",
"454 563 OFFCURVE",
"315 563 CURVE SMOOTH",
"144 563 OFFCURVE",
"48 425 OFFCURVE",
"48 275 CURVE SMOOTH",
"48 112 OFFCURVE",
"158 -10 OFFCURVE",
"317 -10 CURVE SMOOTH"
);
},
{
closed = 1;
nodes = (
"144 335 OFFCURVE",
"141 339 OFFCURVE",
"142 346 CURVE SMOOTH",
"145 360 OFFCURVE",
"150 376 OFFCURVE",
"156 389 CURVE SMOOTH",
"186 452 OFFCURVE",
"243 488 OFFCURVE",
"317 488 CURVE SMOOTH",
"388 488 OFFCURVE",
"450 453 OFFCURVE",
"479 389 CURVE SMOOTH",
"485 376 OFFCURVE",
"488 360 OFFCURVE",
"490 345 CURVE SMOOTH",
"491 339 OFFCURVE",
"487 335 OFFCURVE",
"481 335 CURVE SMOOTH",
"151 335 LINE SMOOTH"
);
}
);
width = 629;
},
{
anchors = (
{
name = bottom;
position = "{308, 0}";
},
{
name = ogonek;
position = "{472, 44}";
},
{
name = top;
position = "{308, 549}";
}
);
background = {
paths = (
{
closed = 1;
nodes = (
"442 -10 OFFCURVE",
"526 71 OFFCURVE",
"558 173 CURVE",
"489 173 LINE",
"464 104 OFFCURVE",
"401 48 OFFCURVE",
"310 48 CURVE SMOOTH",
"226 48 OFFCURVE",
"157 101 OFFCURVE",
"128 187 CURVE SMOOTH",
"116 222 OFFCURVE",
"119 245 OFFCURVE",
"100 250 CURVE",
"104 265 LINE",
"83 263 LINE",
"570 263 LINE",
"570 274 OFFCURVE",
"570 284 OFFCURVE",
"569 293 CURVE SMOOTH",
"560 461 OFFCURVE",
"446 559 OFFCURVE",
"309 559 CURVE SMOOTH",
"147 559 OFFCURVE",
"48 426 OFFCURVE",
"48 274 CURVE SMOOTH",
"48 112 OFFCURVE",
"157 -10 OFFCURVE",
"310 -10 CURVE SMOOTH"
);
},
{
closed = 1;
nodes = (
"108 317 LINE",
"122 329 OFFCURVE",
"120 352 OFFCURVE",
"136 388 CURVE SMOOTH",
"167 459 OFFCURVE",
"230 501 OFFCURVE",
"310 501 CURVE SMOOTH",
"389 501 OFFCURVE",
"458 458 OFFCURVE",
"489 384 CURVE SMOOTH",
"503 350 OFFCURVE",
"501 329 OFFCURVE",
"514 317 CURVE",
"504 303 LINE",
"537 316 LINE",
"78 316 LINE",
"117 303 LINE"
);
}
);
};
layerId = "2F4EEC1B-9E89-4E08-AD53-AB625B6E887D";
paths = (
{
closed = 1;
nodes = (
"438 -10 OFFCURVE",
"521 66 OFFCURVE",
"555 164 CURVE SMOOTH",
"557 169 OFFCURVE",
"553 173 OFFCURVE",
"546 173 CURVE SMOOTH",
"497 173 LINE SMOOTH",
"492 173 OFFCURVE",
"488 171 OFFCURVE",
"486 165 CURVE SMOOTH",
"459 100 OFFCURVE",
"398 48 OFFCURVE",
"310 48 CURVE SMOOTH",
"226 48 OFFCURVE",
"158 101 OFFCURVE",
"128 187 CURVE SMOOTH",
"120 209 OFFCURVE",
"115 229 OFFCURVE",
"113 253 CURVE SMOOTH",
"112 259 OFFCURVE",
"116 263 OFFCURVE",
"122 263 CURVE SMOOTH",
"560 263 LINE SMOOTH",
"566 263 OFFCURVE",
"570 267 OFFCURVE",
"570 273 CURVE SMOOTH",
"570 281 OFFCURVE",
"570 289 OFFCURVE",
"569 297 CURVE SMOOTH",
"556 450 OFFCURVE",
"460 559 OFFCURVE",
"309 559 CURVE SMOOTH",
"147 559 OFFCURVE",
"48 426 OFFCURVE",
"48 274 CURVE SMOOTH",
"48 112 OFFCURVE",
"157 -10 OFFCURVE",
"310 -10 CURVE SMOOTH"
);
},
{
closed = 1;
nodes = (
"121 316 OFFCURVE",
"116 320 OFFCURVE",
"118 327 CURVE SMOOTH",
"121 347 OFFCURVE",
"128 369 OFFCURVE",
"136 388 CURVE SMOOTH",
"167 459 OFFCURVE",
"230 501 OFFCURVE",
"310 501 CURVE SMOOTH",
"389 501 OFFCURVE",
"457 458 OFFCURVE",
"489 384 CURVE SMOOTH",
"498 364 OFFCURVE",
"502 347 OFFCURVE",
"505 327 CURVE SMOOTH",
"506 320 OFFCURVE",
"502 316 OFFCURVE",
"496 316 CURVE SMOOTH",
"127 316 LINE SMOOTH"
);
}
);
width = 617;
}
);
leftKerningGroup = c;
note = e;
rightKerningGroup = o;
unicode = 0065;
},
{
color = 1;
glyphname = f;
lastChange = "2020-04-15 11:44:09 +0000";
layers = (
{
anchors = (
{
name = bottom;
position = "{188, 0}";
},
{
name = top;
position = "{188, 763}";
}
);
layerId = "FD6EB2BB-8839-4CDB-86BF-4EEAE3F02079";
paths = (
{
closed = 1;
nodes = (
"252 0 LINE SMOOTH",
"265 0 OFFCURVE",
"272 7 OFFCURVE",
"272 20 CURVE SMOOTH",
"272 417 LINE SMOOTH",
"272 430 OFFCURVE",
"279 437 OFFCURVE",
"292 437 CURVE SMOOTH",
"337 437 LINE SMOOTH",
"350 437 OFFCURVE",
"357 444 OFFCURVE",
"357 457 CURVE SMOOTH",
"357 547 LINE SMOOTH",
"357 560 OFFCURVE",
"350 567 OFFCURVE",
"337 567 CURVE SMOOTH",
"292 567 LINE SMOOTH",
"279 567 OFFCURVE",
"272 574 OFFCURVE",
"272 587 CURVE SMOOTH",
"272 597 LINE SMOOTH",
"272 628 OFFCURVE",
"292 634 OFFCURVE",
"305 634 CURVE SMOOTH",
"337 634 LINE SMOOTH",
"350 634 OFFCURVE",
"357 641 OFFCURVE",
"357 654 CURVE SMOOTH",
"357 743 LINE SMOOTH",
"357 756 OFFCURVE",
"350 763 OFFCURVE",
"337 763 CURVE SMOOTH",
"264 763 LINE SMOOTH",
"160 763 OFFCURVE",
"102 711 OFFCURVE",
"102 622 CURVE SMOOTH",
"102 587 LINE SMOOTH",
"102 574 OFFCURVE",
"95 567 OFFCURVE",
"82 567 CURVE SMOOTH",
"41 567 LINE SMOOTH",
"28 567 OFFCURVE",
"21 560 OFFCURVE",
"21 547 CURVE SMOOTH",
"21 457 LINE SMOOTH",
"21 444 OFFCURVE",
"28 437 OFFCURVE",
"41 437 CURVE SMOOTH",
"82 437 LINE SMOOTH",
"95 437 OFFCURVE",
"102 430 OFFCURVE",
"102 417 CURVE SMOOTH",
"102 20 LINE SMOOTH",
"102 7 OFFCURVE",
"109 0 OFFCURVE",
"122 0 CURVE SMOOTH"
);
}
);
width = 378;
},
{
anchors = (
{
name = bottom;
position = "{177, 0}";
},
{
name = top;
position = "{177, 763}";
}
);
layerId = "11907447-A26F-432E-A335-7727E0303767";
paths = (
{
closed = 1;
nodes = (
"193 0 LINE SMOOTH",
"199 0 OFFCURVE",
"203 4 OFFCURVE",
"203 10 CURVE SMOOTH",
"203 468 LINE SMOOTH",
"203 474 OFFCURVE",
"207 478 OFFCURVE",
"213 478 CURVE SMOOTH",
"322 478 LINE SMOOTH",
"328 478 OFFCURVE",
"332 482 OFFCURVE",
"332 488 CURVE SMOOTH",
"332 543 LINE SMOOTH",
"332 549 OFFCURVE",
"328 553 OFFCURVE",
"322 553 CURVE SMOOTH",
"213 553 LINE SMOOTH",
"207 553 OFFCURVE",
"203 557 OFFCURVE",
"203 563 CURVE SMOOTH",
"203 602 LINE SMOOTH",
"203 661 OFFCURVE",
"227 688 OFFCURVE",
"280 688 CURVE SMOOTH",
"322 688 LINE SMOOTH",
"328 688 OFFCURVE",
"332 692 OFFCURVE",
"332 698 CURVE SMOOTH",
"332 753 LINE SMOOTH",
"332 759 OFFCURVE",
"328 763 OFFCURVE",
"322 763 CURVE SMOOTH",
"261 763 LINE SMOOTH",
"166 763 OFFCURVE",
"118 711 OFFCURVE",
"118 613 CURVE SMOOTH",
"118 563 LINE SMOOTH",
"118 557 OFFCURVE",
"114 553 OFFCURVE",
"108 553 CURVE SMOOTH",
"36 553 LINE SMOOTH",
"30 553 OFFCURVE",
"26 549 OFFCURVE",
"26 543 CURVE SMOOTH",
"26 488 LINE SMOOTH",
"26 482 OFFCURVE",
"30 478 OFFCURVE",
"36 478 CURVE SMOOTH",
"108 478 LINE SMOOTH",
"114 478 OFFCURVE",
"118 474 OFFCURVE",
"118 468 CURVE SMOOTH",
"118 10 LINE SMOOTH",
"118 4 OFFCURVE",
"122 0 OFFCURVE",
"128 0 CURVE SMOOTH"
);
}
);
width = 353;
},
{
anchors = (
{
name = bottom;
position = "{172, 0}";
},
{
name = top;
position = "{172, 763}";
}
);
layerId = "2F4EEC1B-9E89-4E08-AD53-AB625B6E887D";
paths = (
{
closed = 1;
nodes = (
"173 0 LINE SMOOTH",
"179 0 OFFCURVE",
"183 4 OFFCURVE",
"183 10 CURVE SMOOTH",
"183 481 LINE SMOOTH",
"183 487 OFFCURVE",
"187 491 OFFCURVE",
"193 491 CURVE SMOOTH",
"312 491 LINE SMOOTH",
"318 491 OFFCURVE",
"322 495 OFFCURVE",
"322 501 CURVE SMOOTH",
"322 539 LINE SMOOTH",
"322 545 OFFCURVE",
"318 549 OFFCURVE",
"312 549 CURVE SMOOTH",
"193 549 LINE SMOOTH",
"187 549 OFFCURVE",
"183 553 OFFCURVE",
"183 559 CURVE SMOOTH",
"183 618 LINE SMOOTH",
"183 690 OFFCURVE",
"219 705 OFFCURVE",
"270 705 CURVE SMOOTH",
"312 705 LINE SMOOTH",
"318 705 OFFCURVE",
"322 709 OFFCURVE",
"322 715 CURVE SMOOTH",
"322 753 LINE SMOOTH",
"322 759 OFFCURVE",
"318 763 OFFCURVE",
"312 763 CURVE SMOOTH",
"256 763 LINE SMOOTH",
"164 763 OFFCURVE",
"118 711 OFFCURVE",
"118 611 CURVE SMOOTH",
"118 559 LINE SMOOTH",
"118 553 OFFCURVE",
"114 549 OFFCURVE",
"108 549 CURVE SMOOTH",
"36 549 LINE SMOOTH",
"30 549 OFFCURVE",
"26 545 OFFCURVE",
"26 539 CURVE SMOOTH",
"26 501 LINE SMOOTH",
"26 495 OFFCURVE",
"30 491 OFFCURVE",
"36 491 CURVE SMOOTH",
"108 491 LINE SMOOTH",
"114 491 OFFCURVE",
"118 487 OFFCURVE",
"118 481 CURVE SMOOTH",
"118 10 LINE SMOOTH",
"118 4 OFFCURVE",
"122 0 OFFCURVE",
"128 0 CURVE SMOOTH"
);
}
);
width = 343;
}
);
leftKerningGroup = f;
note = f;
rightKerningGroup = f;
unicode = 0066;
},
{
color = 1;
glyphname = g;
lastChange = "2020-04-15 11:44:20 +0000";
layers = (
{
anchors = (
{
name = bottom;
position = "{325, -237}";
},
{
name = top;
position = "{325, 567}";
}
);
background = {
components = (
{
name = q;
transform = "{1, 0, 0, 1, 1, 0}";
}
);
guideLines = (
{
angle = 270;
position = "{442, 567}";
}
);
};
guideLines = (
{
angle = 270;
position = "{442, 567}";
}
);
layerId = "FD6EB2BB-8839-4CDB-86BF-4EEAE3F02079";
paths = (
{
closed = 1;
nodes = (
"472 -208 OFFCURVE",
"595 -155 OFFCURVE",
"595 48 CURVE SMOOTH",
"595 547 LINE SMOOTH",
"595 560 OFFCURVE",
"588 567 OFFCURVE",
"575 567 CURVE SMOOTH",
"447 567 LINE SMOOTH",
"434 567 OFFCURVE",
"427 560 OFFCURVE",
"427 547 CURVE SMOOTH",
"427 537 LINE SMOOTH",
"427 522 OFFCURVE",
"417 521 OFFCURVE",
"405 534 CURVE SMOOTH",
"371 568 OFFCURVE",
"331 579 OFFCURVE",
"282 579 CURVE SMOOTH",
"137 579 OFFCURVE",
"35 457 OFFCURVE",
"35 293 CURVE SMOOTH",
"35 130 OFFCURVE",
"137 8 OFFCURVE",
"282 8 CURVE SMOOTH",
"331 8 OFFCURVE",
"371 19 OFFCURVE",
"405 53 CURVE SMOOTH",
"417 66 OFFCURVE",
"427 64 OFFCURVE",
"427 46 CURVE SMOOTH",
"427 5 LINE SMOOTH",
"427 -42 OFFCURVE",
"397 -83 OFFCURVE",
"321 -83 CURVE SMOOTH",
"277 -83 OFFCURVE",
"247 -71 OFFCURVE",
"228 -35 CURVE SMOOTH",
"222 -25 OFFCURVE",
"215 -20 OFFCURVE",
"204 -20 CURVE SMOOTH",
"75 -20 LINE SMOOTH",
"61 -20 OFFCURVE",
"54 -28 OFFCURVE",
"58 -42 CURVE SMOOTH",
"91 -176 OFFCURVE",
"211 -208 OFFCURVE",
"322 -208 CURVE SMOOTH"
);
},
{
closed = 1;
nodes = (
"253 151 OFFCURVE",
"205 214 OFFCURVE",
"205 293 CURVE SMOOTH",
"205 373 OFFCURVE",
"254 436 OFFCURVE",
"329 436 CURVE SMOOTH",
"403 436 OFFCURVE",
"453 375 OFFCURVE",
"453 293 CURVE SMOOTH",
"453 212 OFFCURVE",
"403 151 OFFCURVE",
"329 151 CURVE SMOOTH"
);
}
);
width = 650;
},
{
anchors = (
{
name = bottom;
position = "{318, -237}";
},
{
name = top;
position = "{318, 553}";
}
);
background = {
components = (
{
name = q;
transform = "{1, 0, 0, 1, 2, 0}";
}
);
};
layerId = "11907447-A26F-432E-A335-7727E0303767";
paths = (
{
closed = 1;
nodes = (
"460 -220 OFFCURVE",
"564 -161 OFFCURVE",
"564 19 CURVE SMOOTH",
"564 543 LINE SMOOTH",
"564 549 OFFCURVE",
"560 553 OFFCURVE",
"554 553 CURVE SMOOTH",
"489 553 LINE SMOOTH",
"483 553 OFFCURVE",
"479 549 OFFCURVE",
"479 543 CURVE SMOOTH",
"479 486 LINE SMOOTH",
"479 477 OFFCURVE",
"473 475 OFFCURVE",
"467 482 CURVE SMOOTH",
"416 542 OFFCURVE",
"368 563 OFFCURVE",
"297 563 CURVE SMOOTH",
"149 563 OFFCURVE",
"52 446 OFFCURVE",
"52 274 CURVE SMOOTH",
"52 107 OFFCURVE",
"149 -10 OFFCURVE",
"298 -10 CURVE SMOOTH",
"367 -10 OFFCURVE",
"415 9 OFFCURVE",
"467 71 CURVE SMOOTH",
"473 78 OFFCURVE",
"479 76 OFFCURVE",
"479 67 CURVE SMOOTH",
"479 3 LINE SMOOTH",
"479 -89 OFFCURVE",
"430 -145 OFFCURVE",
"314 -145 CURVE SMOOTH",
"227 -145 OFFCURVE",
"177 -114 OFFCURVE",
"157 -53 CURVE SMOOTH",
"156 -48 OFFCURVE",
"152 -45 OFFCURVE",
"146 -45 CURVE SMOOTH",
"79 -45 LINE SMOOTH",
"72 -45 OFFCURVE",
"69 -49 OFFCURVE",
"70 -56 CURVE SMOOTH",
"96 -181 OFFCURVE",
"206 -220 OFFCURVE",
"315 -220 CURVE SMOOTH"
);
},
{
closed = 1;
nodes = (
"202 65 OFFCURVE",
"137 156 OFFCURVE",
"137 277 CURVE SMOOTH",
"137 397 OFFCURVE",
"202 488 OFFCURVE",
"306 488 CURVE SMOOTH",
"408 488 OFFCURVE",
"482 399 OFFCURVE",
"482 277 CURVE SMOOTH",
"482 154 OFFCURVE",
"409 65 OFFCURVE",
"306 65 CURVE SMOOTH"
);
}
);
width = 635;
},
{
anchors = (
{
name = bottom;
position = "{311, -237}";
},
{
name = top;
position = "{322, 549}";
}
);
background = {
components = (
{
name = q;
}
);
};
layerId = "2F4EEC1B-9E89-4E08-AD53-AB625B6E887D";
paths = (
{
closed = 1;
nodes = (
"458 -224 OFFCURVE",
"551 -161 OFFCURVE",
"551 7 CURVE SMOOTH",
"551 539 LINE SMOOTH",
"551 545 OFFCURVE",
"547 549 OFFCURVE",
"541 549 CURVE SMOOTH",
"496 549 LINE SMOOTH",
"490 549 OFFCURVE",
"486 545 OFFCURVE",
"486 539 CURVE SMOOTH",
"486 467 LINE SMOOTH",
"486 458 OFFCURVE",
"480 456 OFFCURVE",
"474 463 CURVE SMOOTH",
"427 524 OFFCURVE",
"364 559 OFFCURVE",
"290 559 CURVE SMOOTH",
"147 559 OFFCURVE",
"50 441 OFFCURVE",
"50 276 CURVE SMOOTH",
"50 109 OFFCURVE",
"147 -10 OFFCURVE",
"290 -10 CURVE SMOOTH",
"364 -10 OFFCURVE",
"426 24 OFFCURVE",
"474 85 CURVE SMOOTH",
"480 93 OFFCURVE",
"486 91 OFFCURVE",
"486 82 CURVE SMOOTH",
"486 -4 LINE SMOOTH",
"486 -108 OFFCURVE",
"434 -166 OFFCURVE",
"307 -166 CURVE SMOOTH",
"207 -166 OFFCURVE",
"157 -132 OFFCURVE",
"134 -64 CURVE SMOOTH",
"132 -59 OFFCURVE",
"127 -56 OFFCURVE",
"122 -56 CURVE SMOOTH",
"78 -56 LINE SMOOTH",
"71 -56 OFFCURVE",
"67 -60 OFFCURVE",
"69 -67 CURVE SMOOTH",
"104 -180 OFFCURVE",
"191 -224 OFFCURVE",
"308 -224 CURVE SMOOTH"
);
},
{
closed = 1;
nodes = (
"184 48 OFFCURVE",
"115 146 OFFCURVE",
"115 274 CURVE SMOOTH",
"115 403 OFFCURVE",
"182 501 OFFCURVE",
"296 501 CURVE SMOOTH",
"407 501 OFFCURVE",
"488 404 OFFCURVE",
"488 274 CURVE SMOOTH",
"488 145 OFFCURVE",
"407 48 OFFCURVE",
"296 48 CURVE SMOOTH"
);
}
);
width = 622;
}
);
leftKerningGroup = c;
note = g;
rightKerningGroup = g;
rightMetricsKey = u;
unicode = 0067;
},
